<svg id="Layer_1" data-name="Layer 1" xmlns="http://www.w3.org/2000/svg" viewBox="0 0 56.69 56.69"><title>igikon</title><path id="Instagram" d="M42.32,10H14.37A4.36,4.36,0,0,0,10,14.36v28a4.36,4.36,0,0,0,4.36,4.35h28a4.36,4.36,0,0,0,4.36-4.35v-28A4.36,4.36,0,0,0,42.32,10Zm-6,5.73a1.14,1.14,0,0,1,1.14-1.14H41a1.15,1.15,0,0,1,1.15,1.14v3.44A1.16,1.16,0,0,1,41,20.33H37.51a1.15,1.15,0,0,1-1.14-1.15Zm-8,5.62a7,7,0,1,1-7,7A7,7,0,0,1,28.39,21.36ZM43.24,42.1a1.14,1.14,0,0,1-1.14,1.14H14.6a1.15,1.15,0,0,1-1.15-1.14V24.91H18a7.06,7.06,0,0,0-.79,3.48,11.15,11.15,0,0,0,22.3,0,5.85,5.85,0,0,0-.88-3.48h4.58Z"/></svg>
