<svg id="Layer_1" data-name="Layer 1" xmlns="http://www.w3.org/2000/svg" viewBox="0 0 56.69 56.69"><title>inikon</title><g id="LinkedIn"><rect x="10.83" y="22.33" width="7.19" height="22.78"/><path d="M37.67,22.11c-4.12,0-6.7,2.23-7.18,3.8V22.33H22.41c.11,1.9,0,22.78,0,22.78h8.08V32.79a5.2,5.2,0,0,1,.18-1.87,4.1,4.1,0,0,1,3.89-2.79c2.8,0,4.08,2.11,4.08,5.2V45.11h8.15V32.45C46.79,25.39,42.78,22.11,37.67,22.11Z"/><path d="M14.29,11.58c-2.65,0-4.39,1.7-4.39,3.95a4,4,0,0,0,4.29,4h.05c2.71,0,4.39-1.75,4.39-4A4,4,0,0,0,14.29,11.58Z"/></g></svg>
