<svg xmlns="http://www.w3.org/2000/svg" xmlns:xlink="http://www.w3.org/1999/xlink" width="1920" height="1080" viewBox="0 0 1920 1080"><defs><style>.cls-1{fill:#90ced4;}.cls-2{fill:#77c5ce;}.cls-3{fill:#f7f7f7;}.cls-4{fill:#f5f7f7;}.cls-5{fill:#717271;}.cls-10,.cls-6{fill:#1d1d1b;}.cls-6,.cls-7{stroke:#000;stroke-miterlimit:10;}.cls-20,.cls-7{fill:#858584;}.cls-8{fill:#929292;}.cls-9{fill:#484948;}.cls-11{fill:#fff;}.cls-12{fill:#b4d2c7;}.cls-13{fill:#d8d2c7;}.cls-14{isolation:isolate;}.cls-15{fill:#9b760c;}.cls-16{fill:#a07420;}.cls-17{fill:#cd8f22;}.cls-18{fill:#aeaeae;}.cls-19{fill:#ebebeb;}.cls-21{fill:#1f669b;}.cls-22{fill:#1f4b70;}.cls-23{fill:url(#linear-gradient);}.cls-24{fill:url(#linear-gradient-2);}.cls-25{fill:url(#linear-gradient-3);}.cls-26{fill:url(#linear-gradient-4);}.cls-27{fill:url(#linear-gradient-5);}.cls-28{fill:url(#linear-gradient-6);}.cls-29{fill:#3d3124;}.cls-30{fill:url(#linear-gradient-7);}.cls-31{fill:url(#linear-gradient-8);}.cls-32{fill:url(#linear-gradient-9);}.cls-33{fill:url(#linear-gradient-10);}.cls-34{fill:url(#linear-gradient-11);}.cls-35{fill:url(#linear-gradient-12);}.cls-36{fill:url(#linear-gradient-13);}.cls-37{fill:url(#linear-gradient-14);}.cls-38{fill:url(#linear-gradient-15);}.cls-39{fill:#dda37c;}.cls-40{fill:url(#linear-gradient-16);}.cls-41{fill:url(#linear-gradient-17);}.cls-42{fill:url(#linear-gradient-18);}.cls-43{fill:url(#linear-gradient-19);}.cls-44{fill:#fefffc;}.cls-45{fill:#d41100;}.cls-46{fill:#6f27a1;}.cls-47{fill:#9d51d2;}.cls-48{fill:#4c1b6f;}.cls-49{fill:#72c730;}.cls-50{fill:#99ef56;}.cls-51{fill:url(#linear-gradient-20);}.cls-52{fill:#824816;}.cls-53{fill:url(#linear-gradient-21);}.cls-54{fill:url(#linear-gradient-22);}.cls-55{fill:url(#linear-gradient-23);}.cls-56{fill:#ca9b5b;}.cls-57{fill:#ab7f51;}.cls-58{fill:url(#linear-gradient-24);}.cls-59{fill:url(#linear-gradient-25);}.cls-60{fill:url(#linear-gradient-26);}.cls-61{fill:url(#linear-gradient-27);}.cls-62{fill:url(#linear-gradient-28);}.cls-63{fill:url(#linear-gradient-29);}.cls-64{fill:url(#linear-gradient-30);}.cls-65{fill:url(#linear-gradient-31);}.cls-66{fill:url(#linear-gradient-32);}.cls-67{fill:url(#linear-gradient-33);}.cls-68{fill:#e77f47;}.cls-69{fill:#e79d47;}.cls-70{fill:url(#linear-gradient-34);}.cls-71{fill:url(#linear-gradient-35);}.cls-72{fill:url(#linear-gradient-36);}.cls-73{fill:url(#linear-gradient-37);}.cls-74{fill:url(#linear-gradient-38);}.cls-75{fill:url(#linear-gradient-39);}.cls-76{fill:url(#linear-gradient-40);}.cls-77{fill:url(#linear-gradient-41);}.cls-78{fill:url(#linear-gradient-42);}.cls-79{fill:url(#linear-gradient-43);}.cls-80{fill:#ff9206;}.cls-81{fill:url(#linear-gradient-44);}.cls-82{fill:url(#linear-gradient-45);}.cls-83{fill:url(#linear-gradient-46);}.cls-84{fill:url(#linear-gradient-47);}.cls-85{fill:url(#linear-gradient-48);}.cls-86{fill:url(#linear-gradient-49);}.cls-87{fill:url(#linear-gradient-50);}.cls-88{fill:url(#linear-gradient-51);}.cls-89{fill:url(#linear-gradient-52);}.cls-90{fill:url(#linear-gradient-53);}.cls-91{fill:url(#linear-gradient-54);}.cls-92{fill:url(#linear-gradient-55);}</style><linearGradient id="linear-gradient" x1="1642.44" y1="1988.19" x2="1575.98" y2="2054.65" gradientTransform="translate(0 -1581.75)" gradientUnits="userSpaceOnUse"><stop offset="0" stop-color="#d3a267"/><stop offset="0.29" stop-color="#cf9e65"/><stop offset="0.6" stop-color="#c2945f"/><stop offset="0.91" stop-color="#ae8256"/><stop offset="1" stop-color="#a67c52"/></linearGradient><linearGradient id="linear-gradient-2" x1="1628.01" y1="1972.86" x2="1601.45" y2="1999.42" xlink:href="#linear-gradient"/><linearGradient id="linear-gradient-3" x1="1592.33" y1="1963.98" x2="1592.33" y2="1998.47" gradientTransform="translate(0 -1581.75)" gradientUnits="userSpaceOnUse"><stop offset="0.49" stop-color="#d3a267"/><stop offset="0.63" stop-color="#cc9c64"/><stop offset="0.84" stop-color="#ba8d5b"/><stop offset="1" stop-color="#a67c52"/></linearGradient><linearGradient id="linear-gradient-4" x1="1596.92" y1="1973.52" x2="1596.92" y2="1978.49" gradientTransform="translate(0 -1581.75)" gradientUnits="userSpaceOnUse"><stop offset="0.46" stop-color="#d3a267"/><stop offset="0.62" stop-color="#cc9c64"/><stop offset="0.84" stop-color="#ba8d5b"/><stop offset="1" stop-color="#a87e53"/><stop offset="1" stop-color="#a67c52"/></linearGradient><linearGradient id="linear-gradient-5" x1="1609.12" y1="1973.02" x2="1609.12" y2="1978.79" xlink:href="#linear-gradient-3"/><linearGradient id="linear-gradient-6" x1="1606.39" y1="1946.84" x2="1596.74" y2="1956.48" xlink:href="#linear-gradient"/><linearGradient id="linear-gradient-7" x1="1603.79" y1="2008.28" x2="1603.79" y2="2013.52" xlink:href="#linear-gradient"/><linearGradient id="linear-gradient-8" x1="1604.08" y1="2010.23" x2="1604.08" y2="2015.45" xlink:href="#linear-gradient"/><linearGradient id="linear-gradient-9" x1="1604.08" y1="2012.47" x2="1604.08" y2="2015.56" gradientTransform="translate(0 -1581.75)" gradientUnits="userSpaceOnUse"><stop offset="0" stop-color="#d3a267"/><stop offset="0.04" stop-color="#cb9b63"/><stop offset="0.15" stop-color="#ba8d5c"/><stop offset="0.28" stop-color="#af8356"/><stop offset="0.47" stop-color="#a87e53"/><stop offset="1" stop-color="#a67c52"/></linearGradient><linearGradient id="linear-gradient-10" x1="1604.08" y1="2012.79" x2="1604.08" y2="2015.56" gradientTransform="translate(0 -1581.75)" gradientUnits="userSpaceOnUse"><stop offset="0" stop-color="#d3a267"/><stop offset="0.53" stop-color="#d1a066"/><stop offset="0.72" stop-color="#ca9b63"/><stop offset="0.85" stop-color="#bf915d"/><stop offset="0.96" stop-color="#ae8356"/><stop offset="1" stop-color="#a67c52"/></linearGradient><linearGradient id="linear-gradient-11" x1="1604.08" y1="2014.82" x2="1604.08" y2="2015.56" xlink:href="#linear-gradient-9"/><linearGradient id="linear-gradient-12" x1="1602.85" y1="1995.29" x2="1602.85" y2="1997.01" xlink:href="#linear-gradient-9"/><linearGradient id="linear-gradient-13" x1="1596.23" y1="1976.25" x2="1596.23" y2="1976.97" xlink:href="#linear-gradient-9"/><linearGradient id="linear-gradient-14" x1="1609.29" y1="1976.31" x2="1609.29" y2="1977.02" xlink:href="#linear-gradient-9"/><linearGradient id="linear-gradient-15" x1="1508.67" y1="2013.14" x2="1581.18" y2="2013.14" gradientTransform="translate(0 -1581.75)" gradientUnits="userSpaceOnUse"><stop offset="0" stop-color="#f8d9b7"/><stop offset="0.22" stop-color="#ecc8a7"/><stop offset="0.72" stop-color="#d5a888"/><stop offset="1" stop-color="#cc9c7c"/></linearGradient><linearGradient id="linear-gradient-16" x1="1496.21" y1="2081.74" x2="1621.44" y2="2081.74" gradientTransform="translate(0 -1581.75)" gradientUnits="userSpaceOnUse"><stop offset="0" stop-color="#29abe2"/><stop offset="0.2" stop-color="#2a98d6"/><stop offset="0.6" stop-color="#2c68b6"/><stop offset="1" stop-color="#2e3192"/></linearGradient><linearGradient id="linear-gradient-17" x1="1502.63" y1="1978.03" x2="1544.47" y2="1978.03" gradientTransform="translate(0 -1581.75)" gradientUnits="userSpaceOnUse"><stop offset="0" stop-color="#776c5c"/><stop offset="0.06" stop-color="#756a5a"/><stop offset="0.47" stop-color="#6b6151"/><stop offset="1" stop-color="#685e4e"/></linearGradient><linearGradient id="linear-gradient-18" x1="1502.51" y1="1984.03" x2="1544.63" y2="1984.03" gradientTransform="translate(0 -1581.75)" gradientUnits="userSpaceOnUse"><stop offset="0" stop-color="#776c5c"/><stop offset="1" stop-color="#685e4e"/></linearGradient><linearGradient id="linear-gradient-19" x1="1329.07" y1="8137.35" x2="1337.81" y2="8137.35" gradientTransform="translate(0 -7433.3)" gradientUnits="userSpaceOnUse"><stop offset="0" stop-color="#cb7f61"/><stop offset="0.02" stop-color="#cc7f64"/><stop offset="0.18" stop-color="#d07e6f"/><stop offset="0.4" stop-color="#d27d76"/><stop offset="1" stop-color="#d37d78"/></linearGradient><linearGradient id="linear-gradient-20" x1="246.22" y1="-0.29" x2="273.26" y2="-0.29" gradientTransform="matrix(-0.96, -0.27, -0.27, 0.96, 634.22, 174.42)" gradientUnits="userSpaceOnUse"><stop offset="0.16" stop-color="#acd70e"/><stop offset="0.58" stop-color="#86bb05"/><stop offset="0.77" stop-color="#73ad01"/></linearGradient><linearGradient id="linear-gradient-21" x1="1319.85" y1="150.85" x2="1346.92" y2="150.85" gradientTransform="translate(-919.66 -41.65)" xlink:href="#linear-gradient-20"/><linearGradient id="linear-gradient-22" x1="1117.07" y1="511.4" x2="1144.46" y2="564.92" gradientTransform="matrix(0.84, -0.57, 0.54, 0.8, -847.76, 350.89)" gradientUnits="userSpaceOnUse"><stop offset="0.16" stop-color="#f9b050"/><stop offset="0.25" stop-color="#f79f49"/><stop offset="0.47" stop-color="#f37c3a"/><stop offset="0.65" stop-color="#f16731"/><stop offset="0.77" stop-color="#f05f2e"/></linearGradient><linearGradient id="linear-gradient-23" x1="1312.77" y1="160.25" x2="1339.99" y2="213.43" gradientTransform="translate(-919.66 -41.65)" xlink:href="#linear-gradient-22"/><linearGradient id="linear-gradient-24" x1="1496.24" y1="841.02" x2="1535.35" y2="841.02" gradientUnits="userSpaceOnUse"><stop offset="0" stop-color="#e7b38d"/><stop offset="1" stop-color="#e7b38d"/></linearGradient><linearGradient id="linear-gradient-25" x1="1493.3" y1="695.78" x2="1523.54" y2="695.78" gradientUnits="userSpaceOnUse"><stop offset="0" stop-color="#be9376"/><stop offset="1" stop-color="#bf9374"/></linearGradient><linearGradient id="linear-gradient-26" x1="1494.74" y1="794.97" x2="1515.38" y2="794.97" xlink:href="#linear-gradient-25"/><linearGradient id="linear-gradient-27" x1="1059.35" y1="893.87" x2="1554.49" y2="893.87" gradientUnits="userSpaceOnUse"><stop offset="0" stop-color="#e7b38d"/><stop offset="1" stop-color="#f4bd95"/></linearGradient><linearGradient id="linear-gradient-28" x1="1054" y1="810.98" x2="1197.66" y2="810.98" xlink:href="#linear-gradient-25"/><linearGradient id="linear-gradient-29" x1="1206.92" y1="793.09" x2="1267.71" y2="793.09" xlink:href="#linear-gradient-25"/><linearGradient id="linear-gradient-30" x1="1228.97" y1="956.49" x2="1264.01" y2="956.49" xlink:href="#linear-gradient-25"/><linearGradient id="linear-gradient-31" x1="1320.69" y1="941.53" x2="1358.26" y2="941.53" xlink:href="#linear-gradient-25"/><linearGradient id="linear-gradient-32" x1="1390.87" y1="936.34" x2="1419.14" y2="936.34" xlink:href="#linear-gradient-25"/><linearGradient id="linear-gradient-33" x1="1182.99" y1="1077.37" x2="1308.08" y2="1077.37" xlink:href="#linear-gradient-25"/><linearGradient id="linear-gradient-34" x1="1345.05" y1="8013.98" x2="1457.66" y2="8013.98" gradientTransform="translate(0 -7433.3)" gradientUnits="userSpaceOnUse"><stop offset="0" stop-color="#f4c77a"/><stop offset="0.36" stop-color="#eab470"/><stop offset="1" stop-color="#d48a5b"/></linearGradient><linearGradient id="linear-gradient-35" x1="1360.83" y1="8005.62" x2="1420.77" y2="8005.62" gradientTransform="translate(0 -7433.3)" gradientUnits="userSpaceOnUse"><stop offset="0" stop-color="#e29971"/><stop offset="1" stop-color="#d39974"/></linearGradient><linearGradient id="linear-gradient-36" x1="1423.75" y1="8066.78" x2="1309.04" y2="8066.78" gradientTransform="translate(0 -7433.3)" gradientUnits="userSpaceOnUse"><stop offset="0" stop-color="#de966e"/><stop offset="0.6" stop-color="#e09881"/><stop offset="1" stop-color="#e19a90"/></linearGradient><linearGradient id="linear-gradient-37" x1="1336.51" y1="7993.93" x2="1376.74" y2="7993.93" gradientTransform="translate(0 -7433.3)" gradientUnits="userSpaceOnUse"><stop offset="0" stop-color="#e29990"/><stop offset="0.06" stop-color="#de9988"/><stop offset="0.21" stop-color="#d8997d"/><stop offset="0.42" stop-color="#d49976"/><stop offset="1" stop-color="#d39974"/></linearGradient><linearGradient id="linear-gradient-38" x1="1320.8" y1="8080.25" x2="1363.21" y2="8080.25" gradientTransform="translate(0 -7433.3)" gradientUnits="userSpaceOnUse"><stop offset="0" stop-color="#cb7461"/><stop offset="0.02" stop-color="#cc7564"/><stop offset="0.18" stop-color="#d07a6f"/><stop offset="0.4" stop-color="#d27c76"/><stop offset="1" stop-color="#d37d78"/></linearGradient><linearGradient id="linear-gradient-39" x1="1282.59" y1="8024.03" x2="1351.89" y2="8024.03" xlink:href="#linear-gradient-34"/><linearGradient id="linear-gradient-40" x1="1345.5" y1="7965.37" x2="1380.42" y2="7965.37" xlink:href="#linear-gradient-34"/><linearGradient id="linear-gradient-41" x1="1367.38" y1="8064.97" x2="1406.67" y2="8064.97" gradientTransform="translate(0 -7433.3)" gradientUnits="userSpaceOnUse"><stop offset="0" stop-color="#cb7a61"/><stop offset="0.02" stop-color="#cc7a64"/><stop offset="0.18" stop-color="#d07c6f"/><stop offset="0.4" stop-color="#d27d76"/><stop offset="1" stop-color="#d37d78"/></linearGradient><linearGradient id="linear-gradient-42" x1="1374.49" y1="8118.7" x2="1376.83" y2="8118.7" gradientTransform="translate(0 -7433.3)" gradientUnits="userSpaceOnUse"><stop offset="0" stop-color="#cb6061"/><stop offset="0.07" stop-color="#cd6968"/><stop offset="0.22" stop-color="#d17471"/><stop offset="0.42" stop-color="#d27b77"/><stop offset="1" stop-color="#d37d78"/></linearGradient><linearGradient id="linear-gradient-43" x1="1397.53" y1="8074.85" x2="1402.83" y2="8074.85" gradientTransform="translate(0 -7433.3)" gradientUnits="userSpaceOnUse"><stop offset="0" stop-color="#cb7761"/><stop offset="0.02" stop-color="#cc7864"/><stop offset="0.18" stop-color="#d07b6f"/><stop offset="0.4" stop-color="#d27d76"/><stop offset="1" stop-color="#d37d78"/></linearGradient><linearGradient id="linear-gradient-44" x1="1503.41" y1="666.92" x2="1559.08" y2="666.92" xlink:href="#linear-gradient-24"/><linearGradient id="linear-gradient-45" x1="1488.98" y1="764.36" x2="1558.73" y2="764.36" xlink:href="#linear-gradient-24"/><linearGradient id="linear-gradient-46" x1="1488.34" y1="866.12" x2="1556.33" y2="866.12" xlink:href="#linear-gradient-24"/><linearGradient id="linear-gradient-47" x1="1189.76" y1="536" x2="1189.76" y2="570.11" gradientUnits="userSpaceOnUse"><stop offset="0" stop-color="#f2e1cc"/><stop offset="0.18" stop-color="#f4e5d5"/><stop offset="0.53" stop-color="#f7eade"/><stop offset="1" stop-color="#f8ece1"/></linearGradient><linearGradient id="linear-gradient-48" x1="1549.56" y1="639.85" x2="1549.56" y2="669" xlink:href="#linear-gradient-47"/><linearGradient id="linear-gradient-49" x1="1524.47" y1="746.74" x2="1524.47" y2="789" xlink:href="#linear-gradient-47"/><linearGradient id="linear-gradient-50" x1="1524.83" y1="851" x2="1524.83" y2="888.2" xlink:href="#linear-gradient-47"/><linearGradient id="linear-gradient-51" x1="1477.74" y1="1105.97" x2="1694.07" y2="1105.97" gradientUnits="userSpaceOnUse"><stop offset="0" stop-color="#d7a685"/><stop offset="1" stop-color="#d7a685"/></linearGradient><linearGradient id="linear-gradient-52" x1="1523.95" y1="1076.53" x2="1592.11" y2="1076.53" gradientUnits="userSpaceOnUse"><stop offset="0" stop-color="#be9474"/><stop offset="1" stop-color="#d7a685"/></linearGradient><linearGradient id="linear-gradient-53" x1="1432.78" y1="1025.67" x2="1891.81" y2="1025.67" xlink:href="#linear-gradient-27"/><linearGradient id="linear-gradient-54" x1="1460.42" y1="779.87" x2="1460.42" y2="820" xlink:href="#linear-gradient-47"/><linearGradient id="linear-gradient-55" x1="1486.14" y1="984.51" x2="1486.14" y2="1019.04" xlink:href="#linear-gradient-47"/></defs><title>annonce</title><g id="Layer_2" data-name="Layer 2"><rect class="cls-1" x="-0.5" y="-0.5" width="1920" height="1080"/><polygon class="cls-2" points="-1 1079 1919 -1 1919 1079 -1 1079"/></g><g id="Layer_4" data-name="Layer 4"><image width="258" height="187" transform="translate(1709 20) scale(0.71)" xlink:href="../logo-privatsnak.png"/></g><g id="Layer_5" data-name="Layer 5"><ellipse class="cls-3" cx="559.42" cy="641.58" rx="388.44" ry="284.54"/><polygon class="cls-4" points="906.21 701.12 804.18 825.02 985.98 835.56 906.21 701.12"/><path d="M387.12,481.87,392.61,555h-9.43l-3-42.6L354.31,559.7,340,512.43,326.65,555H316.52l23.11-71.55,16.93,54.62Z"/><path d="M449,514.25,444,555h-9.56l.56-4.42Q428.84,556,422.26,556a17.2,17.2,0,0,1-13.2-5.5Q404,545,404,536.24q0-10.08,5.85-16.53A19.71,19.71,0,0,1,425,513.26a17.62,17.62,0,0,1,7.45,1.42,21.06,21.06,0,0,1,6.36,4.94l.65-5.37Zm-11.64,19.22a12.44,12.44,0,0,0-3.12-8.79,10.38,10.38,0,0,0-8.05-3.42,11.43,11.43,0,0,0-9,4.2,15.44,15.44,0,0,0-3.64,10.39,12.76,12.76,0,0,0,3,8.79,9.94,9.94,0,0,0,7.79,3.42,11.89,11.89,0,0,0,9.14-4.29A15.06,15.06,0,0,0,437.37,533.47Zm3.2-34.11a9.46,9.46,0,0,1-2.81,6.75,9.5,9.5,0,0,1-13.51,0,9.61,9.61,0,0,1-2.81-6.84A9.46,9.46,0,0,1,431,489.8a9.53,9.53,0,0,1,9.61,9.56Zm-5.49,0a4.06,4.06,0,0,0-4.12-4.11,4,4,0,0,0-1.6.32,4.21,4.21,0,0,0-1.27.87,4.09,4.09,0,0,0-.87,1.28,3.74,3.74,0,0,0-.32,1.55,4.05,4.05,0,0,0,.32,1.63,4.27,4.27,0,0,0,.89,1.32,4.35,4.35,0,0,0,1.3.89,4,4,0,0,0,1.6.32,4.09,4.09,0,0,0,1.58-.32,4.23,4.23,0,0,0,1.3-.89,4.39,4.39,0,0,0,.86-1.3A3.77,3.77,0,0,0,435.08,499.36Z"/><path d="M499.27,514.25l-7.88,64.11h-9.57l7.88-64.11Zm2.86-19.35a4.86,4.86,0,0,1-1.52,3.55,5.17,5.17,0,0,1-7.36,0,5.22,5.22,0,0,1-1.56-3.77,5.17,5.17,0,0,1,5.11-5.1,5,5,0,0,1,3.72,1.6A5.05,5.05,0,0,1,502.13,494.9Z"/><path d="M517.88,538.06a9.65,9.65,0,0,0,3.12,7.4,11.45,11.45,0,0,0,8,2.9,11.89,11.89,0,0,0,10.3-5l7.14,3.94a22.7,22.7,0,0,1-7.66,7,21.68,21.68,0,0,1-10,2q-9.48,0-15.11-5.59t-5.63-14.93a23,23,0,0,1,6.19-16.36,20.42,20.42,0,0,1,15.54-6.54q9.09,0,14.33,5.89t5.32,15.88c0,.7,0,1.82-.13,3.38Zm22-7.71q-1.51-9.44-10.43-9.43-8.45,0-11,9.43Z"/><path d="M603.8,514.25l-5,41.08q-.48,3.67-1.06,6.41a29.67,29.67,0,0,1-1.32,4.58,17.51,17.51,0,0,1-4.5,6.54q-5.8,5.19-15.06,5.19-9.57,0-15.5-5a13.69,13.69,0,0,1-4.24-5.71,22.39,22.39,0,0,1-1.21-8.27h9.26q.35,5.76,2.94,8.38c1.73,1.74,4.42,2.62,8,2.62q5.9,0,9-3.14t3.9-10l.69-5.58A20.63,20.63,0,0,1,577,556a18.14,18.14,0,0,1-13.72-5.67,20.39,20.39,0,0,1-5.42-14.46,22.14,22.14,0,0,1,6.28-16.14,21.21,21.21,0,0,1,15.8-6.45,17.14,17.14,0,0,1,7.36,1.34,19.82,19.82,0,0,1,6.36,4.72l.61-5.07Zm-11,19.35a12.07,12.07,0,0,0-3.38-8.92,11.85,11.85,0,0,0-8.83-3.42,12.19,12.19,0,0,0-9.43,4.16,14.8,14.8,0,0,0-3.73,10.35,12.59,12.59,0,0,0,3.21,8.91,11.42,11.42,0,0,0,8.57,3.33A12.76,12.76,0,0,0,589,544,14.59,14.59,0,0,0,592.81,533.6Z"/><path d="M654.45,514.25l-.44,3.81a15.42,15.42,0,0,1,11.22-4.85,10.45,10.45,0,0,1,5.93,1.43,11.33,11.33,0,0,1,3.72,5.07q6.06-6.45,13.07-6.45,12.12,0,12.12,11.12c0,.75-.06,1.8-.19,3.16s-.31,3-.55,5L696.56,555H687l2.94-23.59a46,46,0,0,0,.39-4.85q0-5.33-5.37-5.33a9.81,9.81,0,0,0-3.68.63,6.79,6.79,0,0,0-2.66,2,10.8,10.8,0,0,0-1.82,3.42,27.32,27.32,0,0,0-1.1,5L672.93,555h-9.57l3-24.2q.39-3.29.39-4.5,0-5.07-5.5-5.07-8,0-9.3,11L649.12,555h-9.56l5-40.78Z"/><path d="M755,534.25a21.13,21.13,0,0,1-6.5,15.71,21.81,21.81,0,0,1-15.93,6.37q-9.9,0-16.18-6A20.3,20.3,0,0,1,710,535a20.92,20.92,0,0,1,6.53-15.76A22.83,22.83,0,0,1,733,512.91q9.69,0,15.8,6T755,534.25Zm-9.66-.48q0-5.88-3.42-9.3a11.85,11.85,0,0,0-9-3.55,12.6,12.6,0,0,0-9.52,3.94,14,14,0,0,0-3.76,10,13.39,13.39,0,0,0,3.55,9.73,12,12,0,0,0,9.17,3.77,11.81,11.81,0,0,0,9.26-4.11A15,15,0,0,0,745.3,533.77Z"/><path d="M777.81,514.25l-.43,3.77q5.67-4.77,11.47-4.76,6,0,9.57,3.33t3.5,9.09a62.82,62.82,0,0,1-.52,7.44L798.68,555h-9.53l3-24c.11-.9.19-1.69.23-2.38s.07-1.32.07-1.87q0-5.53-6-5.54a9.42,9.42,0,0,0-6.32,2.26,10.76,10.76,0,0,0-3.21,4.32A17.09,17.09,0,0,0,776,531c-.26,1.26-.49,2.71-.69,4.36L772.83,555h-9.56l5-40.78Z"/><path d="M347.16,625.13l-5.41,5.41q-3.81-3.42-7.05-3.42a5.43,5.43,0,0,0-3.66,1.24,3.84,3.84,0,0,0-1.45,3,4,4,0,0,0,1.21,3,23.57,23.57,0,0,0,5.07,3.38q5.49,3.08,7.35,5.63a10.17,10.17,0,0,1,2,6.53,11.75,11.75,0,0,1-4,9.31q-4.11,3.46-10.69,3.46-9,0-14.85-8.09l6.28-4.37q3.85,4.63,8.22,4.63a5.78,5.78,0,0,0,4-1.3,4.25,4.25,0,0,0,1.5-3.38,3.75,3.75,0,0,0-1.26-2.94,18.58,18.58,0,0,0-2.12-1.56q-1.51-1-4.11-2.38a19.83,19.83,0,0,1-6.37-5A10.66,10.66,0,0,1,320,632.1a11.81,11.81,0,0,1,4.07-9.18,15,15,0,0,1,10.34-3.63Q341.32,619.29,347.16,625.13Z"/><path d="M363.44,644.44a9.65,9.65,0,0,0,3.12,7.4,11.43,11.43,0,0,0,8.05,2.9,11.9,11.9,0,0,0,10.3-5l7.14,3.94a22.9,22.9,0,0,1-7.66,7,21.73,21.73,0,0,1-10,2q-9.48,0-15.1-5.58t-5.63-14.93a23,23,0,0,1,6.19-16.37,20.45,20.45,0,0,1,15.54-6.53q9.09,0,14.33,5.88t5.32,15.89c0,.69,0,1.82-.13,3.38Zm21.94-7.71q-1.51-9.43-10.43-9.43-8.43,0-11,9.43Z"/><path d="M417.94,620.63l-.44,3.77q5.67-4.77,11.47-4.77a13.52,13.52,0,0,1,9.57,3.34q3.51,3.33,3.51,9.09a65,65,0,0,1-.52,7.44l-2.73,21.91h-9.52l2.94-24c.11-.89.19-1.68.24-2.38s.06-1.31.06-1.86q0-5.53-6-5.54a9.43,9.43,0,0,0-6.32,2.25,10.83,10.83,0,0,0-3.2,4.33,16.32,16.32,0,0,0-1,3.18q-.39,1.89-.69,4.35L413,661.41h-9.57l5-40.78Z"/><path d="M502.21,588.3l-9,73.11h-9.52l.52-4.38a24.73,24.73,0,0,1-6.15,4.29,16.88,16.88,0,0,1-6.32,1,18.59,18.59,0,0,1-14-5.67Q452.26,651,452.26,642a22.42,22.42,0,0,1,6-16,19.76,19.76,0,0,1,15-6.37,17.12,17.12,0,0,1,7.8,1.61,24.57,24.57,0,0,1,6.88,5.58l4.72-38.52Zm-15.75,50.94a11,11,0,0,0-11.6-11.6,11.83,11.83,0,0,0-9.31,4.2,15.54,15.54,0,0,0-3.68,10.61,12,12,0,0,0,3.16,8.7,11.21,11.21,0,0,0,8.4,3.24,11.69,11.69,0,0,0,9.22-4.41A15.68,15.68,0,0,0,486.46,639.24Z"/><path d="M517.1,644.44a9.65,9.65,0,0,0,3.12,7.4,11.46,11.46,0,0,0,8,2.9,11.89,11.89,0,0,0,10.3-5l7.14,3.94a22.81,22.81,0,0,1-7.66,7,21.68,21.68,0,0,1-9.95,2q-9.48,0-15.11-5.58t-5.63-14.93a23,23,0,0,1,6.19-16.37,20.45,20.45,0,0,1,15.54-6.53q9.09,0,14.33,5.88t5.33,15.89c0,.69,0,1.82-.13,3.38Zm21.95-7.71q-1.51-9.43-10.43-9.43-8.45,0-11,9.43Z"/><path d="M634.45,588.3l-9,73.11h-9.53l.52-4.38a24.53,24.53,0,0,1-6.14,4.29,16.91,16.91,0,0,1-6.32,1,18.61,18.61,0,0,1-14-5.67Q584.51,651,584.5,642a22.42,22.42,0,0,1,6-16,19.74,19.74,0,0,1,15-6.37,17,17,0,0,1,7.79,1.61,24.45,24.45,0,0,1,6.89,5.58l4.71-38.52Zm-15.76,50.94a11,11,0,0,0-11.6-11.6,11.82,11.82,0,0,0-9.3,4.2,15.49,15.49,0,0,0-3.68,10.61,12,12,0,0,0,3.16,8.7,11.18,11.18,0,0,0,8.4,3.24,11.69,11.69,0,0,0,9.22-4.41A15.72,15.72,0,0,0,618.69,639.24Z"/><path d="M649.34,644.44a9.65,9.65,0,0,0,3.12,7.4,11.45,11.45,0,0,0,8,2.9,11.89,11.89,0,0,0,10.3-5l7.14,3.94a22.81,22.81,0,0,1-7.66,7,21.68,21.68,0,0,1-9.95,2q-9.48,0-15.11-5.58t-5.63-14.93a23,23,0,0,1,6.19-16.37,20.45,20.45,0,0,1,15.54-6.53q9.09,0,14.33,5.88T681,641.06c0,.69,0,1.82-.13,3.38Zm21.95-7.71q-1.51-9.43-10.44-9.43-8.43,0-11,9.43Z"/><path d="M703.62,629.5l-3.94,31.91h-9.56l3.94-31.91h-5.42l1.09-8.87h5.41l2.34-18.92H707l-2.34,18.92h8.83l-1.08,8.87Z"/><path d="M336.43,694.67,332,730.47Q337.77,726,343.7,726t9.52,3.16a10.19,10.19,0,0,1,3.68,8.18c0,.81,0,1.73-.13,2.75s-.2,2.19-.34,3.49l-3,24.19h-9.57l3-24.71a26.92,26.92,0,0,0,.26-3.59q0-5.46-6.4-5.46-9.18,0-10.7,12.42l-2.64,21.34h-9.56l9-73.11Z"/><path d="M376.6,750.82a9.68,9.68,0,0,0,3.11,7.4,11.47,11.47,0,0,0,8.06,2.9,11.9,11.9,0,0,0,10.3-5l7.14,3.94a22.9,22.9,0,0,1-7.66,7,21.89,21.89,0,0,1-10,2q-9.48,0-15.11-5.58t-5.62-14.93a23,23,0,0,1,6.19-16.37,20.45,20.45,0,0,1,15.54-6.53q9.09,0,14.33,5.88t5.32,15.89c0,.69,0,1.82-.13,3.38Zm21.94-7.71q-1.52-9.43-10.43-9.44-8.44,0-11,9.44Z"/><path d="M431.14,727l-.44,3.51q4.86-4.59,9.79-4.59a11.58,11.58,0,0,1,7.88,3.16L442.26,737a8.17,8.17,0,0,0-5.28-2.25,6.83,6.83,0,0,0-3.2.72,6.33,6.33,0,0,0-2.4,2.25,13.54,13.54,0,0,0-1.69,4,38.45,38.45,0,0,0-1.06,5.8l-2.51,20.34h-9.57l5-40.77Z"/><path d="M518.66,727l-28,46.06L476.11,727h10l7,26.06L507.71,727Z"/><path d="M535.54,727l-5,40.77H521L526,727Zm3-19.39a5.17,5.17,0,0,1-5.15,5.1,5,5,0,0,1-3.68-1.55,5.43,5.43,0,0,1-1.52-3.77,5.12,5.12,0,0,1,5.07-5.11,5.47,5.47,0,0,1,5.28,5.33Z"/><path d="M593.93,694.67l-9,73.11h-9.52l.52-4.37a24.73,24.73,0,0,1-6.15,4.29,16.88,16.88,0,0,1-6.32,1,18.59,18.59,0,0,1-14-5.67Q544,757.36,544,748.35q0-9.61,6-16A19.69,19.69,0,0,1,565,726a17.11,17.11,0,0,1,7.79,1.61,24.57,24.57,0,0,1,6.88,5.58l4.72-38.53Zm-15.75,51a11,11,0,0,0-11.6-11.6,11.84,11.84,0,0,0-9.31,4.2,15.52,15.52,0,0,0-3.68,10.61,12.08,12.08,0,0,0,3.16,8.7,11.21,11.21,0,0,0,8.4,3.24,11.67,11.67,0,0,0,9.22-4.41A15.68,15.68,0,0,0,578.18,745.62Z"/><path d="M608.82,750.82a9.65,9.65,0,0,0,3.12,7.4,11.46,11.46,0,0,0,8,2.9q6.72,0,10.3-5l7.15,3.94a22.92,22.92,0,0,1-7.67,7,21.81,21.81,0,0,1-9.95,2q-9.48,0-15.11-5.58t-5.62-14.93a23,23,0,0,1,6.19-16.37,20.41,20.41,0,0,1,15.53-6.53q9.11,0,14.33,5.88t5.33,15.89c0,.69-.05,1.82-.13,3.38Zm21.95-7.71q-1.51-9.43-10.43-9.44-8.45,0-11,9.44Z"/><path d="M663.36,727l-.43,3.51q4.85-4.59,9.78-4.59a11.54,11.54,0,0,1,7.88,3.16l-6.1,7.87a8.17,8.17,0,0,0-5.28-2.25,6.83,6.83,0,0,0-3.2.72,6.42,6.42,0,0,0-2.41,2.25,13.82,13.82,0,0,0-1.69,4,39.75,39.75,0,0,0-1.06,5.8l-2.51,20.34h-9.56l5-40.77Z"/><path d="M691.93,750.82a9.65,9.65,0,0,0,3.12,7.4,11.46,11.46,0,0,0,8.05,2.9,11.89,11.89,0,0,0,10.3-5l7.14,3.94a22.81,22.81,0,0,1-7.66,7,21.81,21.81,0,0,1-10,2q-9.48,0-15.11-5.58t-5.63-14.93a23,23,0,0,1,6.19-16.37,20.45,20.45,0,0,1,15.54-6.53q9.09,0,14.33,5.88t5.33,15.89c0,.69-.05,1.82-.13,3.38Zm22-7.71q-1.51-9.43-10.43-9.44-8.44,0-11,9.44Z"/><path d="M757.55,737.61h9q-1.47,14.73-14.89,14.72a15.36,15.36,0,0,1-10.87-4,13.2,13.2,0,0,1-4.33-10,14.27,14.27,0,0,1,3.51-9.67q3.51-4.05,10.91-6.91,2.76-1.08,4.59-2A16.09,16.09,0,0,0,758.2,718a5.09,5.09,0,0,0,1.82-4.07,6,6,0,0,0-1.9-4.51,6.89,6.89,0,0,0-10.07.7q-1.87,2.55-1.88,7.53H737.6q0-8.65,4.11-13.2t12-4.55q7,0,11.21,3.9A13.08,13.08,0,0,1,769.24,714a12.62,12.62,0,0,1-2.77,8.44q-2.78,3.3-9.26,5.76t-8.92,4.72a7.4,7.4,0,0,0-2.47,5.63,5.7,5.7,0,0,0,1.65,4.26,5.94,5.94,0,0,0,4.37,1.62Q757.08,744.45,757.55,737.61Zm-4.28,25.46a5.45,5.45,0,0,1-1.65,4,5.4,5.4,0,0,1-4,1.65,6.06,6.06,0,0,1-4.28-1.65,5.41,5.41,0,0,1-1.69-4.11,6,6,0,0,1,.45-2.34,5.88,5.88,0,0,1,1.24-1.86,5.71,5.71,0,0,1,1.84-1.23,5.64,5.64,0,0,1,2.31-.46,5.38,5.38,0,0,1,4.07,1.78A5.86,5.86,0,0,1,753.27,763.07Z"/></g><g id="Layer_3" data-name="Layer 3"><rect class="cls-5" x="1291.49" y="280.3" width="2.51" height="42.1" rx="1.25"/><rect class="cls-5" x="1024.74" y="190.79" width="266.75" height="537.5" rx="43.73"/><rect class="cls-6" x="1031.92" y="196.91" width="252.76" height="524.67" rx="36.43"/><rect class="cls-7" x="1045.87" y="256.88" width="224.87" height="393.53"/><polygon class="cls-8" points="1046.42 257.67 1269.95 610.4 1269.95 257.67 1046.42 257.67"/><rect class="cls-9" x="1138.85" y="223.82" width="41.61" height="5.68" rx="2.83"/><circle class="cls-9" cx="1159.66" cy="212.75" r="3.26"/><circle class="cls-9" cx="1114.39" cy="226.65" r="5.2"/><circle class="cls-5" cx="1156.4" cy="685.74" r="19.82"/><circle class="cls-10" cx="1156.4" cy="685.74" r="16.73"/><path class="cls-5" d="M1023.49,259.25h0a1.26,1.26,0,0,1,1.25,1.26V279a1.26,1.26,0,0,1-1.25,1.26h0a1.26,1.26,0,0,1-1.26-1.26V260.51a1.26,1.26,0,0,1,1.26-1.26Z"/><path class="cls-5" d="M1023.49,308.53h0a1.25,1.25,0,0,1,1.25,1.26v33a1.25,1.25,0,0,1-1.25,1.26h0a1.26,1.26,0,0,1-1.26-1.26v-33A1.26,1.26,0,0,1,1023.49,308.53Z"/><path class="cls-5" d="M1023.49,355.33h0a1.27,1.27,0,0,1,1.25,1.27v33a1.25,1.25,0,0,1-1.25,1.26h0a1.25,1.25,0,0,1-1.26-1.26v-33a1.27,1.27,0,0,1,1.26-1.27Z"/><rect class="cls-11" x="1050.11" y="311.61" width="216.39" height="276.83"/><rect class="cls-12" x="1070.49" y="331.41" width="176.55" height="187.08"/><polygon class="cls-13" points="1070.49 331.42 1247.04 476.19 1247.04 331.42 1070.49 331.42"/><g class="cls-14"><g class="cls-14"><path d="M1114.78,549.81v4.41h-4.07l-.92,7h-5l.91-7h-3.29l-.91,7h-5l1-7h-3.53v-4.41h4.07l.41-3.26h-3.46v-4.37h4l.84-6.51h5l-.85,6.51h3.29l.88-6.51h5l-.85,6.51h3.46v4.37h-4l-.44,3.26Zm-8.14-3.26h-3.29l-.44,3.26h3.29Z"/><path d="M1133.9,549.47a5.69,5.69,0,0,0-3.22-1.09,4.43,4.43,0,0,0-1.64.31,4,4,0,0,0-1.34.86,3.91,3.91,0,0,0-.9,1.33,4.27,4.27,0,0,0-.32,1.71,4.19,4.19,0,0,0,.32,1.68,3.94,3.94,0,0,0,2.22,2.19,4.57,4.57,0,0,0,1.66.3,5,5,0,0,0,3.22-1.19v5.23a10.92,10.92,0,0,1-4.3,1,10.13,10.13,0,0,1-3.61-.64,9.08,9.08,0,0,1-5.11-4.73,8.8,8.8,0,0,1-.78-3.75,9.31,9.31,0,0,1,.75-3.78,8.88,8.88,0,0,1,2-3A9.23,9.23,0,0,1,1126,544a10.49,10.49,0,0,1,3.82-.69,9,9,0,0,1,4.13,1Z"/><path d="M1145.91,543.84v9.8q0,3.23,3.12,3.22t3.12-3.22v-9.8h6.14v11a6.23,6.23,0,0,1-2.33,5.29c-1.54,1.17-3.86,1.76-6.93,1.76s-5.39-.59-6.94-1.76a6.22,6.22,0,0,1-2.32-5.29v-11Z"/></g><g class="cls-14"><path d="M1171.17,549v12.28H1165V549h-2v-5.12h2v-5.22h6.13v5.22h3.5V549Z"/></g><g class="cls-14"><path d="M1185,553.57c0,2.65,1.25,4,3.73,4a3.32,3.32,0,0,0,3-1.63h5.94q-1.8,6-9,6a11.85,11.85,0,0,1-4-.66,9,9,0,0,1-3.13-1.88,8.32,8.32,0,0,1-2-2.92,9.61,9.61,0,0,1-.71-3.8,10.76,10.76,0,0,1,.67-3.91,8.24,8.24,0,0,1,1.94-3,8.58,8.58,0,0,1,3-1.88,11.53,11.53,0,0,1,4-.66,11.28,11.28,0,0,1,4,.66,8,8,0,0,1,3,1.91,8.29,8.29,0,0,1,1.87,3.07,12.19,12.19,0,0,1,.64,4.09v.64Zm7.19-3.56a3.68,3.68,0,0,0-1.25-2.07,3.89,3.89,0,0,0-4.63,0,3.4,3.4,0,0,0-1.14,2.1Z"/></g></g><path class="cls-15" d="M1221.37,428.13c-.29,0-.45,2.48-1.61,5.65-1,2.79-3,3.21-3.09,4.9-.07,2.06,3.33,3.67,7.12,6.7,4.5,3.59,5.83,3.49,6.49,5.47.76,2.31-.57,3.93.81,6.29.58,1,1.74,2.28,2.43,2,1.18-.45.91-5.36-.61-9.33a25.9,25.9,0,0,0-4.25-6.9c-2.07-2.61-2.44-2.37-3.66-4.06C1221.47,434,1221.8,428.1,1221.37,428.13Z"/><path class="cls-16" d="M1176.34,431.16c1.9-.73,4.71-1.2,5.82-.88,6.09,1.63,11.14,12,8.72,28,1.48-1.36,3-1.27,4.46-2.62.07,10.28.14,22,.2,32.27a5.33,5.33,0,0,0,.81,3.65,5.09,5.09,0,0,0,1.83,1.62l-7.5.61c-.6-.58-2.71-1.38-3.27-2.43a11.46,11.46,0,0,1-1-6.9,205.81,205.81,0,0,0,1.23-35.29c-.14-3.4-.38-7-2.63-10.55S1178.41,432.22,1176.34,431.16Z"/><path class="cls-17" d="M1076.37,490.92c-2.07.6-2.55,1.47-2.7,1.9-.66,1.86,1.77,4.23,2.43,4.87l44.89-.27c1.3-.41,3.18-1,5.41-1.89,3.94-1.52,6.27-2.42,8.65-4.06,1.24-.84,2.08-1.61,6-6,4.15-4.64,6.23-7,7.31-8.38,6.76-8.91,4.87-12.08,8.92-14.33,5.27-2.94,13.88-.58,17.85,4.59.73,1,1.77,2.61,2.7,7.58a57.91,57.91,0,0,1,.27,19.48l3.79,3.51H1214a5.13,5.13,0,0,0,0-4.32c-.5-.89-1.48-1.66-4.06-2.17-3.86-.75-6.22.15-12.43,1.09s-7.39.54-8.12,0c-2.21-1.68-2-5.39-1.89-8.12.44-9,.16-18,.81-27,.77-10.63.71-13.85-1.08-17-3.1-5.53-6.78-7.57-6.78-7.57-1.33-.73-2.77-1.25-2.69-1.62.12-.53,3.27-.73,5.68.27,4.48,1.84,6,7.58,6.9,11.22a34.4,34.4,0,0,1,0,16.63,80.93,80.93,0,0,0,22.44-16.49l9.87,7a7.89,7.89,0,0,1,.68,2.57c.17,2.09-.62,3.18,0,4.33a3,3,0,0,0,2,1.32c.88-2.51,1.57-6,0-8.92a22.15,22.15,0,0,0-2.71-3.25c-4.21-4.73-5.64-6.07-5.27-7.57.16-.65.52-.71,1.36-1.77a12.27,12.27,0,0,0,2.43-5.4V397.5l1.08-1.49,15.41-.14a4.91,4.91,0,0,0,2-6.48c-.93-1.69-2.43-1.33-4.6-3.25-1.37-1.21-1.43-1.94-2.56-3.38a15,15,0,0,0-6.49-4.6l-9.2.27L1205,365a13,13,0,0,0-.27,5.95c1.39,7.08,8.5,10.18,9.33,10.55a19.78,19.78,0,0,0-3.38,3.92c-2.78,4.27-2.1,7-4.06,13.25-1.15,3.7-2.26,7.24-5.27,10.55a22.44,22.44,0,0,1-8.11,5.41c-7.69,3.1-11.18.27-18.93,1.62-9.52,1.66-15.82,8-17.85,10-5.12,5.13-7.18,10.36-10.55,18.93-2.21,5.68-3.89,11.47-6.49,20.56-1.54,5.37-2.48,9.07-5.27,13.79-3.62,6.11-7,8.34-8,8.92a21.85,21.85,0,0,1-9.74,3C1101.93,492.92,1083.71,488.84,1076.37,490.92Z"/><path class="cls-15" d="M1218.45,362.94a6.71,6.71,0,0,1,4.87,7.31v7.91h-4.87Z"/><rect class="cls-18" x="1457.39" y="215.5" width="240.3" height="488.65" rx="37.4"/><rect class="cls-19" x="1461.05" y="218.4" width="232.79" height="483.22" rx="33.55"/><rect class="cls-20" x="1473.89" y="273.63" width="207.11" height="362.44"/><polygon class="cls-8" points="1474.39 274.36 1680.27 599.23 1680.27 274.36 1474.39 274.36"/><rect class="cls-9" x="1559.53" y="243.18" width="38.32" height="5.23" rx="2.61"/><circle class="cls-9" cx="1578.69" cy="232.98" r="3.01"/><circle class="cls-9" cx="1537.01" cy="245.8" r="4.79"/><circle class="cls-18" cx="1575.7" cy="668.62" r="18.25"/><circle class="cls-19" cx="1575.7" cy="668.62" r="15.4"/><path class="cls-18" d="M1456.64,275.82h0a1.16,1.16,0,0,1,1.16,1.16h0v17.07a1.17,1.17,0,0,1-1.16,1.16h0a1.16,1.16,0,0,1-1.16-1.16h0V277a1.16,1.16,0,0,1,1.15-1.16Z"/><path class="cls-18" d="M1456.64,322.32h0a1.16,1.16,0,0,1,1.16,1.16V353.9a1.16,1.16,0,0,1-1.16,1.16h0a1.16,1.16,0,0,1-1.16-1.16h0V323.48a1.16,1.16,0,0,1,1.16-1.16Z"/><path class="cls-18" d="M1456.64,364.31h0a1.16,1.16,0,0,1,1.16,1.16v30.42a1.16,1.16,0,0,1-1.16,1.16h0a1.16,1.16,0,0,1-1.16-1.15h0V365.47a1.16,1.16,0,0,1,1.16-1.16Z"/><path class="cls-18" d="M1698.84,318.46h0a1.16,1.16,0,0,1,1.16,1.16v36.46a1.15,1.15,0,0,1-1.16,1.15h0a1.15,1.15,0,0,1-1.15-1.15V319.62A1.16,1.16,0,0,1,1698.84,318.46Z"/><rect class="cls-11" x="1476.26" y="324.7" width="202.33" height="258.85"/><rect class="cls-21" x="1495.32" y="343.22" width="165.08" height="174.92"/><polygon class="cls-22" points="1495.32 343.22 1660.4 478.59 1660.4 343.22 1495.32 343.22"/><g class="cls-14"><path d="M1536.73,547.43v4.12h-3.8l-.86,6.57h-4.73l.86-6.57h-3.07l-.86,6.57h-4.69l.88-6.57h-3.29v-4.12h3.8l.38-3h-3.23V540.3h3.77l.79-6.09h4.66l-.79,6.09h3.08l.82-6.09h4.7l-.8,6.09h3.24v4.09h-3.74l-.42,3Zm-7.61-3H1526l-.41,3h3.08Z"/><path d="M1542.34,541.85h5.74v2a7.44,7.44,0,0,1,5.27-2.25,6.51,6.51,0,0,0,11,0,7,7,0,0,1,2.16.33,4.35,4.35,0,0,1,1.74,1.05,5,5,0,0,1,1.16,1.85,8,8,0,0,1,.43,2.76v10.56h-5.74v-8a9.34,9.34,0,0,0-.18-2,3.18,3.18,0,0,0-.5-1.24,1.64,1.64,0,0,0-.78-.6,2.71,2.71,0,0,0-1-.16q-2.76,0-2.76,4v8h-5.74v-8a10.57,10.57,0,0,0-.16-2.05,3.58,3.58,0,0,0-.46-1.28,1.5,1.5,0,0,0-.77-.65,3.17,3.17,0,0,0-1.12-.18,3.39,3.39,0,0,0-1,.16,1.78,1.78,0,0,0-.84.62,3.49,3.49,0,0,0-.57,1.27,8.64,8.64,0,0,0-.21,2.11v8h-5.74Z"/><path d="M1576,531.8h5.74v12.11a6.26,6.26,0,0,1,2.38-1.92,7.56,7.56,0,0,1,2.82-.49,6,6,0,0,1,4.64,1.7,6.47,6.47,0,0,1,1.57,4.58v10.34h-5.74v-8.21a8.35,8.35,0,0,0-.19-2,2.27,2.27,0,0,0-.63-1.18,2.72,2.72,0,0,0-1.84-.66,2.82,2.82,0,0,0-2.23.87,3.61,3.61,0,0,0-.78,2.49v8.69H1576Z"/><path d="M1599.29,541.85H1605v2a7.44,7.44,0,0,1,5.27-2.25,6.51,6.51,0,0,0,11,0,7,7,0,0,1,2.16.33,4.35,4.35,0,0,1,1.74,1.05,5,5,0,0,1,1.16,1.85,8,8,0,0,1,.43,2.76v10.56h-5.74v-8a9.34,9.34,0,0,0-.18-2,3.18,3.18,0,0,0-.5-1.24,1.64,1.64,0,0,0-.78-.6,2.71,2.71,0,0,0-.95-.16q-2.76,0-2.76,4v8h-5.74v-8a10.57,10.57,0,0,0-.16-2.05,3.58,3.58,0,0,0-.46-1.28,1.49,1.49,0,0,0-.78-.65,3.07,3.07,0,0,0-1.11-.18,3.34,3.34,0,0,0-1,.16,1.78,1.78,0,0,0-.84.62,3.49,3.49,0,0,0-.57,1.27,8.64,8.64,0,0,0-.21,2.11v8h-5.74Z"/></g><path class="cls-23" d="M1603.71,432.21c.08,0,.34.44,1.81,4.26.86,2.22,1.16,3.07,2.13,5.65,1.15,3.05,1.21,3.12,1.61,4.27.69,2,1.27,4,1.38,4.36.75,2.64,1,3.94,1.81,4.9.41.51.76,1.09,1.17,1.6a2.22,2.22,0,0,1,.53.85,2.12,2.12,0,0,1,0,1.17,21,21,0,0,0-.21,3.73c-.07,1,.12,1.48,1.39,5.11,2.42,7,2.06,6.11,2.34,6.83,1,2.63,1.46,3.25,1.6,4.79a19.37,19.37,0,0,1,0,3.73c-.17,1.37-.45,2-.11,3a4.47,4.47,0,0,0,1.39,1.82c1.2,1.13,1.79,1.05,3.09,2,1.48,1.13,1.13,1.53,2.34,2.35,1,.69,3.3,1.76,4.48.75a3,3,0,0,0,.53-3.09c-1-2.74-5.22-2.13-6.29-5a23.47,23.47,0,0,0-.75-2.45,22.89,22.89,0,0,1-1-2.24,6.63,6.63,0,0,1-.11-2.77c.29-2.11.8-9-.64-14.38a39.76,39.76,0,0,0-1.17-3.94c-.67-1.68-1.17-2.31-1.17-3.63,0-.92.24-1.25,0-2-.3-1-.89-1.13-1.28-2a4,4,0,0,1-.1-2.45c.55-3.06.23-9.16,0-11.4-.33-3.05-.81-1.83-2.77-9.8a69.68,69.68,0,0,1-1.38-7.05,35.21,35.21,0,0,1-.43-6.07,16.3,16.3,0,0,1,.54-4.37,28.12,28.12,0,0,1,1.5-3.52c.63-1.43,1.22-2.8,1.81-4.36s.92-2.61,1.18-3.39c2.16-6.69,3.24-6.64,3.3-8.85.11-4.22-3.71-9.32-7.46-10.23a24.94,24.94,0,0,1-4.9-1.7,5.07,5.07,0,0,1-1.91-1.39,4.61,4.61,0,0,1-.76-1.28c-.64-1.7.27-2.64-.21-3.3-1-1.36-6.62.37-7.36,2.66a10.52,10.52,0,0,0-.33,1.37,15,15,0,0,1-.21,2.13c-.21.55-.58.85-1.28,1.38-1.37,1.05-1.92.83-4,2a5.85,5.85,0,0,1-1.39.64c-.83.24-1.15.09-1.6.32s-.75.62-1.06,1.92a11.8,11.8,0,0,0-.22,4.47c.2,1.25.36,1.08,1,3.52.08.3.42,1.68.76,3.52.15.82.37,2.09.53,3.62.07.64.13,1.42.21,5.44s0,3.76.11,4.58a46.39,46.39,0,0,1,.54,4.69,30.93,30.93,0,0,1-.32,3.52,50.33,50.33,0,0,0-.21,5.76c0,.69,0,2.94.42,7.25.65,6.86,1.19,12.62,2.77,15.44a8.34,8.34,0,0,1,1,2.45,8.91,8.91,0,0,1,.11,3.09,37.12,37.12,0,0,0,.1,7.46,35.43,35.43,0,0,0,1.28,6.5c1.45,5.6,1.82,6.82,1.82,6.82a18.41,18.41,0,0,1,.53,2.66,6.18,6.18,0,0,1,0,2.56,5.73,5.73,0,0,1-1.92,2.46c-.78.75-1,.75-3.09,2.44l-2.13,1.81c-1,.86-1.51,1.3-1.6,1.93a2.25,2.25,0,0,0,.43,1.6,2.58,2.58,0,0,0,1.59.95,4.29,4.29,0,0,0,2.67-.21c1.43-.53,1.8-1.27,3.73-3.09,2.61-2.47,3.4-2.5,3.94-3.94.28-.76.21-1.13.21-3.2,0-3.1.17-2.41.22-6,0-4.56-.22-4.85,0-7.16.31-3.29,1.18-3.18,1-5-.31-2.47-1.73-3.11-1.82-5.86a22.82,22.82,0,0,1,.43-3.1c.24-1.78.2-2,.53-6s.44-4.32.43-5.86a33,33,0,0,0-.21-3.73C1604.14,433.89,1603.57,432.26,1603.71,432.21Z"/><path class="cls-24" d="M1616,419.85a5.69,5.69,0,0,1-2.67.53c-2.73.22-3.49-.43-4.47.21a2.92,2.92,0,0,0-1.18,3.2c.47.94,1.93,1,4.9,1.18,2,.12,3,.17,3.83-.32,1.13-.65,1.47-1.68,2.14-3.1.93-2,.61-.69,3.62-5.75,2.11-3.54,1.33-2.6,4-7.46a14.12,14.12,0,0,0,1.6-4.14,7,7,0,0,0,.21-2.14c-.06-.93-.29-1.32-1.27-3.83l-1.07-2.77c-.31-.82-.66-1.63-1-2.46a11.54,11.54,0,0,0-1-2.23,7.64,7.64,0,0,1-.53-.86c-.4-.9-.14-1.47-.22-2.34a5.22,5.22,0,0,0-1.38-2.77,8.29,8.29,0,0,0-2.13-1.92,6,6,0,0,0-2.14-1,5.39,5.39,0,0,0-1.5-.1c-.75.07-3.79,2.3-3.84,5.75,0,1.56,1,1.92,3.62,6,.14.22.71,1.13,1.82,3,.81,1.36,1.08,1.94,1.7,2.88.72,1.1,1.36,1.4,1.81,2.45a5.25,5.25,0,0,1,.43,1.7,6.72,6.72,0,0,1-.43,2.35c-.4,1.31-.69,1.47-1.06,2.66a15.59,15.59,0,0,0-.43,2,24.24,24.24,0,0,1-1.38,4.05C1616.75,418.36,1617,419.17,1616,419.85Z"/><path class="cls-25" d="M1594.87,409.51c0-1.85.5-1.91.64-4.8.08-1.68-.09-6.32,0-8.1.18-3.93-1.21-7.1-1.24-10s-.21-4.67-.75-4.38a5.58,5.58,0,0,1-1.38.64c-.83.24-1.16.09-1.61.32s-.75.63-1.06,1.92a11.86,11.86,0,0,0-.21,4.48c.2,1.25.35,1.08,1,3.52.07.29.41,1.67.75,3.51.15.82.38,2.09.54,3.63.06.63.13,1.41.21,5.43s0,3.77.11,4.58c.21,2.33.58,4.35.59,6.25C1592.42,417.86,1594.85,411.39,1594.87,409.51Z"/><path class="cls-26" d="M1601.26,394.48c0,.64-.66,1.15-1,1.39a4.32,4.32,0,0,1-2.24.75,7,7,0,0,1-2.66,0,3,3,0,0,1-1.81-.75,3.45,3.45,0,0,1-.76-1.6c-.21-.73-.31-1.09-.21-1.39.35-1,2.8-1.32,4.69-.95C1599,392.25,1601.28,393.26,1601.26,394.48Z"/><path class="cls-27" d="M1614.78,393.84c0,.76-.79,1.32-1.5,1.82a7.1,7.1,0,0,1-2.56,1.06,7.22,7.22,0,0,1-3.2.22,7.12,7.12,0,0,1-2-.76,5.83,5.83,0,0,1-1.5-1.06c-.33-.34-.51-.5-.53-.64-.19-1,2.57-2.67,5.43-3.1a6.52,6.52,0,0,1,4.37.64C1613.73,392.29,1614.8,392.94,1614.78,393.84Z"/><path class="cls-28" d="M1606.5,372.85c-.48.51-.42,1-.64,1.5s-.75.8-1.81,1.39a9.23,9.23,0,0,1-2.35,1,4,4,0,0,1-2.56.11,2.32,2.32,0,0,1-1-.64,3.26,3.26,0,0,1-.53-1.71,20.18,20.18,0,0,0-.75-2.24c-.19-.78-.06-1,.21-3.83.25-2.5.19-2.77.54-3.31a4.46,4.46,0,0,1,2.55-1.7,5.68,5.68,0,0,1,4.59.32,5.18,5.18,0,0,1,1.92,2c.79,1.54.67,3.42.85,3.42s0-.18.21-.32a.76.76,0,0,1,.75-.11.91.91,0,0,1,.43.32,2.41,2.41,0,0,1-.85,3,4.7,4.7,0,0,0-1.07.43A2.6,2.6,0,0,0,1606.5,372.85Z"/><path class="cls-29" d="M1597.32,367.31l-.11.32c-.16.49-.16.63-.21.64s-.35-.6-.43-1.18a3.09,3.09,0,0,1,0-1c.07-.46.19-.47.21-.85s-.12-.49-.1-1a1.81,1.81,0,0,1,.21-.85c.2-.38.38-.31.76-.75s.33-.65.64-.86a1.66,1.66,0,0,1,1-.21c1,0,1.47.28,1.81,0s.09-.39.32-.64c.41-.43,1.06,0,2.35-.11.89-.08,1.31-.37,1.6-.1s.1.45.43.85a1.18,1.18,0,0,0,.53.43c.48.16.88-.19,1.06,0s0,.24.11.42.49.13.64.32-.3.87-.11,1.07.35-.05.64.1a.82.82,0,0,1,.32.32c.38.58.71,2,.11,2.46-.18.13-.28.05-.43.21a1.34,1.34,0,0,0-.11,1.38c.08.14.15.24.11.32s-.37,0-.64.11-.26.31-.42.85c-.33,1.07-.38,1.17-.43,1.17s-.22-.24-.43-1.5a8.38,8.38,0,0,0-.53-1.51,2.92,2.92,0,0,0-.32-.75c-.24-.38-.4-.35-.53-.64s0-.47-.11-1a1.8,1.8,0,0,0-.42-.85,1.65,1.65,0,0,0-1.07-.54c-.38,0-.38.14-1,.22-.42.05-.43,0-1.07,0s-.57.08-1.17.1-.65-.05-1.06,0a2.42,2.42,0,0,0-1.28.43,2.24,2.24,0,0,0-.76,1.17A2.85,2.85,0,0,0,1597.32,367.31Z"/><path class="cls-30" d="M1602.22,427a4.16,4.16,0,0,0-1.51,1.28,2.71,2.71,0,0,0-.64,1.7,1.89,1.89,0,0,0,1,1.71c.89.37,1.86-.5,2.13-.76.72-.63.71-1.5,1-1.5s.16.75.76,1.5a1.81,1.81,0,0,0,1.06.76,1.47,1.47,0,0,0,1.39-.43c.35-.46.13-1.1-.22-2.13a4.43,4.43,0,0,0-1.06-1.81,3.12,3.12,0,0,0-.53-.43A3.82,3.82,0,0,0,1602.22,427Z"/><rect class="cls-31" x="1602.65" y="428.48" width="2.88" height="5.22" rx="0.71"/><rect class="cls-32" x="1602.65" y="430.72" width="2.88" height="3.09" rx="0.71"/><rect class="cls-33" x="1602.65" y="431.04" width="2.88" height="2.77" rx="0.71"/><rect class="cls-34" x="1603.92" y="433.06" width="0.32" height="0.75" rx="0.09"/><path class="cls-35" d="M1602.5,414a.88.88,0,0,0-.2.78c.08.21.3.48.51.47s.26-.19.41-.47a1.28,1.28,0,0,0,.21-.71s-.06-.5-.31-.54S1602.57,413.91,1602.5,414Z"/><path class="cls-36" d="M1595.62,394.86c.07.16.21.21.4.27s.49.16.67,0,.22-.3.17-.4-.22,0-.56-.07-.58-.24-.68-.13A.42.42,0,0,0,1595.62,394.86Z"/><path class="cls-37" d="M1608.56,395.14c0,.06.1.15.61.14s.73,0,.82-.21a.47.47,0,0,0,0-.43c-.1-.15-.28,0-.72.07s-.54-.09-.65.07A.39.39,0,0,0,1608.56,395.14Z"/><path class="cls-38" d="M1519.76,486.28a19.18,19.18,0,0,1-1.58-3.63,17.86,17.86,0,0,1-.68-4.3,23.9,23.9,0,0,1,.23-5.21,25.06,25.06,0,0,1,1.59-5.43c.6-1.61.77-1.79,2.94-6.57,1.7-3.76,1.38-3.16,2-4.52a47.24,47.24,0,0,0,2.26-5,17.64,17.64,0,0,0,.91-3.17,13.87,13.87,0,0,0,.22-3,13.55,13.55,0,0,0-.68-3.62c-.37-1.23-.63-1.7-2.94-6.34a27.48,27.48,0,0,0-1.81-3.39c-.6-.92-.76-1-2.26-2.95-1.94-2.49-2.4-3.28-2.72-3.17s-.26,1.22,0,3.17c.35,2.67.52,4,1.13,7,.52,2.59.45,3.56.9,7.48.29,2.44.53,4.32.68,5.21.29,1.73.43,2.6.68,3.62a10.75,10.75,0,0,1,.45,2,8,8,0,0,1-.67,3.39c-.38,1.09-.7,2.31-1.36,4.75-.26,1-.55,2.23-1.13,4.76-.47,2-.7,3-.91,4.08a23.53,23.53,0,0,0-.68,3.38c0,.94.05,2.2-.68,2.72-.17.12-.43.24-.45.46s.53.42.68.9-.13.59-.23,1.13a3.66,3.66,0,0,0,.23,1.59c.16.6,0,.27.45,3.85.11.9.17,1.35.23,1.81a15.66,15.66,0,0,1,.23,1.81c0,1-.64,2.49-1.6,2.72-1.31.33-2.81-1.84-3.38-2.94a9.09,9.09,0,0,1-.91-3.39c-.23-1.94.13-2.29,0-5-.09-1.79-.24-1.66-.22-2.94a40.5,40.5,0,0,1,.45-4.08c.06-.62.11-1.47.22-3.17.16-2.38.13-2.47.23-3.39.08-.75.12-.87.45-3.17.42-2.85.33-2.45.46-3.17.37-2.07.58-2.42.9-4.51.15-1,.2-1.58.23-2q.06-1.25,0-2.49a26.45,26.45,0,0,0-.23-3c-.2-1.38-.35-1.39-.68-3.17-.1-.53-.14-.81-.45-3.17-.45-3.39-.44-3.29-.45-3.39-.36-2.14-.57-2.15-1.13-5-.38-1.88-.31-1.94-.69-3.62-.28-1.25-.41-1.61-.67-2.95-.23-1.13-.34-1.88-.46-2.72a15.9,15.9,0,0,1-.23-2.49,7.94,7.94,0,0,1,.23-1.81,7.19,7.19,0,0,1,.68-1.59c.79-1.33,2.21-2.23,3.85-3.39.44-.32,2-1.51,5-3.85,1.16-.9,1.29-1,2-1.58,1.85-1.42,2.07-1.53,3.62-2.72,1.2-.92,1.07-.85,3.17-2.49,1.37-1.06,1.4-1.08,2-1.6.88-.69,1.83-1.46,3-2.48s1.63-1.6,2.49-2.5a34.08,34.08,0,0,0,3.17-3.62,15.6,15.6,0,0,0,1.81-2.94,18.52,18.52,0,0,0,1.13-3.62c.36-1.44.52-2.33.91-4.31.81-4.16.72-3.43.9-4.52.63-3.76.94-5.65.68-7-.06-.33-.26-1.24,0-1.36s.73.46,1.13.91a3.74,3.74,0,0,1,.68.9,4.44,4.44,0,0,1,.22,1.82c0,.56,0,.59,0,1.13a3.12,3.12,0,0,0,.23,1.35c.17.31.31.32.46.68s.08.47.22.68.4.25.68.46.48.65.68,1.35a6.34,6.34,0,0,1,.23,1.36,10.55,10.55,0,0,1,0,1.59,8.87,8.87,0,0,1-.46,2c-.17.52-.18.42-.68,1.59a17.56,17.56,0,0,0-.9,2.49c-.17.66,0,.91-.23,1.13s-.63.14-1.58,0c-1.57-.24-1.61-.15-1.82-.23a4,4,0,0,0-.9-.23.86.86,0,0,0-.45,0c-.29.15-.29.7-.23,1.59.08,1.1.21,1.93.23,2a13.41,13.41,0,0,0,.45,2.5,4.84,4.84,0,0,0,1.36,1.81,4,4,0,0,0,1.81.9,4.43,4.43,0,0,0,1.36,0c1.13-.09,1.72-.13,2.49-.22,1-.12,2.06-.16,4.07-.23a14.21,14.21,0,0,1,2.26,0,5.85,5.85,0,0,1,2.95,1.13,6,6,0,0,1,1.81,2.72,11.8,11.8,0,0,1,.68,3.17c.24,1.88.6,3.76.9,5.64.19,1.21.44,2.54.91,5.21.38,2.19.61,3.39.9,5,.69,3.63.92,4.41,1.6,7.9.53,2.76.49,2.81.9,5,.38,1.88,1.06,5.57,2.26,10.19q1.23,4.93,2.94,9.74c.42,1.15.87,2.4,1.59,4.07,1.43,3.35,2,4,4.08,8.38,1.3,2.8,1,2.54,2,4.52a22.92,22.92,0,0,1,2,4.52,29.9,29.9,0,0,1,.68,3.39,19.7,19.7,0,0,1,.23,2c0,.68,0,1,0,2.72,0,.87.12,1,0,1.13-.54.68-3.2.12-4.52-1.59-.16-.2-.45-.64-.91-3.39-.23-1.36-.27-2.63-.45-3.39a13.44,13.44,0,0,0-1.13-2.94,21.39,21.39,0,0,0-1.13-2.05c-.54-.86-1.13-2-2.72-5-1.2-2.26-1.13-2-1.59-2.95s-1.34-2.73-1.81-3.62a20.62,20.62,0,0,0-1.81-2.71,64,64,0,0,1-3.63-6.35c-.48-.89-.86-1.44-1.35-2.48,0,0-.38-.76-.69-1.6a32.47,32.47,0,0,1-1.59-5.65c-.19-1.08-.08-.9-.45-3.85-.06-.53-.26-2.19-.45-3.38-.42-2.77-.76-2.8-1.13-5.22-.3-1.93-.28-3.16-.45-3.16s-.23,1-.69,2.94c-.37,1.65-.49,1.65-.9,3.39-.26,1.13-.2,1-.68,3.39-.38,1.86-.57,2.78-.68,3.17a9.84,9.84,0,0,0-.68,2.94,8.06,8.06,0,0,0,.24,1.83,12.75,12.75,0,0,0,.67,2.26c.71,1.81,1.3,2.93,2.26,5s.79,1.82,1.36,2.95,1.13,2.1,2.26,4.07c1.53,2.67,1.51,2.53,1.81,3.17a39.59,39.59,0,0,1,1.59,4.08c.11.31.46,1.32.9,2.72.64,2,1,3,1.13,3.85a55.77,55.77,0,0,1,.46,9,27.88,27.88,0,0,1-.46,3.39c-.54,2.51-4.94,5.79-6.78,5.2-2.73-.86-19.49-.87-24.85-1.07C1526.13,487.48,1520.36,487.3,1519.76,486.28Z"/><path class="cls-39" d="M1539.24,482.44c0-.21,1.13-.5,1.81-.68,1.13-.29,1.63-.24,2-.68.19-.19.33-.46.45-1.36a15.65,15.65,0,0,0,0-3.62c-.12-1.46-.14-1.36-.22-2.49-.18-2.16-.09-2.16-.23-2.94a15.25,15.25,0,0,0-.91-2.95c-.27-.75-.56-1.41-1.13-2.71a17.28,17.28,0,0,1-1.13-2.72,8.22,8.22,0,0,1,1.59,2.26,20.67,20.67,0,0,1,1.13,2.71c.68,1.83,1,2.75,1.13,3.18a17.64,17.64,0,0,1,.45,4.07c.08,1.59-.2,2.34,0,4.08a4.56,4.56,0,0,0,.45,1.81c.53.83,1.43,1.2,2.95,1.81,1.31.53,1.82.57,1.81.68C1549.38,483.38,1539.27,483.06,1539.24,482.44Z"/><rect class="cls-40" x="1496.21" y="483.12" width="125.23" height="33.74" rx="1.27"/><path class="cls-41" d="M1544.45,371.26c.31-1.44-2.41-3.15-3.17-3.63-2.06-1.29-3.93-1.68-6.78-2.26a23.34,23.34,0,0,0-5.65-.68,14.8,14.8,0,0,0-5.88,1.13,13.61,13.61,0,0,0-4.34,3c-1.82,1.88-2.52,3.74-3.62,6.78a70.31,70.31,0,0,0-2.26,8.6c-.89,3.94-.83,4.2-1.59,7.25-.3,1.19-.9,3.57-1.81,6.57-.72,2.38-1.31,4.06-2.26,6.77-1.81,5.16-2.7,7.74-2.95,8.38a19.5,19.5,0,0,0-1.36,4.52,18.88,18.88,0,0,0,0,4.75c.33,3.46.49,5.2,1.13,5.44,1.73.65,6.63-8.75,14.5-23.1,0,0,16.25-29.65,23.77-31.93C1542.57,372.72,1544.23,372.28,1544.45,371.26Z"/><path class="cls-42" d="M1544.45,371.48a6.13,6.13,0,0,0-1.81-2.72,11.33,11.33,0,0,0-3.39-1.58c-.36-.13-1.63-.6-3.63-1.13a10.75,10.75,0,0,0-3.39-.68c-1.27.24-2.12,1.34-3.62,4.07a84.33,84.33,0,0,0-3.85,8.16c-1,2.3-1.82,4.26-3,6.57-1.55,3.16-2.93,5.5-4.75,8.6-2.68,4.54-2.74,4.26-4.09,6.78-2,3.8-1.77,4.25-3.62,7.47-1.62,2.83-1.94,2.75-3.85,6.11-2,3.6-2.48,5.16-2.72,6.34a18,18,0,0,0-.22,4.52,16.11,16.11,0,0,0,1.36,7,18.91,18.91,0,0,0,3.39,4.31c2.41,2.61,3.87,4.19,4.52,3.85s.1-1.89-1.36-9.74a31.52,31.52,0,0,1-.68-6.57c0-2-.64-1.88,0-3.17,1-2.13,0-1.65,2.49-2.94,1.47-.75,8.16-5.65,14.28-10.42,3.93-3.08,5.77-4.71,6.56-5.43,2.79-2.53,4.2-3.84,5.44-5.65a24.11,24.11,0,0,0,3.39-8.38c1.3-5.44-.14-5.67,1.36-9.74C1544.07,375.1,1545.05,373.48,1544.45,371.48Z"/><path class="cls-39" d="M1537.21,412.92a20.78,20.78,0,0,0,.22,5.21c.23,2-.33,3.33-.22,6.34,0,.72,0,1.45,0,2,.1,3.39,1.16,5.72,1.35,9.28a74.5,74.5,0,0,1,.68,10.19c0,.61,0,1,0,1-.1,1.92-.25,2.85-.18,2.86a11,11,0,0,0,.67-2.72,20.56,20.56,0,0,0,0-5.65c-.26-2.67-.15,1-.45-5.88-.23-5.38-1.27-5.44-1.36-8.84-.11-3.94.52-6.61,0-9.28C1537.4,415,1537.31,412.89,1537.21,412.92Z"/><path class="cls-43" d="M1329.69,704.29c-.42-.5-.83-1.4-.49-2,.66-1.07,3.87-.24,5.66.49.81.34,3.06,1.26,3,2.21-.08.66-1.23,1.11-2,1.24-.9.16-1.14-.15-3.94-1C1330.58,704.87,1330.12,704.79,1329.69,704.29Z"/><path class="cls-44" d="M162,56.66a1.5,1.5,0,0,0,0-3,1.5,1.5,0,0,0,0,3Z"/><g class="cls-14"><g class="cls-14"><path d="M57.81,252.58a41.39,41.39,0,0,0,6.68,8.52c6,5.37,14.55,8.39,23.85,8.39,16.38,0,26.73-9,26.73-23.2,0-12-7.08-18.47-26.21-23.84-20.31-5.64-28-12.84-28-25.81,0-14.55,11-24.11,28.17-24.11a34.63,34.63,0,0,1,15.6,3.53,48.06,48.06,0,0,1,11,8L113,186.68a31.41,31.41,0,0,0-10-8.26,29.73,29.73,0,0,0-14.15-3.27c-15.46,0-25.15,8.25-25.15,21.49,0,11.92,6,17.29,27,23.45C110.61,226,118,232.93,118,246.29c0,15.6-11.92,26-29.87,26-10.22,0-19-3.15-25.55-9a38,38,0,0,1-7.21-8.52Z"/><path d="M189.49,268.44a82.94,82.94,0,0,0,9.83-.39v3.53a82.94,82.94,0,0,0-9.83-.39H152.28a87.2,87.2,0,0,0-10.09.39,82.69,82.69,0,0,0,.39-9.82V183.14a86.17,86.17,0,0,0-.39-10,87.2,87.2,0,0,0,10.09.39h35.24a82.86,82.86,0,0,0,9.83-.39v3.54a82.86,82.86,0,0,0-9.83-.39H145.59V221h37.48a80.88,80.88,0,0,0,9.83-.4v3.54a82.94,82.94,0,0,0-9.83-.39H145.59v44.68Z"/><path d="M296.14,261.36a82.86,82.86,0,0,0,.39,9.83h-4.19a63.59,63.59,0,0,0-6-9.83l-55.16-78c-1.83-2.49-3.54-5-5.5-7.47v85.43a82.86,82.86,0,0,0,.39,9.83h-3.8a82.86,82.86,0,0,0,.39-9.83v-78a82.94,82.94,0,0,0-.39-9.83H228c2,3.28,4.19,6.56,6.55,9.83l58.57,82.68V183.4a80.88,80.88,0,0,0-.4-9.83h3.8a82.94,82.94,0,0,0-.39,9.83Z"/><path d="M357.2,173.57c29.87,0,46.64,17,46.64,47.57,0,31.18-17.29,50.05-45.6,50.05H336.75a99,99,0,0,0-10.08.39,96.81,96.81,0,0,0,.39-9.82V183a95.14,95.14,0,0,0-.39-9.83,99,99,0,0,0,10.08.39Zm1,94.87c26.47,0,42.59-17.82,42.59-47.3,0-28.83-15.73-44.81-43.77-44.81h-27v92.11Z"/></g><g class="cls-14"><path d="M450.23,271.19V165.69l47.13,75.37V172.41h9.76V277.2L460,202v69.16Z"/><path d="M537.5,172.41v59.5q0,12.74,2.72,18.62,4.06,8.5,11.43,8.5t11.47-8.5q2.71-5.7,2.72-18.62v-59.5h9.75V236q0,15.62-6.36,25.72Q562.08,273,551.65,273t-17.54-11.26q-6.36-10.11-6.36-25.72V172.41Z"/><path d="M596.22,271.19V172.41h13.56q9.76,0,15.41,2.94a29.36,29.36,0,0,1,11,9.79q10,14,10,36.66t-10.42,36.85q-5.24,7-11,9.79-5.35,2.74-15.19,2.75Zm9.76-14h4.39a25,25,0,0,0,10.93-2.11,22.7,22.7,0,0,0,7.87-7.1q7.19-10,7.19-26.17t-7.11-26.36q-6.4-9-18.88-9H606Z"/><path d="M699.27,186.42H673.36v23.74h25.16v14H673.36v33h25.91v14H663.61V172.41h35.66Z"/><path d="M753.77,187.13l-7.92,7.16q-2.21-5.88-4.22-7.68a7.43,7.43,0,0,0-5.4-2,8.13,8.13,0,0,0-6.74,3.52,13.74,13.74,0,0,0-2.68,8.7q0,7.23,7,11.64l6.45,4a30.76,30.76,0,0,1,11.51,11.87q3.65,7,3.64,17.18,0,13.62-5.94,22.51t-14.86,9q-8.42,0-13.9-7.61T714,243.94l9.88-3.33q.68,8.7,2.34,12,3,6.39,8.79,6.39,4.57,0,7.58-4.67t3-11.83a24.74,24.74,0,0,0-.52-5.28,16.24,16.24,0,0,0-1.63-4.41,16.94,16.94,0,0,0-2.87-3.78,27.14,27.14,0,0,0-4.18-3.36l-6.24-4q-13.27-8.58-13.27-25.08,0-11.13,5.57-18.62t13.85-7.55Q747.49,170.49,753.77,187.13Z"/></g></g><g class="cls-14"><path d="M478,127l-1.54,28.53q-8.89,3.58-15.93,3.59a36.62,36.62,0,0,1-27.89-12.16Q420,133.3,420,108.34q0-23.34,11.9-37.49t31.8-14.07a38.54,38.54,0,0,1,13.17,2.43V87.42q-5.94-5.94-12.22-6a14.52,14.52,0,0,0-12.79,7q-4.61,7-4.61,19.45a45.43,45.43,0,0,0,1.16,10.74,25.24,25.24,0,0,0,3.29,8,14.94,14.94,0,0,0,5.28,5,14.62,14.62,0,0,0,7.16,1.73Q471.07,133.36,478,127Z"/><path d="M539.12,58.57H565.8v69.86q0,8.76-2.75,14.2a27.65,27.65,0,0,1-9,10.3q-8.45,6.15-20.54,6.15-13.68,0-23-6.79-11.77-8.62-11.78-27.63V58.57h26.68v63.72q0,6.46,1.57,9.15t5.28,2.68q3.84,0,5.31-2.49t1.47-9.28Z"/><path d="M624.45,157.35H597.77V82.24H583.06V58.57h56.68V82.24H624.45Z"/><path d="M657,157.35V58.57h49.58V81.79h-22.9v14.4h20.53v22.32H683.68v15.1h22.9v23.74Z"/><path d="M726.21,154.92v-31q7.88,10.74,17,10.75a8.45,8.45,0,0,0,5.63-1.83,5.71,5.71,0,0,0,2.17-4.57q0-4-4.73-7.74L742,117.11a58.75,58.75,0,0,1-7.42-6.5,32.92,32.92,0,0,1-5-6.65,28.23,28.23,0,0,1-2.82-7.07,31.94,31.94,0,0,1-.89-7.68A37,37,0,0,1,729,74.76a37.51,37.51,0,0,1,3.71-6.43,28.2,28.2,0,0,1,23.1-11.55,41.12,41.12,0,0,1,19.19,5V92a28.17,28.17,0,0,0-7.42-8,14.27,14.27,0,0,0-8.19-2.91,7.27,7.27,0,0,0-5,1.79,5.27,5.27,0,0,0-2.05,4.16q0,4,5.44,7.87L762,98.11q8.44,6.08,12.09,12.47a29.27,29.27,0,0,1,3.71,15q0,14.6-8.89,24.06t-22.52,9.47A56,56,0,0,1,726.21,154.92Z"/></g><rect class="cls-45" x="422.54" y="213.44" width="358.33" height="18.77"/><path class="cls-46" d="M780.66,215c-.48.18-.61,1.18-.86,3.18a21.36,21.36,0,0,0-.15,3.75,22.94,22.94,0,0,0,1.44,6.5,105.74,105.74,0,0,0,9.4,18.49,101.3,101.3,0,0,0,13.62,16.91c4.53,4.5,7.25,7.16,12,9.25A34.66,34.66,0,0,0,829.24,276a26.17,26.17,0,0,0,13.44-3.07,16.1,16.1,0,0,0,5.05-4c2.37-2.92,3-5.95,3.62-9.11a20.71,20.71,0,0,0,.43-8.1,20.14,20.14,0,0,0-2-5.92,21.78,21.78,0,0,0-5.06-6.29,26.82,26.82,0,0,0-6.93-4.83,45.2,45.2,0,0,0-9.12-3c-3.16-.71-3.69-.46-6.65-1.29a29.9,29.9,0,0,1-6.07-2.31,29.47,29.47,0,0,1-6.21-4.48c-1.77-1.57-2.3-2.32-4.92-5-2.15-2.27-4-4-5.2-5.21-1.11.4-3.18.32-5.78.08-2.39-.23-4.18-.39-5.2-.94-.14.83.38,2.38.94,4.19.71,2.26,1.45,3.63,2.09,4.19a9.41,9.41,0,0,1-4.46-.58C783.28,218.57,781.85,214.51,780.66,215Z"/><path class="cls-47" d="M825.35,234a2.58,2.58,0,0,0-.27,4.92c1,.32,2.52.81,4.25,1.5a18.9,18.9,0,0,1,5.11,2.64,14.68,14.68,0,0,1,3.09,3.73,28.17,28.17,0,0,1,2.89,5.62,5.55,5.55,0,0,0,2,2.43,4.61,4.61,0,0,0,3.19.91,4.52,4.52,0,0,0,3.5-3.34,17.33,17.33,0,0,0-.76-5,14,14,0,0,0-3.88-6.57,17.61,17.61,0,0,0-3.89-2.38c-1-.53-2.49-1.17-5.47-2.43a20.76,20.76,0,0,0-3.46-1.28,24.85,24.85,0,0,0-3.11-.49C827.24,234.09,826.14,234,825.35,234Z"/><path class="cls-48" d="M780.64,214.58c-1.21.26-1.44,4.13-1.32,6.58a25.73,25.73,0,0,0,2.15,9.05A110.19,110.19,0,0,0,790,246.49a100.4,100.4,0,0,0,7.73,11,60.2,60.2,0,0,0,9.71,10c3.19,2.55,5.92,4.73,10.2,6.25a34.7,34.7,0,0,0,14.27,2.11c5-.33,8.34-1.33,11.89-3.76,3.36-2.29,5.85-5.75,5.43-6.25-.25-.29-1.41.57-3.29,1.32a20.16,20.16,0,0,1-8.72,1.15c-5.72-.14-10.33-1.94-14.15-3.45a52.05,52.05,0,0,1-13.82-7.74c-3.66-2.91-5.85-5.5-9.38-9.71a85.41,85.41,0,0,1-8.39-11.52c-4.49-7.48-7.39-15.22-6.41-15.79.27-.17.61.36,2,.82,2.09.72,4.23.48,4.28.17s-3.78-.28-7.08-3C782,216.33,781.52,214.39,780.64,214.58Z"/><path class="cls-48" d="M787.45,212.17c-.43.39-.3,1.46.16,2.15,2,2.89,11.08.1,11-.32,0-.25-3,.8-6.91-.49C789.52,212.76,788.06,211.61,787.45,212.17Z"/><path class="cls-49" d="M778.11,218.14a14.42,14.42,0,0,0,.76,4.7,21.08,21.08,0,0,0,.74,2,13.52,13.52,0,0,0,.5-2.27c.29-2.11-.08-3.09.36-4.78a8.25,8.25,0,0,1,.88-2l1.77,1.76a10.1,10.1,0,0,0,3.65,2.65,10.71,10.71,0,0,0,5.16.77,7.34,7.34,0,0,1-1.51-2.26,10.52,10.52,0,0,1-.65-2.27,11.53,11.53,0,0,0-.5-2.34,5.43,5.43,0,0,0-.75-1.3,7.46,7.46,0,0,1,1.25.13,7.77,7.77,0,0,1,1.94.59c.75.32,2.27.64,5.75.59.89,0,3-.36,3.95-.36.19-.5-.2.5,0,0A40.14,40.14,0,0,0,797,210a29.49,29.49,0,0,0-4.12-2.09,7.71,7.71,0,0,0-3.23-1c-2-.16-3.17.65-4.28,0a3.27,3.27,0,0,1-1.33-2.51,16.3,16.3,0,0,1,0-2.21,4.75,4.75,0,0,0,0-1.77c-.06-.23-.32-1.19-1-1.37s-1.74.71-2.12,1.62a3.54,3.54,0,0,0,.65,3.22l.63,2.51a3.83,3.83,0,0,1,0,2.64c-.51,1.24-1.58,1.46-2.51,2.92a6.13,6.13,0,0,0-.88,2.26A12.39,12.39,0,0,0,778.11,218.14Z"/><path class="cls-50" d="M784.22,208.1a10,10,0,0,0,0,3.36,10.88,10.88,0,0,0,1.34,3.53c1.84,3.23,4.72,5.51,5,5.22.13-.11-.23-.56-1.26-2.81a10.64,10.64,0,0,1-1.19-3.26,7.59,7.59,0,0,1-.2-2.77l1.08.29,1.07.3c.92.21,1.9.4,2.94.54a36.59,36.59,0,0,0,6.1.33,20.37,20.37,0,0,0-2.92-2.4,12.8,12.8,0,0,0-3.48-1.85A13.51,13.51,0,0,0,789,208,33.58,33.58,0,0,0,784.22,208.1Z"/><path class="cls-50" d="M783.67,200.36c-.51-.38-1.65,0-1.65,0h.1v-.07a6.68,6.68,0,0,0-.24,1.26c-.28,3.23,2.18,6,2.51,5.83s-.65-1.2-.72-3.37C783.62,202,784.27,200.8,783.67,200.36Z"/><path class="cls-51" d="M398.4,108.3a13.94,13.94,0,0,0-2.21-4.28c-4.51-5.86-12.48-6.13-14.65-6.21a33.73,33.73,0,0,0-5.61.65c-1.88.29-2.84.52-3.19,1.26a3,3,0,0,0,.36,2.42,8.25,8.25,0,0,0,1.35,2.22c1.13,1.41,2.15,2.64,3,3.66l5.64-1.85a44.49,44.49,0,0,1,15.28,2.15Z"/><path class="cls-52" d="M398,100.36a2.81,2.81,0,0,1,1.71-1.51,2.55,2.55,0,0,1,2.72,1c.64,1-.12,2.37-.75,4.06a21.55,21.55,0,0,0-1.29,7.06l-2.73-1a11.87,11.87,0,0,0,.56-4.62C398.08,103.11,397.26,101.89,398,100.36Z"/><path class="cls-53" d="M400.19,109.82a14,14,0,0,1,3.28-3.54c5.93-4.47,13.69-2.63,15.81-2.12a33.15,33.15,0,0,1,5.24,2.09c1.73.77,2.58,1.25,2.72,2s-.44,1.52-1,2.24a8.4,8.4,0,0,1-1.9,1.77c-1.5,1.08-2.79,2-3.9,2.73l-4.94-3.28a44.66,44.66,0,0,0-15.32-1.94Z"/><path class="cls-54" d="M366.83,113a34.2,34.2,0,0,0-3.87,9,21.11,21.11,0,0,0-.36,7.09,42.33,42.33,0,0,0,.84,6.92h0c1.63,8.47,6.5,15.05,8.24,17.27h0a37,37,0,0,0,6.28,6.53,36,36,0,0,0,7.62,4.69,27.17,27.17,0,0,0,3.88-2.15,29.54,29.54,0,0,0,6.23-5.8c4.05-4.68,6.07-7,8.35-10.87,2.41-4.05,4-6.73,4.78-10.76a25.7,25.7,0,0,0-.64-11.89c-.89-3.43-2.25-8.64-7-12.64a23.6,23.6,0,0,0-8.28-4.22,27.84,27.84,0,0,0-8.25-1.31,27.17,27.17,0,0,0-11.91,2.74A17.62,17.62,0,0,0,366.83,113Z"/><path class="cls-55" d="M399.13,109.58a24.59,24.59,0,0,0-8.2,5.53,30.34,30.34,0,0,0-4.28,5.86,43.6,43.6,0,0,0-3.19,6.42c-3,7.6-3,14.37-3,19.56h0a39.28,39.28,0,0,0,1.43,9.2,37.89,37.89,0,0,0,3.58,8.42,25,25,0,0,0,6.22.39,40.67,40.67,0,0,0,6.45-1.37c5.91-1.68,8.86-2.51,12.87-4.5a35.88,35.88,0,0,0,9.9-6.45,24,24,0,0,0,8.15-20,26.29,26.29,0,0,0-5-13.83,20.74,20.74,0,0,0-5.94-5.88,21.83,21.83,0,0,0-7.33-2.8A33.38,33.38,0,0,0,399.13,109.58Z"/><rect class="cls-56" x="756.12" y="120.72" width="66.98" height="32.94" rx="5.12" transform="translate(391.73 832.88) rotate(-70.09)"/><rect class="cls-19" x="756.47" y="121.25" width="66.24" height="31.91" rx="4.6" transform="translate(391.7 832.88) rotate(-70.09)"/><rect class="cls-20" x="764.99" y="122.35" width="49.68" height="28.39" transform="translate(392.48 832.66) rotate(-70.09)"/><polygon class="cls-8" points="784.97 108.47 796.34 159.94 811.5 118.07 784.97 108.47"/><path class="cls-9" d="M797.28,108.76h0a.36.36,0,0,1,.46-.22l4.27,1.55a.36.36,0,0,1,.21.46h0a.36.36,0,0,1-.46.21l-4.26-1.54A.36.36,0,0,1,797.28,108.76Z"/><circle class="cls-9" cx="800.34" cy="108" r="0.41"/><circle class="cls-9" cx="794.37" cy="107.71" r="0.66"/><path class="cls-57" d="M777.28,163.15a2.5,2.5,0,1,1,1.5,3.21A2.5,2.5,0,0,1,777.28,163.15Z"/><circle class="cls-19" cx="779.62" cy="164" r="2.11"/><path class="cls-56" d="M782.63,107.82h0a.17.17,0,0,1,.1.21h0l-.8,2.19a.15.15,0,0,1-.2.1h0a.16.16,0,0,1-.1-.2l.8-2.2A.16.16,0,0,1,782.63,107.82Z"/><path class="cls-56" d="M780.44,113.82h0a.15.15,0,0,1,.1.2l-1.43,3.92a.16.16,0,0,1-.21.09h0a.16.16,0,0,1-.09-.2l1.43-3.92a.15.15,0,0,1,.19-.1Z"/><path class="cls-56" d="M778.48,119.23h0a.15.15,0,0,1,.1.2l-1.43,3.92a.17.17,0,0,1-.21.1h0a.16.16,0,0,1-.09-.2h0l1.43-3.93A.16.16,0,0,1,778.48,119.23Z"/><path class="cls-56" d="M809.94,129.42l1.7-4.7a.16.16,0,0,1,.2-.09h0a.15.15,0,0,1,.1.2l-1.7,4.7a.16.16,0,0,1-.21.09h0A.16.16,0,0,1,809.94,129.42Z"/><path class="cls-58" d="M1498,833c1.26-1.09,2.77-.93,6-1,6.92-.16,6.51-1.06,11-1,4.88.07,10.57.15,15,4,2.78,2.41,6.51,7.56,5,11-3.42,7.79-33.58,6.62-38-4C1496,839.46,1495.76,835,1498,833Z"/><path class="cls-59" d="M1500,711c1.69.52,4-.28,6-1,2.52-.89,3.78-1.9,7-4,6.67-4.34,6.81-3.59,8-5,3-3.54,3.37-9.82,1-14-4.19-7.39-17.3-8.83-24-3C1489.2,691.67,1494.46,709.31,1500,711Z"/><path class="cls-60" d="M1499,810c1.37.48,3.25-.68,7-3,4.43-2.74,7.92-4.9,9-8,2.67-7.65-9.37-20.81-15-19C1493.07,782.23,1493.25,808,1499,810Z"/><path class="cls-61" d="M1085,1002a219,219,0,0,0,11-26,216.11,216.11,0,0,0,9-35c2.28-13.51,2.52-23.68,3-44,.29-12.11.1-17.66,0-39-.17-36.49.16-30.83,0-40-.47-27.58-1.64-29.75,0-40,2.14-13.36,6.31-23.33,10-32,8.09-19,12.33-19.89,19-36,4.76-11.49,2.77-11.44,10-39,4.88-18.6,7.9-30.11,14-45,6.22-15.17,10-24.49,18-36,9.71-14,15.37-16.56,17-27,1.19-7.62-.77-13.06,3-23,3.26-8.6,7-10.53,8-11,6.85-3.21,14.49,1.66,15,2,5.53,3.64,7.26,9.4,10,19,1.66,5.83,1.67,8.07,4,23,2.54,16.3,2.83,15.56,3,19a62.2,62.2,0,0,1-6,29c-1.21,2.62-4.14,7.41-10,17-3.36,5.5-6,9.58-8,16a63.54,63.54,0,0,0-2,9c-.93,5.34-1.3,11.3-2,23-.53,8.82-.66,11.08-1,15-.87,10.1-1.54,13.16-2,15-2,7.88-3.49,7.3-4,12-.82,7.67,3.29,8.88,4,19,.51,7.23-1.47,8.34,0,14,1.09,4.21,3,6.55,6,11,6,8.74,9,13.14,11,18,5.68,13.69,3,29.84,3,30,.11,3.08.35,7.59,1,13a147.31,147.31,0,0,0,4,21c4.22,14.47,26.57,32.09,41,32,43.81-.28,65.22-164.11,139-258,0,0,34.71-44.17,86-63a107.48,107.48,0,0,1,24-5c15.11-1.49,19.65,1.14,21,2,7.73,4.9,9.47,14.19,10,17,2.25,12-3.93,21.7-6,25-1.41,2.25-6.1,9.24-28,22a174.7,174.7,0,0,1-21,11c-31.78,14-180.17,154-147,209,21.61,35.84,110.91,20.07,116,49,.79,4.5,1,18.12-6,31-2.82,5.22-5.84,8.52-10,13-16.34,17.61-24.5,26.41-29,31-16.66,17-12.92,16.73-35,41-12.73,14-24,25.09-30,31-21.2,20.84-20.72,18.22-29,28-14.27,16.85-14.43,23.14-27,32-4.65,3.27-9.42,5.79-15,12a60.23,60.23,0,0,0-11,18c-21.16,51.47-22,98-22,98-.39,22,2.09,24.14-1,27-24.79,22.93-205.88-98.6-193-177C1061.45,1071.19,1070.5,1031.49,1085,1002Z"/><path class="cls-62" d="M1067,1007c1.31-1.93,3.21-5,7-11,7.42-11.83,8.34-13.88,9-16,2-6.41.7-10.62,0-18-.8-8.41.31-9.06,2-31,.88-11.4,1.25-21.26,2-41,.54-14.2.28-13.3,1-35,.29-8.63.56-16.81,1-28,1-24.46,1.21-23.93,1-29-.37-8.88-1.18-12.26,0-19,.62-3.53,1.42-5.92,6-17,4.85-11.74,7.94-18.72,11-26,3.34-8,5.6-13.8,8-20,4.87-12.6,8.74-22.6,13-36,4.2-13.22,3-11.52,8-28a173.36,173.36,0,0,0,5-20c.89-4.79.55-4.13,1-6,2.81-11.64,10.49-14.47,22-31,1.93-2.78,3.82-5.71,4-6,5.52-8.62,5.65-10.31,9-15,2.31-3.23,1.93-2,10-11,6.91-7.72,8.89-10.53,10-10,1.41.68.3,9.25-1,13-1.67,4.83-1.79,5-5,10-1.16,1.79-5.11,4.53-9,12-5.89,11.3-5.23,11.06-9,18-4.83,8.87-6.13,9.74-9,16-.53,1.16-1.76,3.59-5,14-2.57,8.26-4.7,16.66-7,25-2.61,9.46-6.17,15.84-8,25-2,10-2,16-7,26-7.35,14.69-11,25-17,36-3.27,6-5.87,13.06-9,23a85,85,0,0,0-3,12c-1.25,7.43-.09,13.07,0,17,.21,9.33,0,19,0,28,0,18.34.65,36.67,1,55,.09,4.56-.74,14.31-1,27-.24,11.33-.64,16.42-1,20-.83,8.3-2,14.54-3,20-1.8,9.64-3.64,16.77-5,22-3,11.56-4.5,17.33-7,23-2.32,5.27-5.21,9.85-11,19-2.42,3.83-9.54,23.23-13,35-5,17-3.54,20.32-6,20a9.61,9.61,0,0,1-8-10C1054.18,1050.49,1054.36,1025.56,1067,1007Z"/><path class="cls-63" d="M1208,749c-1.31,2.84-1.12,6.06-1,8a25.62,25.62,0,0,0,2,8,76.37,76.37,0,0,0,6,12c6.63,11.44,6.28,10.41,7,12,2.76,6.09,3.35,11.23,4,17,.9,7.91,1.5,13.24,0,20-.92,4.14-2.24,7.07-1,11,.77,2.45,2,3.42,3,7a30,30,0,0,1,1,7c.21,2.53,1.06,12.65,4,14,3.8,1.75,14.44-9.63,22-23,21.11-37.34,10.86-77.19,5-100-1.17-4.55-5.53-20.76-12-21-3-.11-4.25,3.41-14,11a87.67,87.67,0,0,1-10,7C1214.63,744.52,1210.16,744.33,1208,749Z"/><path class="cls-64" d="M1229,1005c-.37-.43,2.53-2.9,6-8a62.55,62.55,0,0,0,5-9,77.91,77.91,0,0,0,6-16c1-4,1.32-7.66,2-15,.83-9,1.25-13.44,1-17-.82-11.73-4.84-14.11-3-21,1.74-6.51,7.32-11.86,10-11,1.59.51,1.41,3,4,15,1.18,5.46,1.29,5.28,2,9,1.26,6.55,1.9,9.86,2,14a49.18,49.18,0,0,1-3,18c-1.84,5-4,8.42-7,13s-3.26,4.15-8,11c-4.53,6.55-5,8.09-8,11C1234,1003,1229.43,1005.5,1229,1005Z"/><path class="cls-65" d="M1358,984c-.42.09-1.14-1.79-6-16-4.13-12.06-4.67-13.83-6-17a119.83,119.83,0,0,0-9-17c-12.09-20.11-17.74-23.28-16-28,2.45-6.65,16.81-9,20-5,2.1,2.61-1.74,6.57,0,15,.52,2.5,1.34,4.34,3,8,3.24,7.17,4.82,7.64,7,13,1.24,3,1.82,6,3,12,.9,4.58,1.4,8.18,2,13C1357.82,976.56,1358.74,983.84,1358,984Z"/><path class="cls-66" d="M1419,957c.92-.41-2.84-10.8-4-14a119.36,119.36,0,0,0-6-14c-5.94-11.67-9-12.72-10-13-3.07-.84-7.2-.06-8,2-1.14,2.93,5.15,6.56,12,14C1414.55,944.56,1418,957.45,1419,957Z"/><path class="cls-67" d="M1183,1050c-.23.25,3.44,4.6,9,9a55,55,0,0,0,13,8c5,2.12,8.74,2.78,16,4,10.6,1.78,15.86,2.85,19,2,1.11-.3,4.07-1.23,7,0a16.55,16.55,0,0,1,3,2c1.64,1.17,3.72,2.64,6,4,3.08,1.83,4.66,2.75,7,3,1.62.17,1.59-.19,3,0,2.86.38,4.63,2.08,7,4l7,5c7,5,8.09,5.19,11,8,2.27,2.19,3.4,3.28,4,4,2,2.42,0,0,1,1a1.87,1.87,0,0,0,3,0c1.55-1.56,4.09-2.73,6-4,3-2,2.7-2,3-3,.52-1.8-1.55-3-5-6a76.34,76.34,0,0,0-10-8,113.47,113.47,0,0,0-15-8,102.2,102.2,0,0,0-16-6c-4.67-1.27-9.11-1.84-18-3-8.74-1.14-13.12-1.71-19-2a91.88,91.88,0,0,1-12-1,87.12,87.12,0,0,1-9-2,62.45,62.45,0,0,1-9-3C1187.36,1054.62,1183.24,1049.74,1183,1050Z"/><rect class="cls-5" x="1228.24" y="358" width="280.66" height="565.54" rx="46.01"/><rect class="cls-6" x="1235.79" y="364.44" width="265.94" height="552.04" rx="38.33"/><rect class="cls-7" x="1250.47" y="427.53" width="236.61" height="414.05"/><polygon class="cls-8" points="1251.05 428.37 1486.24 799.5 1486.24 428.37 1251.05 428.37"/><rect class="cls-9" x="1348.3" y="392.75" width="43.78" height="5.97" rx="2.98"/><circle class="cls-9" cx="1370.19" cy="387.1" r="3.43"/><circle class="cls-5" cx="1368.77" cy="880.77" r="20.86"/><circle class="cls-10" cx="1368.77" cy="880.77" r="17.6"/><rect class="cls-11" x="1251.94" y="479.07" width="233.05" height="298.15"/><rect class="cls-68" x="1273.89" y="508.66" width="190.15" height="201.49"/><polygon class="cls-69" points="1273.89 508.66 1464.04 664.58 1464.04 508.66 1273.89 508.66"/><g class="cls-14"><path d="M1284.27,746.31v4.75h-4.39l-1,7.56h-5.45l1-7.56h-3.54l-1,7.56h-5.41l1-7.56h-3.8v-4.75h4.38l.44-3.51h-3.73v-4.71h4.35l.91-7h5.37l-.91,7h3.54l1-7h5.41l-.91,7h3.72v4.71h-4.31l-.47,3.51Zm-8.77-3.51H1272l-.48,3.51H1275Z"/><path d="M1303.15,744.7a7.77,7.77,0,0,0-3.58-1,2.73,2.73,0,0,0-1.48.37,1.11,1.11,0,0,0-.57,1,1.14,1.14,0,0,0,.1.53.88.88,0,0,0,.4.39,3.54,3.54,0,0,0,.91.33l1.59.36a7.59,7.59,0,0,1,4.09,2,5,5,0,0,1,1.35,3.59,6.48,6.48,0,0,1-.66,3,6.1,6.1,0,0,1-1.82,2.21,8.69,8.69,0,0,1-2.81,1.39,12.58,12.58,0,0,1-3.62.49,14.77,14.77,0,0,1-7.49-2.15l2.41-4.68a9.41,9.41,0,0,0,5.26,1.9,2.58,2.58,0,0,0,1.5-.4,1.2,1.2,0,0,0,.58-1,1.75,1.75,0,0,0-.09-.61,1,1,0,0,0-.38-.43,2.93,2.93,0,0,0-.86-.37c-.38-.11-.87-.22-1.48-.35a8.44,8.44,0,0,1-4.29-1.84A4.55,4.55,0,0,1,1291,746a6.63,6.63,0,0,1,.58-2.83,5.93,5.93,0,0,1,1.68-2.14,8,8,0,0,1,2.65-1.35,11.94,11.94,0,0,1,3.45-.47,15.74,15.74,0,0,1,6,1.2Z"/><path d="M1311.88,739.88h6.61v2.3a8.53,8.53,0,0,1,6.06-2.59,7.49,7.49,0,0,0,12.71,0,7.82,7.82,0,0,1,2.49.39,5,5,0,0,1,2,1.2,5.78,5.78,0,0,1,1.33,2.14,9,9,0,0,1,.49,3.18v12.16H1337v-9.24a10.83,10.83,0,0,0-.2-2.34,3.68,3.68,0,0,0-.58-1.42,2,2,0,0,0-.9-.7,3.24,3.24,0,0,0-1.09-.18q-3.18,0-3.18,4.64v9.24h-6.61v-9.24a11.88,11.88,0,0,0-.19-2.36,4.39,4.39,0,0,0-.52-1.48,1.86,1.86,0,0,0-.9-.75,3.78,3.78,0,0,0-1.28-.2,3.5,3.5,0,0,0-1.17.19,2.09,2.09,0,0,0-1,.71,3.89,3.89,0,0,0-.65,1.46,10,10,0,0,0-.24,2.43v9.24h-6.61Z"/><path d="M1349.94,749.09a9.09,9.09,0,0,1,.84-3.89,9.54,9.54,0,0,1,2.34-3.15,11.4,11.4,0,0,1,3.56-2.1,13.73,13.73,0,0,1,9,0,11,11,0,0,1,3.58,2.08,9.37,9.37,0,0,1,2.36,3.18,9.69,9.69,0,0,1,.84,4.07,9.58,9.58,0,0,1-.86,4.07,9.75,9.75,0,0,1-2.35,3.18,10.44,10.44,0,0,1-3.6,2.06,13.7,13.7,0,0,1-4.55.73,13.12,13.12,0,0,1-4.46-.73,10.14,10.14,0,0,1-3.52-2.08,9.63,9.63,0,0,1-2.32-3.23A10.17,10.17,0,0,1,1349.94,749.09Zm7,.07a4.24,4.24,0,0,0,.34,1.73,4.52,4.52,0,0,0,.92,1.37,3.9,3.9,0,0,0,1.35.92,4.34,4.34,0,0,0,3.32,0,3.9,3.9,0,0,0,1.35-.92,4.71,4.71,0,0,0,.92-1.37,4.32,4.32,0,0,0,0-3.36,4.85,4.85,0,0,0-.92-1.37,3.88,3.88,0,0,0-1.35-.91,4.34,4.34,0,0,0-3.32,0,3.88,3.88,0,0,0-1.35.91,4.68,4.68,0,0,0-.92,1.35A4,4,0,0,0,1356.92,749.16Z"/><path d="M1385.41,728.3v18.34l6.94-6.76h9.06l-9.39,8.66,9.93,10.08h-9.27l-7.27-7.63v7.63h-6.61V728.3Z"/><path d="M1406.41,732.69a3.68,3.68,0,0,1,.29-1.45,3.82,3.82,0,0,1,2-2,3.75,3.75,0,0,1,2.89,0,3.72,3.72,0,0,1,2.28,3.44,3.67,3.67,0,0,1-.29,1.44,3.82,3.82,0,0,1-2,2,3.75,3.75,0,0,1-2.89,0,3.73,3.73,0,0,1-2-2A3.67,3.67,0,0,1,1406.41,732.69Zm7,7.19v18.74h-6.61V739.88Z"/><path d="M1420.54,739.88h6.62v2.37a7.28,7.28,0,0,1,2.74-2.21,8.67,8.67,0,0,1,3.25-.56,8.09,8.09,0,0,1,3.38.64,6.74,6.74,0,0,1,2.39,1.81A5.2,5.2,0,0,1,1440,744a10.79,10.79,0,0,1,.3,2.67v11.91h-6.62v-9.46a9.83,9.83,0,0,0-.2-2.25,2.76,2.76,0,0,0-.71-1.37,2.47,2.47,0,0,0-1-.62,3.66,3.66,0,0,0-1.16-.18,3.28,3.28,0,0,0-2.58,1,4.16,4.16,0,0,0-.89,2.87v10h-6.62Z"/><path d="M1468.32,739.88v17.46a19.61,19.61,0,0,1-.18,2.81,11.79,11.79,0,0,1-.51,2.19,6.78,6.78,0,0,1-1.37,2.25,9,9,0,0,1-2.25,1.81,12,12,0,0,1-3,1.2,13.77,13.77,0,0,1-3.6.44,14.16,14.16,0,0,1-4-.54,11.29,11.29,0,0,1-3.2-1.52,8.78,8.78,0,0,1-2.24-2.27,7.27,7.27,0,0,1-1.17-2.83h7.45a3,3,0,0,0,3.14,1.87,4.22,4.22,0,0,0,3.2-1.17,4.54,4.54,0,0,0,1.11-3.25v-1.79a12.12,12.12,0,0,1-1.41,1.15,8.37,8.37,0,0,1-1.37.75,7,7,0,0,1-1.46.42,10.88,10.88,0,0,1-1.68.12,9.62,9.62,0,0,1-3.69-.69,8.64,8.64,0,0,1-2.9-1.94,8.55,8.55,0,0,1-1.9-3,10.57,10.57,0,0,1-.68-3.86,10.74,10.74,0,0,1,.74-4,10.11,10.11,0,0,1,2-3.21,9.1,9.1,0,0,1,6.77-2.94,7.28,7.28,0,0,1,5.59,2.48v-2Zm-14.83,9.28a4.35,4.35,0,0,0,1.23,3.07,3.88,3.88,0,0,0,1.35.91,4.33,4.33,0,0,0,1.7.33,4.28,4.28,0,0,0,1.66-.33,4.07,4.07,0,0,0,1.35-.91,4.62,4.62,0,0,0,.91-1.37,4.18,4.18,0,0,0,0-3.35,4.52,4.52,0,0,0-.93-1.35,4.26,4.26,0,0,0-1.37-.91,4.12,4.12,0,0,0-1.62-.33,4,4,0,0,0-1.65.35,4.65,4.65,0,0,0-1.35.91,4.31,4.31,0,0,0-.93,1.33A4,4,0,0,0,1453.49,749.16Z"/></g><path class="cls-70" d="M1345.49,531.56c.81-.69,2.79-.51,5.66-.24,2.66.24,3.18.73,4.92.49,1.4-.2,2.48-.79,4.66-2,2.49-1.34,2.41-1.66,4.19-2.46a22.87,22.87,0,0,1,4.92-1.48,11.7,11.7,0,0,1,4.43-.49,25.49,25.49,0,0,1,2.59.58c.3.08.31.09,1.35.41,1.86.57,2.22.65,2.21.73s-2.39-.46-4.92.5a12,12,0,0,0-2.46,1.47c-2,1.4-4.2,2.87-3.94,3.45s4.09-.27,6.89-1a30.15,30.15,0,0,0,7.13-2.46,16.75,16.75,0,0,0,4.66-3.2,12.76,12.76,0,0,0,2.71-3.68c1-2.21,1-4,1.23-3.94s.58,2.37.24,4.92a16.84,16.84,0,0,1-1.92,5.9,20.37,20.37,0,0,1-2.71,3.69,18.52,18.52,0,0,1-3.19,3.19c-2.23,1.66-3.73,1.79-3.69,2.46s1.39.94,4.19,2c1.58.6,3.11,1.35,4.66,2,4,1.6,6.59,2.91,12.3,5.41s5.29,2.12,15.5,6.39c5.27,2.22,9,3.81,9.85,4.2,9.64,4.19,14.51,6.29,17.23,8.12,4.6,3.08,8.72,5.86,11.32,11.32,3.56,7.45,1.76,14.74,1.23,16.73a28,28,0,0,1-8.6,13.53,45.81,45.81,0,0,1-12.55,7.88c-5.23,2.33-7.35,2.33-10.34,5.16a16,16,0,0,0-4.66,8.11c-.38,1.8-.89,4.16.25,6.4,1.49,3,4.56,3.22,4.42,4.66s-3.79,2.47-5.66,2.7a12.14,12.14,0,0,1-6.4-1,13.31,13.31,0,0,1-5.16-4.43c-5.38-7.4-6.09-14.47-10.07-19.92-4.76-6.48-9-3.56-20.43-11.32-3.87-2.61-11.08-7.5-15.75-15.5-6.87-11.77-.46-17-5.9-33.71C1351.48,543.76,1343,533.67,1345.49,531.56Z"/><path class="cls-71" d="M1369.36,599c1.55-1.31,2.67-.82,5.16-2.45,4.19-2.74,5.53-7,6.89-10.34,3-7.36,4.56-5.56,11.57-17.24,6-10,9.45-18.87,8.85-19.19s-3.26,6-9.35,11.07c-2,1.65-3,2.58-5.16,4.43-3.2,2.79-3.54,3.14-3.93,3.68-1.61,2.25-1.13,3.56-2.22,8.12s-1.79,7.5-4.19,9.35c-1.4,1.1-3,1.4-6.15,2-4.26.78-6.52,1.2-8.12,0-2.54-1.92-2.12-7-1-10.33,1.64-4.84,4.54-5.13,10.09-11.81,1.1-1.34,3.19-4.58,7.37-11.08,6.39-9.92,5.59-9.09,8.11-12.79,5.71-8.39,6.21-7.38,12.3-16.24,2.51-3.62,5.73-6.75,7.89-10.58a11.61,11.61,0,0,1,3-3.44,6,6,0,0,1,3.69-1.73c2.67,0,4.48,3.18,4.92,3.94,1.29,2.22,1.36,4.38,1.47,8.61.17,6.33.26,9.49.25,9.84a162.38,162.38,0,0,1-.74,16.49,100.87,100.87,0,0,1-2.21,13c-1.2,5-1.79,5.59-4.66,14.27-5.59,16.81-3.73,15.57-6.64,21.43-1.47,3-3.09,5.59-3.2,9.6,0,1.45.16,1.82,1,8.12.58,4.37.86,6.57.73,7.62a14,14,0,0,1-5.16,9.11c-7.35,5.25-24.42-1.49-30.51-13.51C1366,612.35,1365.14,602.57,1369.36,599Z"/><path class="cls-72" d="M1421,695.94c-3.21-3.63-2.79-3.21-3.69-4.2a70.17,70.17,0,0,0-5.65-5.66c-2.58-2.25-2.86-2.07-4.43-3.68a22.08,22.08,0,0,1-3.94-5.41c-.36-.76-1.55-3.38-1.47-9.85,0-3.72.46-3.26,1.47-12.55.73-6.52.57-7.11,1.23-9.84.25-1,.5-2.4,1-5.16a11.09,11.09,0,0,0,.2-4.8,18.4,18.4,0,0,0,.54-6.77,20.79,20.79,0,0,0-2.47-8.39,14.85,14.85,0,0,0-3.45-4.42,17.43,17.43,0,0,0-5.41-3c-3.22-1.3-4.22-1.1-6.4-2.46a14.19,14.19,0,0,1-3-2.46,1.83,1.83,0,0,0-1-.47c-2.74-5.3-7.73-10.18-11.8-9.62-2.26.32-3.64,2.24-5.41,1.48s-2.33-3.62-3-7.14c-.3-1.64-.08-1.27-.74-6.63-.14-1.18-.49-3.94-.49-3.94a40.59,40.59,0,0,1,5.16-1.73c3.1-.73,4.28-.29,4.42-.73.42-1.24-8.91-3.85-18.45-10.34-9.26-6.29-11.65-11.41-15.5-10.33-4.19,1.15-5.71,8.26-6.16,10.33-1,4.6-.15,8.56.74,12.8a34.51,34.51,0,0,0,2.46,8.12c1.77,3.81,3.17,4.7,3.45,7.63a13.31,13.31,0,0,1-1.23,6.39,19.92,19.92,0,0,1-3.26,5.44,8.79,8.79,0,0,0-3.12-1.5c-1.45-.46-1.72-.13-4.2-.49s-2.79-.82-4.92-1a10.07,10.07,0,0,0-3.94.24,10.29,10.29,0,0,0-3.68,2.21,15.44,15.44,0,0,0-5.42,8.39,18,18,0,0,0-.46,5.66,68.68,68.68,0,0,0,2.46,13.78c1.73,5.76,2.23,6.42,4.42,13,3.58,10.77,2.54,9.85,4.92,16,.35.91,1.8,5,4.66,13.29a14.44,14.44,0,0,1,1,6.4c-.19,2.11-.81,3-1.72,5.66-1.69,4.91-2.53,7.36-1.72,9.1,2.42,5.16,17.81,2.46,19.44-.49.09-.16.64-1.23,1.23-2.46a16.15,16.15,0,0,0,1-2.21,8.29,8.29,0,0,0,0-3.69,16.48,16.48,0,0,0-1-3.44c-.59-1.58-.46-1.63-1.72-6.4-1.63-6.2-2-6.9-3.45-12.3-.4-1.54-.7-2.8-1.08-4.4a19,19,0,0,0,2.56.69c.38.07.89.16,1.48.24q.64.59,1.23,1.23a20.6,20.6,0,0,1,3,4.43c1.08,2.17,1.46,3.91,2.21,7.38a28.89,28.89,0,0,1,1,6.4,20.75,20.75,0,0,1-1,6.4,22.85,22.85,0,0,1-2.46,5.16c-1.54,2.47-2.17,2.6-2.21,3.2-.22,3.23,17.51,10,39.37,10.09,22.47.1,41.33-6.86,41.09-10.09C1423.71,698.94,1423.65,698.89,1421,695.94Z"/><path class="cls-73" d="M1339.09,568.23c1.22,1.29,2.45,9.18,3,9.59.84.7,6,4.7,9.84,5.9a99.3,99.3,0,0,0,10.09,2c4.72.64,4.42.25,8.61-1,.76-.23,4-4.22,4.43-5.16s.78-3.08,1.23-4.43c.79-2.41.46-4.25.24-7.63-.29-4.13,0-3.46-.24-5.89a37.5,37.5,0,0,0-1.73-7.63c-1-2.89-1.09-2.05-3.44-7.63a23.24,23.24,0,0,0-2.71-5.41,33.09,33.09,0,0,0-2.95-3.2c-1.61-1.65-2.11-2-2.71-2-.88,0-.93.85-2.45,1.72a9.23,9.23,0,0,1-3.2,1,10.11,10.11,0,0,1-3,.25,8,8,0,0,1-3.45-1c-.6-.36-1.4-.94-2.46-1.73-.85-.63-1-.75-1.23-.73-.86,0-1.16,1.51-2.46,3.68-.71,1.2-1,1.4-1.72,2.46a25.28,25.28,0,0,0-3,6.4c-1.76,6.1-5.24,12.29-2,16C1338.34,564.37,1335,563.9,1339.09,568.23Z"/><path class="cls-74" d="M1325.06,627.77a24.65,24.65,0,0,0-2,3.69,27.33,27.33,0,0,0-1.72,7.14,32.5,32.5,0,0,0-.49,7.87,28.54,28.54,0,0,0,1,5.42c.78,2.71,1.35,4.74,3,6.63,1,1.25,2.69,2.17,5.9,3.94,3.42,1.86,5.13,2.82,6.64,3.2a17.2,17.2,0,0,0,9.59-.49,24.59,24.59,0,0,0,6.16-3.45,18.36,18.36,0,0,0,4.19-3.44,21.78,21.78,0,0,0,2.71-4.66,29.93,29.93,0,0,0,2.46-5.9,18.83,18.83,0,0,0,.73-6.15c-.12-2.51-.78-4.7-1-4.66s.32,2.5,0,6.15a29,29,0,0,1-1.48,6.89,18.94,18.94,0,0,1-3,6.4,18.29,18.29,0,0,1-3.2,3.2,20.91,20.91,0,0,1-5.65,3.68,16.29,16.29,0,0,1-6.4,1.45c-2.67,0-4.55-.67-7.38-1.73a20.08,20.08,0,0,1-6.63-3.44,15.2,15.2,0,0,1-4.19-5.16,17.59,17.59,0,0,1-1.48-5.66,30.87,30.87,0,0,1-.25-6.15,51.52,51.52,0,0,1,1.24-7.39C1324.16,633.47,1324.61,630.93,1325.06,627.77Z"/><path class="cls-75" d="M1350.17,531.81c.29.62-.71,1.73-2.71,3.94-1.78,2-2.58,2.42-3.2,3.93a6.77,6.77,0,0,0-.49,3,7.33,7.33,0,0,0,1.47,3.69c.94,1.39,1.34,1.31,3.2,3.44a18.67,18.67,0,0,1,2.22,3,7.74,7.74,0,0,1,1.23,3.45,7.32,7.32,0,0,1-.25,2c-.21,1-.68,2.51-1,2.46s.1-1.54-.74-3.19a6.85,6.85,0,0,0-2-2.21,24,24,0,0,0-3-2c-2-1.32-2.26-1.61-2.46-1.48-.61.39,1.11,3.21,2.21,8.39a37.28,37.28,0,0,1,.74,5.16,21.35,21.35,0,0,1,0,4.66,14.72,14.72,0,0,1-.74,3.2,15.34,15.34,0,0,1-2.71,4.66,19.59,19.59,0,0,1-3,2.95,14.86,14.86,0,0,1-3.19,2.2c-2.84,1.38-6.24,1.34-6.4.74-.1-.4,2.43-.54,4.92-2.7a12.2,12.2,0,0,0,3.2-4.66c1.06-2.53,1.47-5.48,1-5.66s-1.31,1.56-3.2,4.92a9.75,9.75,0,0,0-1.23,2.71,9,9,0,0,0,0,3.94,16.92,16.92,0,0,0,1.72,4.65c2.7,5.71,2.79,5.66,3.19,6.89a15.85,15.85,0,0,1,1,5.9,13.78,13.78,0,0,1-1,4.66,13.45,13.45,0,0,1-2.21,3.69,7.21,7.21,0,0,1-2.46,2.21c-1.13.53-2.25.44-4.42.25a38.45,38.45,0,0,1-4.42-.74c-2.71-.56-2.6-.64-3.45-.74a11.42,11.42,0,0,0-5.9,1c-2.14,1-3.23,2.47-5.41,5.41-1.66,2.21-.17,3.57-1,4.92a6.26,6.26,0,0,0,.73,6.64c.93,1.12.67.14,5.41,2.21,4.08,1.77,4.71,2.28,5.17,2.71a8.9,8.9,0,0,1,2.94,5.16c.52,3.85-2.72,5.36-2,9.1.43,2.09,1.73,3,1.24,3.69-.37.5-1.54.59-5.9-1a67,67,0,0,1-9.84-4.38,87.3,87.3,0,0,1-9.35-5.66c-6.91-5.22-9-13.13-12.33-25.56-2.72-10.2-4.09-15.3-3-22.14a37.33,37.33,0,0,1,8.38-17.71c3.14-3.61,6.21-7.17,10.83-7.63,2.6-.25,4.08.63,6.15-.49,2.41-1.29,2.57-3.63,4.43-7.63s3.81-6.27,7.63-10.82a44.51,44.51,0,0,1,8.11-8.12,38,38,0,0,1,8.86-4.92,33.66,33.66,0,0,1,5.89-1.72C1345.66,531.56,1349.65,530.72,1350.17,531.81Z"/><path class="cls-76" d="M1347.22,535.49a8.46,8.46,0,0,0,3,2.21,12,12,0,0,0,4.42,1.23,10,10,0,0,0,5.66-1c.93-.5.83-.68,3.45-3.19,2.23-2.15,3.67-3.34,4.42-3.94a19.49,19.49,0,0,1,3.69-2.47,8.3,8.3,0,0,1,2.94-1c2.14-.21,5.53,0,5.66-.25s-2.94-.94-5.16-1.45a18.7,18.7,0,0,0-4.66-.5,19.84,19.84,0,0,0-3.44.25c-1.4.24-2.44.63-6.15,2.46-3.91,1.93-3.77,2-5.9,3-2.58,1.14-7.57,0-8.61.25-2,.46-.5,2,0,2.94A4.65,4.65,0,0,0,1347.22,535.49Z"/><path class="cls-77" d="M1367.39,642.29c-.14.11,1.24,2.54,3.44,4.66a21.07,21.07,0,0,0,4.92,3.45,24,24,0,0,0,8.62,2.48,22.71,22.71,0,0,0,13.77-2.71,16.17,16.17,0,0,0,6.16-5.66c1.72-2.84,2-5.48,2.21-8.61a22.65,22.65,0,0,0-1-10.09,14.52,14.52,0,0,0-3.44-5.89,16.35,16.35,0,0,0-5.41-3.46c-1.31-.56-2-.69-5.9-2.21a5.83,5.83,0,0,1-3.2-2.21c-.51-.85-.62-1.75-.74-1.73a3.16,3.16,0,0,0,.25,2,4.53,4.53,0,0,0,1.23,1.73,9.94,9.94,0,0,0,4.43,2,24.57,24.57,0,0,1,5.89,2.71,14.85,14.85,0,0,1,5.17,5.16c1.28,2.27,1.43,4.22,1.72,7.88.27,3.45.46,5.72-.49,8.61a16.41,16.41,0,0,1-3.94,6.4,17.7,17.7,0,0,1-8.85,4.66c-4.66,1.11-8.42.24-11.56-.49a17.57,17.57,0,0,1-6.89-2.71,38,38,0,0,1-3.94-3.45C1368.21,643.16,1367.48,642.22,1367.39,642.29Z"/><path class="cls-78" d="M1375.51,683.39c-.39,0-.62.49-.74.74a2.4,2.4,0,0,0,0,2.21c.5.82,1.61,1.28,2,1,.14-.12.08-.29,0-1.47s0-1.37-.25-1.73C1376.44,684,1376,683.33,1375.51,683.39Z"/><path class="cls-79" d="M1399.13,645.25c.78.08,1.37-.82,2.46-2.46.83-1.25,1.28-2,1.23-2.95,0-.81-.42-1.9-1-2s-2,.19-3.44,2c-1.3,1.62-.73,2.59-.73,3.44A2.08,2.08,0,0,0,1399.13,645.25Z"/><rect class="cls-80" x="1274.89" y="789.01" width="183.77" height="43.18" rx="19.6"/><path class="cls-11" d="M1339.29,804a7.9,7.9,0,0,0-2.11-1.27,5.57,5.57,0,0,0-2-.42,3.28,3.28,0,0,0-2.05.6,1.84,1.84,0,0,0-.8,1.55,1.51,1.51,0,0,0,.4,1.09,3.36,3.36,0,0,0,1,.75,8.25,8.25,0,0,0,1.46.54c.54.16,1.07.32,1.6.5a10,10,0,0,1,4.65,2.83,7,7,0,0,1,1.47,4.61,8.94,8.94,0,0,1-.65,3.47,7.21,7.21,0,0,1-1.88,2.67,8.74,8.74,0,0,1-3,1.72,13,13,0,0,1-4.09.61,15,15,0,0,1-8.76-2.81l2.77-5.23a11.28,11.28,0,0,0,2.88,1.92,6.92,6.92,0,0,0,2.81.63,3.35,3.35,0,0,0,2.37-.73,2.18,2.18,0,0,0,.77-1.65,2.29,2.29,0,0,0-.19-1,2.24,2.24,0,0,0-.67-.76,4.93,4.93,0,0,0-1.2-.64c-.5-.2-1.1-.42-1.81-.66s-1.65-.56-2.46-.88a7.85,7.85,0,0,1-2.15-1.28,5.68,5.68,0,0,1-1.52-2,7,7,0,0,1-.58-3.06,9,9,0,0,1,.61-3.35,7.35,7.35,0,0,1,1.72-2.58,7.61,7.61,0,0,1,2.71-1.67,10.2,10.2,0,0,1,3.59-.6,15.72,15.72,0,0,1,3.87.51,17.37,17.37,0,0,1,3.87,1.51Z"/><path class="cls-11" d="M1351.79,815.12c0,2.58,1.22,3.87,3.64,3.87a3.26,3.26,0,0,0,3-1.59h5.79q-1.76,5.82-8.77,5.82a11.59,11.59,0,0,1-3.94-.64,8.59,8.59,0,0,1-3-1.84,8.1,8.1,0,0,1-2-2.84,9.37,9.37,0,0,1-.7-3.71,10.52,10.52,0,0,1,.66-3.82,8,8,0,0,1,1.89-2.89,8.34,8.34,0,0,1,3-1.84,11.19,11.19,0,0,1,3.92-.64,11,11,0,0,1,3.87.64,7.93,7.93,0,0,1,2.91,1.87,8.25,8.25,0,0,1,1.82,3,11.79,11.79,0,0,1,.63,4v.63Zm7-3.47a3.61,3.61,0,0,0-1.23-2,3.79,3.79,0,0,0-4.51,0,3.24,3.24,0,0,0-1.11,2Z"/><path class="cls-11" d="M1367.8,805.63h6v2.15a6.57,6.57,0,0,1,2.48-2,7.6,7.6,0,0,1,2.94-.52,7.42,7.42,0,0,1,3.06.58,6.15,6.15,0,0,1,2.17,1.64,4.64,4.64,0,0,1,1,1.92,9.75,9.75,0,0,1,.27,2.41v10.78h-6V814a9.38,9.38,0,0,0-.18-2,2.55,2.55,0,0,0-.65-1.24,2.27,2.27,0,0,0-.89-.56,3.32,3.32,0,0,0-1.06-.16,3,3,0,0,0-2.33.91,3.76,3.76,0,0,0-.81,2.59v9.06h-6Z"/><path class="cls-11" d="M1402.86,795.14h6v27.45h-6v-1.88a6.28,6.28,0,0,1-5.19,2.41,8.22,8.22,0,0,1-6.12-2.61,8.68,8.68,0,0,1-1.8-2.88,9.72,9.72,0,0,1-.65-3.57,9.94,9.94,0,0,1,.61-3.45,8.69,8.69,0,0,1,1.74-2.87,8.25,8.25,0,0,1,6.15-2.64,6.93,6.93,0,0,1,5.26,2.21Zm-7.54,18.92a3.92,3.92,0,0,0,.3,1.54,4,4,0,0,0,.81,1.24,3.72,3.72,0,0,0,1.22.83,4,4,0,0,0,1.54.29,3.87,3.87,0,0,0,1.51-.29,3.72,3.72,0,0,0,1.22-.83,4.32,4.32,0,0,0,.83-1.22,3.59,3.59,0,0,0,.31-1.49,3.71,3.71,0,0,0-.31-1.51,4.42,4.42,0,0,0-.83-1.24,3.55,3.55,0,0,0-1.22-.82,3.88,3.88,0,0,0-1.51-.3,3.79,3.79,0,0,0-1.5.3,3.49,3.49,0,0,0-1.23.82,4.31,4.31,0,0,0-.82,1.21A3.44,3.44,0,0,0,1395.32,814.06Z"/><circle class="cls-9" cx="1336.57" cy="395.73" r="5.47"/><path class="cls-81" d="M1519,634c1.69-.61,3.56-.72,7,0a42.44,42.44,0,0,1,17,8,41.19,41.19,0,0,1,14,19,38.48,38.48,0,0,1,2,15c-.31,4.69-.64,9.56-4,14-3.48,4.6-8.28,6.15-14,8-4.89,1.58-9.31,3-15,2a26.06,26.06,0,0,1-15-9c-5.22-6.09-6.2-12.68-7-18a40,40,0,0,1,1-18c1.16-3.86,2.77-6.57,6-12C1515.16,636,1517.21,634.64,1519,634Z"/><path class="cls-82" d="M1501,739a32.17,32.17,0,0,0-8,11,39.16,39.16,0,0,0-4,16,30.51,30.51,0,0,0,13,27,30.85,30.85,0,0,0,16,6c8.45.59,14.64-2.69,19-5a40.61,40.61,0,0,0,15-13,35.43,35.43,0,0,0,6-14c.57-3.09,2-10.94-2-19-2.68-5.38-6.55-8.35-10-11s-7.69-5.9-14-7c-5.59-1-9.87.25-16,2C1510.42,733.59,1505.72,734.94,1501,739Z"/><path class="cls-83" d="M1509,839a36.25,36.25,0,0,0-9,5,29,29,0,0,0-10,13,28.1,28.1,0,0,0,0,19c2.51,6.78,7,10.53,10,13a37.72,37.72,0,0,0,22,9c3.28.19,13.38.78,22-6a29.75,29.75,0,0,0,8-10c1.66-3.11,5.48-10.52,4-20-1.41-9-6.82-14.69-10-18s-7-7.26-13-9C1524.34,832.5,1516.32,835.9,1509,839Z"/><path class="cls-84" d="M1180,570c-.65-.57.9-3.38,4-9,2.42-4.39,4.79-8.11,6-10,1-1.48,3-4.6,5-8,.63-1.06,1-1.59,1.28-2.16,2.1-3.72,2.34-4.89,2.72-4.84.85.12.94,6.27,0,12a22.73,22.73,0,0,1-2,7,20.74,20.74,0,0,1-5,6C1187.48,565.15,1181.12,571,1180,570Z"/><path class="cls-85" d="M1540,640c-.85.88.74,6.63,1,7,1.56,2.24,2.85,2.93,5,5a42.74,42.74,0,0,1,5,6c1.4,2,2.79,5.16,4,7,1.9,2.89,3.38,4.09,4,4,.88-.13,0-4-1-7a32.83,32.83,0,0,0-4-9c-4.28-7.14-5.84-7-7-8C1544,642.34,1540.85,639.12,1540,640Z"/><path class="cls-86" d="M1508,749c-.4,1.28,1.14,2.33,5,7,0,0,2,2.37,6,8a88,88,0,0,1,9,15c3.07,6.68,3.3,9.9,5,10,2.57.15,5-7,6-10a32.82,32.82,0,0,0,2-11c0-4,0-8.55-3-13a18.2,18.2,0,0,0-7-6c-3-1.52-5.61-1.74-9-2C1519.09,746.78,1509,746,1508,749Z"/><path class="cls-87" d="M1511,852c-.44,1.13,1.85,2.4,5,6a47,47,0,0,1,6,9,40.15,40.15,0,0,1,4,9c.79,2.75,1.3,4.57,1,7-.36,3-1.63,4.42-1,5,.81.75,3.94-.76,6-3,1-1.09,1-1.53,3-5,2.39-4.15,2.51-3.7,3-5,1.27-3.39.54-6.63,0-9a20.63,20.63,0,0,0-3-7,16.43,16.43,0,0,0-5-5,17.62,17.62,0,0,0-5-2,30.07,30.07,0,0,0-8-1C1513.57,851,1511.39,851,1511,852Z"/><path class="cls-88" d="M1690,1229c-1.21-1.34-1.87-1.89-3-3a70.5,70.5,0,0,1-6-7c-2.68-3.22-5.2-5.12-9-8-6.39-4.83-12.09-7.39-18-10-9.48-4.19-11.07-3.64-20-8-4-2-6.93-3.65-11-6-6.62-3.83-11.71-7.15-16-10-9.72-6.47-16.91-11.64-23-16-27.33-19.58-24.65-17.39-28-20-7.9-6.16-15-12.52-29-25-12.06-10.78-17-15.06-22-20-6.23-6.21-6.55-7.22-11-11a41.75,41.75,0,0,1-7-7c-2-2.61-3.38-4.4-4-7-.82-3.42.41-5.1,2-12,.2-.88.8-4.58,2-12,1.25-7.72,1.87-11.58,2-13,.47-5.24,1.09-12-1-20a69.29,69.29,0,0,0-5-13,59.3,59.3,0,0,1-4-9c-1.53-4.45-1.4-5.9-1-7,1-2.62,3.59-3.87,6-5a22,22,0,0,1,8-2,36.38,36.38,0,0,1,14,2c1.27.42,9.9,3.36,16,9,8.93,8.25,6,18.75,10,39,2.35,11.93,5.79,20.43,9,29,5.24,14,9.35,18.13,16,34,5.13,12.24,4.3,13.88,8,22,6.36,14,20,29,20,29,2,2,5.15,5.13,9,9,6,6,7.07,7.18,10,10,3.24,3.12,6.5,6.24,11,10,5.66,4.73,8.48,7.09,12,9,4.72,2.56,6,2.21,13,6a41.2,41.2,0,0,0,6,3c3.6,1.32,5.32,1.15,10,2,5.37,1,8.06,1.46,11,3,3.25,1.7,5.17,3.8,9,8a76.56,76.56,0,0,1,7,9,93,93,0,0,1,6,10c3.31,6.47,5.48,12.77,5,13C1693.72,1234.13,1692.8,1232.11,1690,1229Z"/><path class="cls-89" d="M1524,1001c-.55.21,3.64,10.29,8,28,2.2,8.91,2,9.82,4,17,1,3.67,2,6.86,8,23,5.11,13.84,7.71,20.87,10,26,1.17,2.62,3.8,7.74,9,18s6.47,12.51,8,15a87.65,87.65,0,0,0,11,15c2.67,2.87,9,9.74,10,9s-3.51-6.72-10-19c-3.39-6.42-5.93-12-11-23-1.93-4.2-4.64-10.13-8-18-3.67-8.61-3.8-9.43-9-22-1.59-3.84-1.6-3.81-8-19-6.8-16.14-6.32-15-8-19C1531.75,1017.3,1524.71,1000.73,1524,1001Z"/><path class="cls-90" d="M1683,1220a53.65,53.65,0,0,0-10-15,59.05,59.05,0,0,0-15-11c-8.91-4.79-13.33-4.93-22-8a110.88,110.88,0,0,1-30-17c-8.94-7.31-13.75-14.29-21-25-8.9-13.14-15.45-25.7-24-45-10.25-23.12-9.88-25.46-19-47-11.2-26.44-13.15-26.21-30-63-12.42-27.11-11-26.35-23-52-9.25-19.69-11.49-23.06-21-44-9.14-20.12-8.38-19.87-16-36-4.21-8.9-7.92-18-12-27-4.3-9.45-6.44-13.91-7-21-.37-4.7-.87-12.5,4-20a27.13,27.13,0,0,1,12-10,28.85,28.85,0,0,1,19-1c2.91.77,9.86,3,18,12,8.69,9.56,10.48,17.66,16,31,5.75,13.88,5.44,9,20,38,9.32,18.53,7,15.63,19,40,18.64,37.83,18.82,33.8,20,40,.55,2.9,1.49,8.9,5,10s6.5-4.07,14-9c10.39-6.83,21.25-7.59,27-8,8.31-.59,13.86-1,20,2,5.4,2.62,7.11,5.83,12,6,4.56.16,5.82-2.52,12-5,8.16-3.27,15.76-2.52,21-2a94.68,94.68,0,0,1,18,4s3.85,2.61,7,3,5-1.36,8-3c5.2-2.82,9.85-3.33,16-4a51.22,51.22,0,0,1,17,1c8.27,1.94,13.8,5.54,19,9a97.62,97.62,0,0,1,18,16c8,8.91,12.5,16.58,18,26a209.56,209.56,0,0,1,13,26c3,7.23,4.63,12.82,8,24,2.35,7.79,5.69,19,9,34,3.45,15.65,5.17,23.48,5,28-.51,13.71-5.41,22.24,0,31,1.6,2.59,2.3,2.28,6,7a74.71,74.71,0,0,1,10,17c10.14,22.82,54.29,63.37,47,87-1.39,4.49-6.26,13.65-98,28-72.22,11.3-92,9.18-99-2C1688,1255.39,1693,1241.58,1683,1220Z"/><path class="cls-91" d="M1462,817c7.41-3.3,8.06-3.21,11-5,3.86-2.35,5.79-3.53,7-6,1.72-3.53.75-7.17,0-10a21.82,21.82,0,0,0-8-12,21.18,21.18,0,0,0-10-4,21.59,21.59,0,0,0-16,5c-1.79,1.53-5.16,4.41-6,9-.34,1.86,0,2.55,2,11,1.81,7.67,1.85,8.48,3,10,.27.36,3.79,4.89,9,5C1455.69,820,1456.2,819.58,1462,817Z"/><path class="cls-92" d="M1480,985c-1.57,1.2-2.1,4.31-2,5,.34,2.27,1.42,4.22,3,7,.87,1.53,1,2,3,6a28,28,0,0,1,3,9c.73,4.3,1,6.66,2,7s3-1.87,4-4c1.16-2.37.84-3.81,1-10,.17-6.47.57-6.85,0-9a15.73,15.73,0,0,0-4-7C1487.21,986.19,1482.18,983.34,1480,985Z"/></g></svg>
