<svg id="Layer_1" data-name="Layer 1" xmlns="http://www.w3.org/2000/svg" viewBox="0 0 850.39 198.43"><defs><style>.cls-1{fill:#1d1d1b;}</style></defs><title>logo</title><path class="cls-1" d="M18.4,108.14V22.94H54.76A25,25,0,0,1,66,25.46a28.73,28.73,0,0,1,8.76,6.6A31.51,31.51,0,0,1,80.5,41.3a27.48,27.48,0,0,1,2.1,10.44,29.89,29.89,0,0,1-2,10.8,30.83,30.83,0,0,1-5.52,9.24,26,26,0,0,1-8.58,6.48,25.62,25.62,0,0,1-11.16,2.4H38.08v27.48ZM38.08,63.5H54.16a7.61,7.61,0,0,0,6-3q2.52-3,2.52-8.76a15.23,15.23,0,0,0-.78-5.16A10.56,10.56,0,0,0,59.8,43a8,8,0,0,0-3-2.1,9.13,9.13,0,0,0-3.36-.66H38.08Z"/><path class="cls-1" d="M130.48,108.86a39.63,39.63,0,0,1-17.28-3.72,42.37,42.37,0,0,1-13.32-9.78A44.55,44.55,0,0,1,91.3,81.5a43.66,43.66,0,0,1-3.06-16.08,42.52,42.52,0,0,1,3.18-16.2A43,43,0,0,1,113.8,26a40.71,40.71,0,0,1,17-3.54,39.66,39.66,0,0,1,17.28,3.72A42.15,42.15,0,0,1,161.44,36,45,45,0,0,1,173,65.78,42.52,42.52,0,0,1,169.78,82a43.11,43.11,0,0,1-22.26,23.28A40.17,40.17,0,0,1,130.48,108.86Zm-22.2-43.2a31.87,31.87,0,0,0,1.44,9.54A25.5,25.5,0,0,0,114,83.42a21,21,0,0,0,7,5.76,20.69,20.69,0,0,0,9.6,2.16,20.34,20.34,0,0,0,9.84-2.28,21.44,21.44,0,0,0,7-5.94,26,26,0,0,0,4.14-8.28,33.09,33.09,0,0,0,1.38-9.42,31.87,31.87,0,0,0-1.44-9.54,24.19,24.19,0,0,0-4.32-8.16,21.45,21.45,0,0,0-7-5.64A20.81,20.81,0,0,0,130.6,40a20.38,20.38,0,0,0-9.78,2.22,21.84,21.84,0,0,0-7,5.82,24.61,24.61,0,0,0-4.2,8.22A32.74,32.74,0,0,0,108.28,65.66Z"/><path class="cls-1" d="M184.36,108.14V22.94h38.4a24.74,24.74,0,0,1,11.1,2.52,29.49,29.49,0,0,1,8.82,6.6,31.08,31.08,0,0,1,5.82,9.24,27.68,27.68,0,0,1,2.1,10.44,29.55,29.55,0,0,1-3.73,14.52,25.94,25.94,0,0,1-10.19,10.2l18.72,31.68H233.2L216.88,80.66H204v27.48ZM204,63.5h18a7.36,7.36,0,0,0,6-3.3,13.55,13.55,0,0,0,2.53-8.46,11.9,11.9,0,0,0-2.88-8.4,8.45,8.45,0,0,0-6.24-3.12H204Z"/><path class="cls-1" d="M328.36,40.22H302.44v67.92H282.76V40.22h-26V22.94h71.64Z"/><path class="cls-1" d="M338,108.14V22.94H395.8V40.22H357.64V58.58h31.44v16H357.64v33.6Z"/><path class="cls-1" d="M441.64,108.86a39.56,39.56,0,0,1-17.28-3.72A42.52,42.52,0,0,1,411,95.36a44.55,44.55,0,0,1-8.58-13.86,43.65,43.65,0,0,1-3.05-16.08,42.33,42.33,0,0,1,3.18-16.2A42.89,42.89,0,0,1,425,26a40.74,40.74,0,0,1,17-3.54,39.7,39.7,0,0,1,17.29,3.72A42.37,42.37,0,0,1,472.6,36a44.76,44.76,0,0,1,8.52,13.92,44,44,0,0,1,3,15.84A42.71,42.71,0,0,1,480.94,82a44.08,44.08,0,0,1-8.82,13.74,43.55,43.55,0,0,1-13.45,9.54A40.15,40.15,0,0,1,441.64,108.86Zm-22.2-43.2a31.87,31.87,0,0,0,1.43,9.54,25.32,25.32,0,0,0,4.27,8.22,20.49,20.49,0,0,0,16.61,7.92,20.38,20.38,0,0,0,9.85-2.28,21.55,21.55,0,0,0,7-5.94,26.38,26.38,0,0,0,4.14-8.28,33.09,33.09,0,0,0,1.38-9.42,31.87,31.87,0,0,0-1.44-9.54,24.37,24.37,0,0,0-4.32-8.16,21.38,21.38,0,0,0-7-5.64,20.78,20.78,0,0,0-9.54-2.1A20.37,20.37,0,0,0,432,42.2,21.62,21.62,0,0,0,425,48a24.25,24.25,0,0,0-4.2,8.22A32.4,32.4,0,0,0,419.44,65.66Z"/><path class="cls-1" d="M495.51,108.14V22.94h19.68V90.86h41.28v17.28Z"/><path class="cls-1" d="M565.71,108.14V22.94h19.68v85.2Z"/><path class="cls-1" d="M639,108.86a39.63,39.63,0,0,1-17.28-3.72,42.6,42.6,0,0,1-13.32-9.78,44.55,44.55,0,0,1-8.58-13.86,43.66,43.66,0,0,1-3.06-16.08A42.52,42.52,0,0,1,600,49.22,43,43,0,0,1,622.35,26a40.74,40.74,0,0,1,17-3.54,39.63,39.63,0,0,1,17.28,3.72A42.15,42.15,0,0,1,670,36a44.38,44.38,0,0,1,8.52,13.92,43.8,43.8,0,0,1,3,15.84A42.52,42.52,0,0,1,678.33,82a43.11,43.11,0,0,1-22.26,23.28A40.17,40.17,0,0,1,639,108.86Zm-22.2-43.2a31.87,31.87,0,0,0,1.44,9.54,25.5,25.5,0,0,0,4.26,8.22,21,21,0,0,0,7,5.76,20.69,20.69,0,0,0,9.6,2.16A20.32,20.32,0,0,0,649,89.06a21.34,21.34,0,0,0,7-5.94,26,26,0,0,0,4.14-8.28,32.74,32.74,0,0,0,1.38-9.42A31.87,31.87,0,0,0,660,55.88a24.19,24.19,0,0,0-4.32-8.16,21.45,21.45,0,0,0-7-5.64,20.81,20.81,0,0,0-9.54-2.1,20.41,20.41,0,0,0-9.78,2.22,21.84,21.84,0,0,0-7,5.82,24.61,24.61,0,0,0-4.2,8.22A32.74,32.74,0,0,0,616.83,65.66Z"/><path class="cls-1" d="M401.66,132.32l1.44,1.44a41.06,41.06,0,0,1-6.65,7c-1.91,1.46-3.31,2.18-4.2,2.18s-1.12-.66-1.12-2q0-5,6.54-15.31,5.52-9,5.52-10c0-.59-.24-.88-.74-.88q-1.29,0-6.54,5.84A208.09,208.09,0,0,0,383,137.1q-8.72,11.86-12,17a77.34,77.34,0,0,1,10.14,1.56q4,.94,11.5,3.08a75,75,0,0,0,11.11,2.51q-4.37,5-6,6.75a8.94,8.94,0,0,1-2.52,2.15,7.22,7.22,0,0,1-4.13.07q-2.74-.52-8.68-2.06t-11.11-2.55a49.11,49.11,0,0,0-9.44-1,13.77,13.77,0,0,0-4.15.55c-1.16.37-2.77,1-4.82,1.84a13.72,13.72,0,0,1-4.34,1.27c-1.21,0-1.81-.49-1.81-1.48a4,4,0,0,1,.6-1.9c1-1.64,2-3.21,3-4.69a14,14,0,0,1,3.06-3.48,12.32,12.32,0,0,1,4.69-1.95,39.59,39.59,0,0,1,8.07-.74q7.56-11.59,14.1-20.57t11.9-15.15a72.51,72.51,0,0,1,9.39-9.34q4-3.18,6.41-3.18a3.23,3.23,0,0,1,3.52,3.52Q411.45,114.82,401.66,132.32Z"/><path class="cls-1" d="M438.82,152.77v3.11a23.91,23.91,0,0,1-4.92,3.71,10.89,10.89,0,0,1-5.33.75q-6,7.14-10.62,7.14a7.36,7.36,0,0,1-4.74-1.72,12,12,0,0,1-3.41-4.68,16.66,16.66,0,0,1-1.27-6.64,14,14,0,0,1,2-6.58,29.69,29.69,0,0,1,5.1-6.75,28.87,28.87,0,0,1,6.71-5.06,14.13,14.13,0,0,1,6.63-1.92,7.28,7.28,0,0,1,3.43.67,2.05,2.05,0,0,1,1.25,1.88,3.43,3.43,0,0,1-1.06,2.13A4,4,0,0,1,435,140a5.48,5.48,0,0,1,.65,3.13,20.06,20.06,0,0,1-1,5.62,28.18,28.18,0,0,1-2.86,6.35l.84.84h.69a3.41,3.41,0,0,0,1.56-.4,11,11,0,0,0,1.37-.83Zm-9.56-12.2c-2.56,1.55-4.76,3-6.58,4.2a31.73,31.73,0,0,0-4.64,3.81,10.13,10.13,0,0,0-2.55,3.87c-.78,3.46-1.16,5.33-1.16,5.61q0,3.06,4.26,3.06,2,0,6.68-3.43a12.34,12.34,0,0,1-.78-4.17,16.12,16.12,0,0,1,1.2-6A50.56,50.56,0,0,1,429.26,140.57Z"/><path class="cls-1" d="M460.58,149.71q-6.74,8.91-10.23,12.67t-5.73,3.75a4.53,4.53,0,0,1-3.25-1.46,9.58,9.58,0,0,1-2.29-3.94,16.69,16.69,0,0,1-.82-5.31,14.76,14.76,0,0,1,.35-3.34,13.17,13.17,0,0,1,1.32-3.27,30.15,30.15,0,0,1,2.58-3.87c1.07-1.4,2.37-3,3.92-4.74l2.34-2.73a5.22,5.22,0,0,1,1.86-1.51,8,8,0,0,1,2.94-.39,10.13,10.13,0,0,1,2.83.39q1.35.39,1.35.81a7.54,7.54,0,0,1-1.37,3A35.17,35.17,0,0,1,452,145.1a60.36,60.36,0,0,1-7,6.14,15.28,15.28,0,0,0-.88,4.18c0,1.33.51,2,1.53,2a4,4,0,0,0,1.86-.95q1.29-.94,4.38-3.66t5.54-4.8a32.09,32.09,0,0,0,4.2-4.71c1.59-2.09,2.89-3.66,3.88-4.71,2.28-2.41,3.85-4,4.68-4.71a3.8,3.8,0,0,1,2.41-1.09,1.56,1.56,0,0,1,1.51.7,6.63,6.63,0,0,1,.4,2.83,5.55,5.55,0,0,1-.19,1.57,7.08,7.08,0,0,1-.77,1.56c-.38.63-1.16,1.8-2.34,3.5L467,149A23.79,23.79,0,0,0,464.7,153a9.2,9.2,0,0,0-1,3.32c0,1.6.63,2.41,1.9,2.41a7.19,7.19,0,0,0,3.67-1.3q2.08-1.31,6.4-4.69v3.11q-5.43,5-8,7.29a34.12,34.12,0,0,1-4.5,3.43,7,7,0,0,1-3.61,1.16q-3.9,0-3.9-4.64a14,14,0,0,1,1.16-4.76Q458,155.38,460.58,149.71Z"/><path class="cls-1" d="M497.45,152.87v3.38a47.43,47.43,0,0,1-8.39,8.75q-3.9,2.94-6.64,2.94-3.8,0-5.66-4a20.5,20.5,0,0,1-1.85-8.72,15.53,15.53,0,0,1,.37-3.45,13.38,13.38,0,0,1,.88-2.72c.34-.71,1-1.82,1.9-3.34q6.58-10.25,12.06-10.25c1.89,0,2.83.73,2.83,2.18q0,1.48-1.83,4.64a20.45,20.45,0,0,1-3.27,4.5,73.62,73.62,0,0,0-5.26,5.43,5.4,5.4,0,0,0-1.23,3.48,3.55,3.55,0,0,0,1.25,2.78,4.71,4.71,0,0,0,3.25,1.11,9.37,9.37,0,0,0,4.8-1.6A58.57,58.57,0,0,0,497.45,152.87Zm-3.15-20.74a3.34,3.34,0,0,1-2.2-.88,2.79,2.79,0,0,1-1.05-2.23,7.69,7.69,0,0,1,1.95-4.54c1.3-1.67,2.64-2.51,4-2.51a3.27,3.27,0,0,1,2.31.86,3.21,3.21,0,0,1,.93,2.48,7.38,7.38,0,0,1-1.9,4.41Q496.48,132.14,494.3,132.13Z"/><path class="cls-1" d="M496.85,154.17v-1.12q12-12.62,16.47-17.67c.68-3.8,2.32-5.71,4.92-5.71a4.71,4.71,0,0,1,2.08.56l.28.88a5.33,5.33,0,0,0-.19,1.58,14.83,14.83,0,0,0,.68,3.27c.44,1.59.79,2.93,1,4a16.39,16.39,0,0,1,.37,3.67,13,13,0,0,1-1.39,5.86,20,20,0,0,1-4,5.39,44.54,44.54,0,0,1-6.82,5.26,16.45,16.45,0,0,0,2.64.28,10.5,10.5,0,0,0,4.11-1,26.9,26.9,0,0,0,4.49-2.55c1.54-1.07,3.32-2.45,5.36-4.16v3.11a68.89,68.89,0,0,1-10.62,8.79c-3.12,2-5.81,3-8.07,3A11.22,11.22,0,0,1,500.1,164a9.93,9.93,0,0,1-2.72-4.26A23,23,0,0,1,496.85,154.17Zm17.3-7.1-.83-6.77q-2.88,3.24-12.29,12.47a7.93,7.93,0,0,1,3.8,1.63,25.06,25.06,0,0,1,2.87,3.94,11.17,11.17,0,0,0,4.85-3.55,10,10,0,0,0,1.69-6.14c0-.31,0-.59,0-.84S514.18,147.32,514.15,147.07Z"/><path class="cls-1" d="M534.1,154.54v1.16a6.27,6.27,0,0,0,1.34,4.26A4.46,4.46,0,0,0,539,161.5a11.78,11.78,0,0,0,4.71-1.07,25.79,25.79,0,0,0,4.84-2.83c1.61-1.18,3.58-2.75,5.9-4.73v2.83a58,58,0,0,1-9.84,9.67,15.67,15.67,0,0,1-9.32,3.36,7.77,7.77,0,0,1-6.54-3.2c-1.61-2.13-2.41-5.06-2.41-8.77a17.39,17.39,0,0,1,2.27-8.83,33.44,33.44,0,0,1,7.42-8.38,28.76,28.76,0,0,1,7-4.54,15.75,15.75,0,0,1,6.22-1.53,5.46,5.46,0,0,1,3.46,1,3.55,3.55,0,0,1,1.27,3,9.59,9.59,0,0,1-2.18,5.82,25.13,25.13,0,0,1-6.65,5.75A69.23,69.23,0,0,1,534.1,154.54Zm.46-3a26.51,26.51,0,0,0,7.15-4,20.68,20.68,0,0,0,4.38-4.62,7.27,7.27,0,0,0,1.41-3.22c0-.71-.32-1.07-1-1.07a6.66,6.66,0,0,0-2.71,1.07,22.51,22.51,0,0,0-3.81,2.78,20.36,20.36,0,0,0-3.45,4A13,13,0,0,0,534.56,151.52Z"/><path class="cls-1" d="M629.1,154.07a11.93,11.93,0,0,0-3.48-3.85,20.61,20.61,0,0,0-5.22-2.76,34.17,34.17,0,0,0-6-1.55,49,49,0,0,1-17.49-6.08,4.51,4.51,0,0,1-1.48-1.57,4.25,4.25,0,0,1-.79-2.32,25.59,25.59,0,0,1,1.37-8.19,17.5,17.5,0,0,1,3.5-6.43q3.43-3.84,12.36-6.72a65.37,65.37,0,0,1,20.11-2.88,40.31,40.31,0,0,1,10.32,1c2.43.68,3.64,1.74,3.64,3.16a12.35,12.35,0,0,1-.95,5.38,5.84,5.84,0,0,1-2,2.53,33.07,33.07,0,0,1-3.83,1.69,37.68,37.68,0,0,0-8.76,4.27,6,6,0,0,1-1.91,1c-.31,0-.46-.13-.46-.37,0-.53.55-1.33,1.65-2.39a16,16,0,0,1,4.06-2.81c1.7-.9,2.55-1.47,2.55-1.72,0-.4-1-.6-2.83-.6a77.29,77.29,0,0,0-15.87,1.53,38,38,0,0,0-11.48,4q-4.2,2.5-4.2,5.1a2.36,2.36,0,0,0,1.74,2.3q1.74.67,7.68,2.25a74.32,74.32,0,0,1,10.62,3.61,33.88,33.88,0,0,1,10,6,9.45,9.45,0,0,1,3.24,7,12.23,12.23,0,0,1-1.27,5.31,15.74,15.74,0,0,1-3.74,4.89,21.29,21.29,0,0,1-5.66,3.67,46.65,46.65,0,0,1-6.88,2.18,76.08,76.08,0,0,1-9,1.6,79.61,79.61,0,0,1-9.26.58,45.45,45.45,0,0,1-13.06-1.53q-4.94-1.53-4.94-4.64a10.44,10.44,0,0,1,1.67-4.34,9,9,0,0,1,3.95-4,12.83,12.83,0,0,1,3.85-.9c1.23-.08,1.85.07,1.85.44a.38.38,0,0,1-.14.28,1.24,1.24,0,0,1-.32.23l-.37.19-1.51.58a4.64,4.64,0,0,0-.93.41.66.66,0,0,0-.35.58q0,1,9.61,1a124,124,0,0,0,13.68-.61,37.49,37.49,0,0,0,9.42-2.18A26.26,26.26,0,0,0,629.1,154.07Z"/><path class="cls-1" d="M649.88,154.54v1.16a6.22,6.22,0,0,0,1.35,4.26,4.43,4.43,0,0,0,3.52,1.54,11.75,11.75,0,0,0,4.71-1.07,26.18,26.18,0,0,0,4.85-2.83c1.6-1.18,3.57-2.75,5.89-4.73v2.83a58,58,0,0,1-9.84,9.67,15.67,15.67,0,0,1-9.32,3.36,7.77,7.77,0,0,1-6.54-3.2c-1.61-2.13-2.41-5.06-2.41-8.77a17.39,17.39,0,0,1,2.27-8.83,33.44,33.44,0,0,1,7.42-8.38,28.62,28.62,0,0,1,7-4.54,15.71,15.71,0,0,1,6.21-1.53,5.46,5.46,0,0,1,3.46,1,3.55,3.55,0,0,1,1.27,3,9.59,9.59,0,0,1-2.18,5.82A25.13,25.13,0,0,1,660.9,149,69.23,69.23,0,0,1,649.88,154.54Zm.46-3a26.51,26.51,0,0,0,7.15-4,20.45,20.45,0,0,0,4.38-4.62,7.32,7.32,0,0,0,1.42-3.22c0-.71-.33-1.07-1-1.07a6.66,6.66,0,0,0-2.71,1.07,22.91,22.91,0,0,0-3.81,2.78,20.36,20.36,0,0,0-3.45,4A13,13,0,0,0,650.34,151.52Z"/><path class="cls-1" d="M686.48,128.79h2a26.15,26.15,0,0,1,4.46-6.24,6.53,6.53,0,0,1,4.54-1.83c1.7,0,2.55.39,2.55,1.16,0,.37-.66,1.38-2,3a40.7,40.7,0,0,0-3,4.12l2.81.33,1.93.23a74.06,74.06,0,0,1-6.64,10.07l-2.18-.16-1.78-.14-2.21-.17q-2.51,4-4.2,7.22a40.55,40.55,0,0,0-2.59,5.82,15.3,15.3,0,0,0-.91,5c0,2.13.85,3.2,2.55,3.2a9.26,9.26,0,0,0,4.62-1.88q2.85-1.87,7.63-5.78v3.11q-12.52,13.59-18.51,13.59a4.07,4.07,0,0,1-3.36-1.62,6.54,6.54,0,0,1-1.28-4.17,14.39,14.39,0,0,1,.72-4.09q.72-2.35,2.58-7.14c-.44.37-.85.73-1.23,1.09l-1.07,1c-.32.3-.67.61-1,.93l-1.12,1v-3.2q4.88-4.08,11.79-14.34l-1.3-.06c-.41,0-.88,0-1.44,0a16.85,16.85,0,0,0-4.08.37c-.37.1-.72.2-1.05.31a3,3,0,0,1-.67.16c-.12,0-.19-.1-.19-.28q0-1.53,1.91-4.59a16.62,16.62,0,0,1,2.9-3.85,7.14,7.14,0,0,1,3.34-1.7A27.07,27.07,0,0,1,686.48,128.79Z"/><path class="cls-1" d="M710.23,128.79h2a26.15,26.15,0,0,1,4.46-6.24,6.53,6.53,0,0,1,4.54-1.83c1.7,0,2.55.39,2.55,1.16,0,.37-.66,1.38-2,3a40.7,40.7,0,0,0-3,4.12l2.81.33,1.93.23a74.06,74.06,0,0,1-6.64,10.07l-2.18-.16-1.78-.14-2.21-.17q-2.51,4-4.2,7.22a40.55,40.55,0,0,0-2.59,5.82,15.3,15.3,0,0,0-.91,5c0,2.13.85,3.2,2.55,3.2a9.26,9.26,0,0,0,4.62-1.88q2.85-1.87,7.63-5.78v3.11q-12.52,13.59-18.51,13.59a4.07,4.07,0,0,1-3.36-1.62,6.54,6.54,0,0,1-1.28-4.17,14.39,14.39,0,0,1,.72-4.09q.72-2.35,2.58-7.14c-.44.37-.85.73-1.23,1.09l-1.07,1c-.32.3-.67.61-1,.93l-1.12,1v-3.2q4.88-4.08,11.79-14.34l-1.3-.06c-.41,0-.88,0-1.44,0a16.85,16.85,0,0,0-4.08.37c-.37.1-.72.2-1.05.31a3,3,0,0,1-.67.16c-.12,0-.19-.1-.19-.28q0-1.53,1.91-4.59a16.62,16.62,0,0,1,2.9-3.85,7.14,7.14,0,0,1,3.34-1.7A27.07,27.07,0,0,1,710.23,128.79Z"/><path class="cls-1" d="M717.23,156.44v-3a45.58,45.58,0,0,0,3.81-5,5.19,5.19,0,0,1-2.16-1.25,3.23,3.23,0,0,1-.67-2.23,9.36,9.36,0,0,1,1.39-4.22,24.24,24.24,0,0,1,3.43-4.78,10.94,10.94,0,0,1,3.71-2.88,2.9,2.9,0,0,1,1.25-.32c.62,0,.93.29.93.88a8.77,8.77,0,0,1-1.44,3.2,109.89,109.89,0,0,1,12.06-1.48,3.44,3.44,0,0,1,1.35.18,3.25,3.25,0,0,1,1.3,1.95,9.63,9.63,0,0,1,.51,3.06,3.59,3.59,0,0,1-.86,2.11,40.58,40.58,0,0,1-2.94,3.32,27.44,27.44,0,0,0-4.13,5.75,11.26,11.26,0,0,0-1.67,4.69c0,1.45.89,2.18,2.69,2.18s5.16-1.92,9.83-5.76v3.11q-3.86,4-6.35,6.36a35.41,35.41,0,0,1-4.64,3.69,7.27,7.27,0,0,1-3.81,1.36,3.87,3.87,0,0,1-3.24-1.78,8.69,8.69,0,0,1-1.3-5.17,12.47,12.47,0,0,1,1-4.55,31.65,31.65,0,0,1,3-5.54,68.43,68.43,0,0,1,4.43-6l-2.92.58-3.43.62-2.79.51A33.39,33.39,0,0,1,717.23,156.44Z"/><path class="cls-1" d="M767.28,149.71q-6.72,8.91-10.22,12.67t-5.73,3.75a4.53,4.53,0,0,1-3.25-1.46,9.7,9.7,0,0,1-2.3-3.94,17,17,0,0,1-.81-5.31,14.76,14.76,0,0,1,.35-3.34,13.17,13.17,0,0,1,1.32-3.27,30.15,30.15,0,0,1,2.58-3.87c1.06-1.4,2.37-3,3.92-4.74l2.34-2.73a5.28,5.28,0,0,1,1.85-1.51,8.1,8.1,0,0,1,2.95-.39,10.13,10.13,0,0,1,2.83.39c.9.26,1.34.53,1.34.81a7.46,7.46,0,0,1-1.36,3,35.79,35.79,0,0,1-4.41,5.31,61.2,61.2,0,0,1-7,6.14,14.91,14.91,0,0,0-.88,4.18c0,1.33.51,2,1.53,2a4,4,0,0,0,1.86-.95q1.29-.94,4.38-3.66c2.06-1.81,3.9-3.41,5.54-4.8a32.09,32.09,0,0,0,4.2-4.71,59.07,59.07,0,0,1,3.88-4.71q3.42-3.62,4.68-4.71a3.78,3.78,0,0,1,2.41-1.09,1.57,1.57,0,0,1,1.51.7,6.68,6.68,0,0,1,.39,2.83,5.59,5.59,0,0,1-.18,1.57,7.56,7.56,0,0,1-.77,1.56c-.38.63-1.16,1.8-2.34,3.5l-4.17,6a23.79,23.79,0,0,0-2.28,4.06,9.2,9.2,0,0,0-1,3.32c0,1.6.63,2.41,1.9,2.41a7.16,7.16,0,0,0,3.66-1.3c1.4-.87,3.53-2.43,6.41-4.69v3.11q-5.43,5-8,7.29a34.12,34.12,0,0,1-4.5,3.43,7,7,0,0,1-3.62,1.16q-3.88,0-3.89-4.64a14,14,0,0,1,1.16-4.76Q764.69,155.38,767.28,149.71Z"/><path class="cls-1" d="M781.43,156.76v-3.24q6.5-7.05,11.2-13.27t7.45-9.88a24.57,24.57,0,0,1,4.82-5.17,8.72,8.72,0,0,1,5.25-1.51c1.05,0,1.57.4,1.57,1.21a6,6,0,0,1-1.27,2.87,26.21,26.21,0,0,1-3.27,3.9,37.5,37.5,0,0,0-5.18,6.52q-2.52,3.92-5.72,10c1.67-1.3,3.59-2.83,5.77-4.61s4-3.17,5.34-4.18a21.72,21.72,0,0,1,4.08-2.39,10.18,10.18,0,0,1,4.06-.88,2.23,2.23,0,0,1,1.69.47,3,3,0,0,1,.39,1.8,15,15,0,0,1-1.71,6.89,34.3,34.3,0,0,1-4.92,7,100.81,100.81,0,0,1-7.89,7.89,9.61,9.61,0,0,0,3.34.6q5.39,0,14.43-8.21v3.34c-2.35,2.11-4.65,4.08-6.89,5.94a42.93,42.93,0,0,1-6.33,4.45,11.23,11.23,0,0,1-5.47,1.67,9.94,9.94,0,0,1-2-.21,12.6,12.6,0,0,1-1.93-.51c-.59-.2-1.34-.48-2.27-.85s-1.64-.64-2.14-.79a14.23,14.23,0,0,1-1.67.37,7.67,7.67,0,0,1-3.8-1.3,82.33,82.33,0,0,0-3.36,7.68c-1.22,3.14-2.25,5.63-3.09,7.49a23.89,23.89,0,0,1-3.34,5.33c-.77.78-1.31,1.16-1.62,1.16-1.33,0-2-1.17-2-3.52a18.54,18.54,0,0,1,1.22-6.38,37.55,37.55,0,0,1,3-6.29q1.78-3,3.92-6c1.42-2,2.43-3.54,3-4.53q7.33-12.61,11.42-21.47Q786.9,151.11,781.43,156.76ZM800.27,159a65,65,0,0,0,6.84-8.21q2.25-3.39,2.25-5.2a1.53,1.53,0,0,0-1.72-1.72q-2.32,0-6.52,3.83a59.45,59.45,0,0,0-8.65,10.32,28,28,0,0,1,4.6-.25A9.13,9.13,0,0,1,800.27,159Z"/></svg>
