<svg id="Layer_1" data-name="Layer 1" xmlns="http://www.w3.org/2000/svg" xmlns:xlink="http://www.w3.org/1999/xlink" viewBox="0 0 100 100"><defs><style>.cls-1{fill:#fff;}.cls-2{fill:#727372;}.cls-3,.cls-7{fill:#1e1e1c;}.cls-3,.cls-4{stroke:#010101;stroke-miterlimit:10;}.cls-4{fill:#858685;}.cls-5{fill:#919292;}.cls-6{fill:#494a49;}.cls-8{fill:#eb7969;}.cls-9{fill:#e25750;}.cls-10{isolation:isolate;}.cls-11{fill:#010101;}.cls-12{fill:url(#linear-gradient);}.cls-13{fill:url(#linear-gradient-2);}.cls-14{fill:url(#linear-gradient-3);}.cls-15{fill:url(#linear-gradient-4);}.cls-16{fill:url(#linear-gradient-5);}.cls-17{fill:url(#linear-gradient-6);}.cls-18{fill:url(#linear-gradient-7);}.cls-19{fill:url(#linear-gradient-8);}.cls-20{fill:url(#linear-gradient-9);}.cls-21{fill:url(#linear-gradient-10);}.cls-22{fill:url(#linear-gradient-11);}.cls-23{fill:#23679c;}.cls-24{fill:#204c71;}.cls-25{fill:url(#linear-gradient-12);}.cls-26{fill:url(#linear-gradient-13);}.cls-27{fill:url(#linear-gradient-14);}.cls-28{fill:url(#linear-gradient-15);}.cls-29{fill:url(#linear-gradient-16);}.cls-30{fill:url(#linear-gradient-17);}.cls-31{fill:url(#linear-gradient-18);}.cls-32{fill:url(#linear-gradient-19);}.cls-33{fill:#a67d52;}</style><linearGradient id="linear-gradient" x1="36.33" y1="6493.69" x2="53.98" y2="6493.69" gradientTransform="translate(0 -6453.3)" gradientUnits="userSpaceOnUse"><stop offset="0" stop-color="#f5c77a"/><stop offset="0.36" stop-color="#e9b470"/><stop offset="1" stop-color="#d58b5b"/></linearGradient><linearGradient id="linear-gradient-2" x1="38.81" y1="6492.38" x2="48.2" y2="6492.38" gradientTransform="translate(0 -6453.3)" gradientUnits="userSpaceOnUse"><stop offset="0" stop-color="#e29971"/><stop offset="1" stop-color="#d39974"/></linearGradient><linearGradient id="linear-gradient-3" x1="48.67" y1="6501.97" x2="30.69" y2="6501.97" gradientTransform="translate(0 -6453.3)" gradientUnits="userSpaceOnUse"><stop offset="0" stop-color="#de966e"/><stop offset="0.6" stop-color="#df9881"/><stop offset="1" stop-color="#e19b91"/></linearGradient><linearGradient id="linear-gradient-4" x1="35" y1="6490.55" x2="41.3" y2="6490.55" gradientTransform="translate(0 -6453.3)" gradientUnits="userSpaceOnUse"><stop offset="0" stop-color="#e39a91"/><stop offset="0.06" stop-color="#de9989"/><stop offset="0.21" stop-color="#d7997d"/><stop offset="0.42" stop-color="#d39976"/><stop offset="1" stop-color="#d39974"/></linearGradient><linearGradient id="linear-gradient-5" x1="32.53" y1="6504.08" x2="39.18" y2="6504.08" gradientTransform="translate(0 -6453.3)" gradientUnits="userSpaceOnUse"><stop offset="0" stop-color="#cb7461"/><stop offset="0.02" stop-color="#cc7564"/><stop offset="0.18" stop-color="#cf7a6f"/><stop offset="0.4" stop-color="#d27c76"/><stop offset="1" stop-color="#d47f79"/></linearGradient><linearGradient id="linear-gradient-6" x1="26.54" y1="6495.27" x2="37.41" y2="6495.27" xlink:href="#linear-gradient"/><linearGradient id="linear-gradient-7" x1="36.4" y1="6486.07" x2="41.88" y2="6486.07" xlink:href="#linear-gradient"/><linearGradient id="linear-gradient-8" x1="39.83" y1="6501.68" x2="45.99" y2="6501.68" gradientTransform="translate(0 -6453.3)" gradientUnits="userSpaceOnUse"><stop offset="0" stop-color="#cc7a61"/><stop offset="0.02" stop-color="#cc7a63"/><stop offset="0.18" stop-color="#cf7c6f"/><stop offset="0.4" stop-color="#d27e77"/><stop offset="1" stop-color="#d47f79"/></linearGradient><linearGradient id="linear-gradient-9" x1="40.95" y1="6510.1" x2="41.31" y2="6510.1" gradientTransform="translate(0 -6453.3)" gradientUnits="userSpaceOnUse"><stop offset="0" stop-color="#cb6062"/><stop offset="0.07" stop-color="#cd6968"/><stop offset="0.22" stop-color="#d17471"/><stop offset="0.42" stop-color="#d27c77"/><stop offset="1" stop-color="#d47f79"/></linearGradient><linearGradient id="linear-gradient-10" x1="34.3" y1="6505.82" x2="35.67" y2="6505.82" gradientTransform="translate(0 -6453.3)" gradientUnits="userSpaceOnUse"><stop offset="0" stop-color="#cb7f61"/><stop offset="0.02" stop-color="#cc7f64"/><stop offset="0.18" stop-color="#d17e70"/><stop offset="0.4" stop-color="#d27e77"/><stop offset="1" stop-color="#d47f79"/></linearGradient><linearGradient id="linear-gradient-11" x1="44.56" y1="6503.23" x2="45.39" y2="6503.23" gradientTransform="translate(0 -6453.3)" gradientUnits="userSpaceOnUse"><stop offset="0" stop-color="#cb7761"/><stop offset="0.02" stop-color="#cc7864"/><stop offset="0.18" stop-color="#cf7b6f"/><stop offset="0.4" stop-color="#d27e77"/><stop offset="1" stop-color="#d47f79"/></linearGradient><linearGradient id="linear-gradient-12" x1="60.65" y1="606.09" x2="70.02" y2="606.26" gradientTransform="translate(0 -549.93)" gradientUnits="userSpaceOnUse"><stop offset="0" stop-color="#d3a367"/><stop offset="0.28" stop-color="#cc9d64"/><stop offset="0.68" stop-color="#bb8e5c"/><stop offset="1" stop-color="#a67d52"/></linearGradient><linearGradient id="linear-gradient-13" x1="65.33" y1="606.46" x2="65.33" y2="607.57" xlink:href="#linear-gradient-12"/><linearGradient id="linear-gradient-14" x1="65.02" y1="607.04" x2="65.63" y2="607.05" xlink:href="#linear-gradient-12"/><linearGradient id="linear-gradient-15" x1="65.04" y1="607.54" x2="65.62" y2="607.55" gradientTransform="translate(0 -549.93)" gradientUnits="userSpaceOnUse"><stop offset="0" stop-color="#e9a267"/><stop offset="0.24" stop-color="#e89c64"/><stop offset="0.58" stop-color="#e28959"/><stop offset="0.76" stop-color="#df7d52"/></linearGradient><linearGradient id="linear-gradient-16" x1="65.04" y1="607.71" x2="65.62" y2="607.72" gradientTransform="translate(0 -549.93)" gradientUnits="userSpaceOnUse"><stop offset="0" stop-color="#d48768"/><stop offset="0.28" stop-color="#cd8665"/><stop offset="0.68" stop-color="#ba805b"/><stop offset="1" stop-color="#a67d52"/></linearGradient><linearGradient id="linear-gradient-17" x1="65.3" y1="607.97" x2="65.36" y2="607.97" gradientTransform="translate(0 -549.93)" gradientUnits="userSpaceOnUse"><stop offset="0" stop-color="#e26768"/><stop offset="0.23" stop-color="#db6666"/><stop offset="0.56" stop-color="#ca625f"/><stop offset="0.95" stop-color="#ab5e55"/><stop offset="1" stop-color="#a65d53"/></linearGradient><linearGradient id="linear-gradient-18" x1="63.98" y1="596.81" x2="66.69" y2="596.85" gradientTransform="translate(0 -549.93)" gradientUnits="userSpaceOnUse"><stop offset="0" stop-color="#544842"/><stop offset="0.25" stop-color="#52423a"/><stop offset="0.6" stop-color="#4b3529"/><stop offset="1" stop-color="#412413"/></linearGradient><linearGradient id="linear-gradient-19" x1="63.93" y1="594.8" x2="66.82" y2="594.85" xlink:href="#linear-gradient-18"/></defs><title>projektsex</title><rect class="cls-1" x="-9.79" y="-5.93" width="117.99" height="115.63"/><path class="cls-2" d="M62.22,20.25h0a.21.21,0,0,1,.21.21h0V27a.21.21,0,0,1-.21.21h0A.2.2,0,0,1,62,27h0V20.46a.2.2,0,0,1,.2-.21Z"/><path class="cls-2" d="M25.24,5.49H54.8A7.21,7.21,0,0,1,62,12.7h0V86.91a7.22,7.22,0,0,1-7.22,7.22H25.24A7.21,7.21,0,0,1,18,86.91V12.7A7.21,7.21,0,0,1,25.24,5.49Z"/><path class="cls-3" d="M25.22,6.5H54.88a6,6,0,0,1,6,6h0V87a6,6,0,0,1-6,6H25.22a6,6,0,0,1-6-6h0V12.51a6,6,0,0,1,6-6Z"/><rect class="cls-4" x="21.51" y="16.39" width="37.08" height="64.9"/><polygon class="cls-5" points="21.6 16.52 58.46 74.69 58.46 16.52 21.6 16.52"/><rect class="cls-6" x="36.84" y="10.94" width="6.86" height="0.94" rx="0.47"/><circle class="cls-6" cx="40.28" cy="9.11" r="0.54"/><circle class="cls-6" cx="32.81" cy="11.4" r="0.86"/><circle class="cls-2" cx="39.74" cy="87.11" r="3.27"/><circle class="cls-7" cx="39.74" cy="87.11" r="2.76"/><path class="cls-2" d="M17.82,16.78h0A.21.21,0,0,1,18,17V20a.21.21,0,0,1-.21.21h0a.21.21,0,0,1-.21-.21V17A.21.21,0,0,1,17.82,16.78Z"/><path class="cls-2" d="M17.82,24.9h0a.22.22,0,0,1,.21.21v5.45a.22.22,0,0,1-.21.21h0a.22.22,0,0,1-.21-.21V25.11A.22.22,0,0,1,17.82,24.9Z"/><path class="cls-2" d="M17.82,32.62h0a.22.22,0,0,1,.21.21v5.45a.21.21,0,0,1-.21.2h0a.21.21,0,0,1-.21-.2V32.83A.22.22,0,0,1,17.82,32.62Z"/><rect class="cls-1" x="21.74" y="25.93" width="36.53" height="46.73"/><rect class="cls-8" x="25.18" y="29.1" width="29.8" height="31.58"/><polygon class="cls-9" points="25.18 29.1 54.98 53.54 54.98 29.1 25.18 29.1"/><g class="cls-10"><path class="cls-11" d="M26.81,66.35v.74h-.69L26,68.28h-.86l.16-1.19h-.56l-.15,1.19h-.85l.16-1.19h-.59v-.74H24L24,65.8h-.58v-.74h.68l.14-1.1h.84L25,65.06h.56l.14-1.1h.85l-.14,1.1H27v.74h-.67l-.08.55Zm-1.38-.55h-.55l-.08.55h.56Z"/><path class="cls-11" d="M29.73,66.1a1.21,1.21,0,0,0-.56-.15.41.41,0,0,0-.23.06.16.16,0,0,0-.09.15.19.19,0,0,0,0,.08.17.17,0,0,0,.06.06.38.38,0,0,0,.14,0l.25.06a1.17,1.17,0,0,1,.64.31.78.78,0,0,1,.21.56,1,1,0,0,1-.1.47.94.94,0,0,1-.29.34,1.14,1.14,0,0,1-.44.22,2,2,0,0,1-.56.08,2.38,2.38,0,0,1-1.18-.34l.38-.73a1.54,1.54,0,0,0,.83.29.41.41,0,0,0,.23-.06.18.18,0,0,0,.09-.16.22.22,0,0,0,0-.09.13.13,0,0,0-.06-.07l-.14-.06-.23,0a1.35,1.35,0,0,1-.67-.29.72.72,0,0,1-.19-.53,1.1,1.1,0,0,1,.09-.45.93.93,0,0,1,.26-.33,1.27,1.27,0,0,1,.42-.21,1.8,1.8,0,0,1,.54-.08,2.54,2.54,0,0,1,.94.19Z"/><path class="cls-11" d="M31.07,65.34h1v.36a1.33,1.33,0,0,1,.95-.4,1.1,1.1,0,0,1,1,.55,1.1,1.1,0,0,1,1-.56,1.23,1.23,0,0,1,.39.06.74.74,0,0,1,.32.19.85.85,0,0,1,.21.33,1.5,1.5,0,0,1,.08.5v1.91H35V66.83a1.9,1.9,0,0,0,0-.37.56.56,0,0,0-.09-.22.36.36,0,0,0-.14-.11.57.57,0,0,0-.18,0c-.33,0-.49.25-.49.73v1.45H33V66.83a1.9,1.9,0,0,0,0-.37.87.87,0,0,0-.08-.23.27.27,0,0,0-.14-.12.64.64,0,0,0-.2,0,.58.58,0,0,0-.19,0,.48.48,0,0,0-.15.11.61.61,0,0,0-.1.23,1.34,1.34,0,0,0,0,.38v1.45h-1Z"/><path class="cls-11" d="M37,66.78a1.42,1.42,0,0,1,.13-.61,1.59,1.59,0,0,1,.37-.49,1.68,1.68,0,0,1,.55-.33,2,2,0,0,1,.71-.12,2,2,0,0,1,.7.12,1.73,1.73,0,0,1,.56.33,1.48,1.48,0,0,1,.37.49,1.53,1.53,0,0,1,.13.64,1.47,1.47,0,0,1-.13.64A1.52,1.52,0,0,1,40,68a1.55,1.55,0,0,1-.56.32,2.09,2.09,0,0,1-.72.12,2,2,0,0,1-.7-.12,1.59,1.59,0,0,1-.55-.32,1.68,1.68,0,0,1-.36-.51A1.59,1.59,0,0,1,37,66.78Zm1.09,0a.63.63,0,0,0,.06.27.6.6,0,0,0,.14.21.8.8,0,0,0,.21.15.7.7,0,0,0,.52,0,.78.78,0,0,0,.36-.36.76.76,0,0,0,0-.27.75.75,0,0,0,0-.26.78.78,0,0,0-.36-.36.7.7,0,0,0-.52,0,.8.8,0,0,0-.21.15.6.6,0,0,0-.14.21A.55.55,0,0,0,38.09,66.8Z"/><path class="cls-11" d="M42.52,63.53V66.4l1.09-1.06H45L43.56,66.7l1.55,1.58H43.66l-1.14-1.2v1.2h-1V63.53Z"/><path class="cls-11" d="M45.78,64.21a.54.54,0,0,1,0-.22A.8.8,0,0,1,46,63.8a.62.62,0,0,1,.19-.12.54.54,0,0,1,.22,0,.59.59,0,0,1,.23,0,.57.57,0,0,1,.18.12.59.59,0,0,1,.13.19.54.54,0,0,1,.05.22.59.59,0,0,1-.05.23.59.59,0,0,1-.13.19.57.57,0,0,1-.18.12.59.59,0,0,1-.23,0,.54.54,0,0,1-.22,0,.62.62,0,0,1-.19-.12.8.8,0,0,1-.13-.19A.59.59,0,0,1,45.78,64.21Zm1.1,1.13v2.94h-1V65.34Z"/><path class="cls-11" d="M48,65.34h1v.37a1.09,1.09,0,0,1,.43-.34,1.29,1.29,0,0,1,.51-.09,1.18,1.18,0,0,1,.52.1,1.08,1.08,0,0,1,.38.28A.87.87,0,0,1,51,66a1.86,1.86,0,0,1,.05.42v1.87H50V66.8a1.73,1.73,0,0,0,0-.36.42.42,0,0,0-.11-.21.39.39,0,0,0-.16-.1.48.48,0,0,0-.18,0,.53.53,0,0,0-.4.16.62.62,0,0,0-.14.45v1.57H48Z"/><path class="cls-11" d="M55.41,65.34v2.74a2.94,2.94,0,0,1,0,.44,1.13,1.13,0,0,1-.08.34.84.84,0,0,1-.21.35,1.42,1.42,0,0,1-.35.29,2,2,0,0,1-.47.19,2.47,2.47,0,0,1-.56.06,2.09,2.09,0,0,1-.63-.08,1.79,1.79,0,0,1-.5-.24,1.5,1.5,0,0,1-.36-.35,1.25,1.25,0,0,1-.18-.45h1.17a.46.46,0,0,0,.49.29.65.65,0,0,0,.5-.18.69.69,0,0,0,.18-.51V68l-.22.18a1.19,1.19,0,0,1-.22.12l-.23.07-.26,0a1.58,1.58,0,0,1-.58-.11,1.44,1.44,0,0,1-.45-.31,1.31,1.31,0,0,1-.3-.46,1.7,1.7,0,0,1-.11-.61,1.59,1.59,0,0,1,.12-.62,1.55,1.55,0,0,1,.31-.51,1.62,1.62,0,0,1,.47-.34,1.45,1.45,0,0,1,.59-.12,1.15,1.15,0,0,1,.88.39v-.31ZM53.09,66.8a.75.75,0,0,0,0,.26.64.64,0,0,0,.14.22.6.6,0,0,0,.21.14.81.81,0,0,0,.27,0,.75.75,0,0,0,.26,0,.6.6,0,0,0,.21-.14.64.64,0,0,0,.14-.22.59.59,0,0,0,0-.52.6.6,0,0,0-.14-.21.71.71,0,0,0-.22-.15.7.7,0,0,0-.25-.05.58.58,0,0,0-.26.06.6.6,0,0,0-.21.14.8.8,0,0,0-.15.21A.71.71,0,0,0,53.09,66.8Z"/></g><path class="cls-12" d="M36.4,32.69c.13-.11.44-.08.89,0a3.06,3.06,0,0,0,.77.08,2.05,2.05,0,0,0,.73-.31c.39-.21.38-.26.66-.38a3.61,3.61,0,0,1,.77-.24,1.83,1.83,0,0,1,.69-.07,2.71,2.71,0,0,1,.41.09l.21.06c.3.09.35.1.35.12a2,2,0,0,0-.77.07,2,2,0,0,0-.39.24c-.32.21-.65.45-.62.54s.65-.05,1.08-.16a4.92,4.92,0,0,0,1.12-.38A2.87,2.87,0,0,0,43,31.8a2.16,2.16,0,0,0,.42-.57c.16-.35.15-.62.19-.62a1.43,1.43,0,0,1,0,.77,2.56,2.56,0,0,1-.31.93,3.35,3.35,0,0,1-.42.57,3,3,0,0,1-.5.5c-.35.26-.59.28-.58.39s.22.15.65.31c.25.09.49.21.74.31.63.25,1,.45,1.93.85s.82.33,2.43,1l1.54.65a21.34,21.34,0,0,1,2.7,1.28,4.43,4.43,0,0,1,1.77,1.77,3.79,3.79,0,0,1,.19,2.62,4.25,4.25,0,0,1-1.35,2.12,7.11,7.11,0,0,1-2,1.24c-.82.37-1.15.36-1.62.81A2.44,2.44,0,0,0,48.17,48a1.5,1.5,0,0,0,0,1c.24.46.72.51.7.73s-.6.39-.89.43A1.81,1.81,0,0,1,47,50a1.94,1.94,0,0,1-.81-.69c-.85-1.16-1-2.27-1.58-3.12-.75-1-1.41-.56-3.2-1.78A7.66,7.66,0,0,1,39,42c-1.08-1.85-.08-2.67-.92-5.29C37.34,34.6,36,33,36.4,32.69Z"/><path class="cls-13" d="M40.14,43.26c.25-.21.42-.13.81-.39A3,3,0,0,0,42,41.25c.48-1.15.72-.87,1.82-2.7a10,10,0,0,0,1.38-3,12.32,12.32,0,0,1-1.46,1.73L43,38a4.79,4.79,0,0,0-.62.58c-.25.35-.17.56-.34,1.27s-.29,1.18-.66,1.47a2.1,2.1,0,0,1-1,.31c-.67.12-1,.19-1.28,0S38.77,40.5,39,40c.26-.76.71-.81,1.58-1.85.17-.21.5-.72,1.16-1.74,1-1.55.87-1.42,1.27-2,.89-1.32,1-1.16,1.93-2.55.39-.57.89-1.06,1.23-1.66a2.16,2.16,0,0,1,.46-.54,1,1,0,0,1,.58-.27c.42,0,.7.5.77.62a2.5,2.5,0,0,1,.23,1.35c0,1,0,1.49,0,1.54,0,1.22,0,1.82-.11,2.59a15.52,15.52,0,0,1-.35,2c-.19.78-.28.87-.73,2.24-.88,2.63-.59,2.44-1,3.35a3.3,3.3,0,0,0-.5,1.51,8.86,8.86,0,0,0,.15,1.27,7.41,7.41,0,0,1,.12,1.2,2.19,2.19,0,0,1-.81,1.42c-1.15.83-3.83-.23-4.79-2.12C39.63,45.36,39.48,43.82,40.14,43.26Z"/><path class="cls-14" d="M48.24,58.45c-.5-.56-.43-.5-.57-.65a12.45,12.45,0,0,0-.89-.89,8.22,8.22,0,0,1-.7-.58,3.47,3.47,0,0,1-.61-.85,3.29,3.29,0,0,1-.23-1.54c0-.58.07-.51.23-2a12.11,12.11,0,0,1,.19-1.55c0-.16.08-.37.16-.81a2,2,0,0,0,0-.75,2.9,2.9,0,0,0,.08-1.06,3.16,3.16,0,0,0-.39-1.31,2.16,2.16,0,0,0-.54-.7,2.86,2.86,0,0,0-.84-.46,5.56,5.56,0,0,1-1-.38,2.44,2.44,0,0,1-.46-.39.29.29,0,0,0-.16-.07c-.43-.83-1.21-1.6-1.85-1.51-.35,0-.57.35-.84.23s-.37-.57-.47-1.12c0-.25,0-.2-.11-1,0-.18-.08-.61-.08-.61a5.5,5.5,0,0,1,.81-.27c.49-.12.67,0,.69-.12s-1.39-.6-2.89-1.62S36,36.65,35.36,36.82s-.89,1.29-1,1.62a4.52,4.52,0,0,0,.11,2,5.24,5.24,0,0,0,.39,1.27c.27.59.49.74.54,1.19a2.06,2.06,0,0,1-.2,1,3,3,0,0,1-.51.85,1.31,1.31,0,0,0-.49-.24,3.73,3.73,0,0,0-.65-.07c-.42-.06-.44-.13-.77-.16a1.61,1.61,0,0,0-.62,0,1.64,1.64,0,0,0-.58.35,2.58,2.58,0,0,0-.58.65,2.7,2.7,0,0,0-.27.66,2.66,2.66,0,0,0-.07.89,10.63,10.63,0,0,0,.38,2.16c.27.9.35,1,.69,2,.56,1.69.4,1.54.78,2.51.05.14.28.78.73,2.08a2.28,2.28,0,0,1,.15,1,3.14,3.14,0,0,1-.27.89c-.26.77-.39,1.15-.27,1.43.38.8,2.79.38,3-.08,0,0,.1-.19.19-.39s.11-.23.16-.34a1.38,1.38,0,0,0,0-.58,3.08,3.08,0,0,0-.16-.54c-.09-.25-.07-.26-.27-1-.25-1-.32-1.09-.54-1.93l-.17-.69.4.11.24,0,.19.2a3.19,3.19,0,0,1,.46.69,4.47,4.47,0,0,1,.35,1.16,4.56,4.56,0,0,1,.15,1,3.37,3.37,0,0,1-.15,1,3.79,3.79,0,0,1-.39.81c-.24.39-.34.41-.34.5,0,.51,2.74,1.57,6.17,1.59S48.7,59.46,48.67,59A4.81,4.81,0,0,0,48.24,58.45Z"/><path class="cls-15" d="M35.4,38.44a12.73,12.73,0,0,1,.46,1.5,6.11,6.11,0,0,0,1.55.93,13.77,13.77,0,0,0,1.58.3A2.12,2.12,0,0,0,40.34,41a3.5,3.5,0,0,0,.69-.81,6.66,6.66,0,0,0,.19-.69,2.76,2.76,0,0,0,0-1.2c0-.64,0-.54,0-.92A6.13,6.13,0,0,0,41,36.2c-.15-.45-.17-.32-.54-1.19a3.36,3.36,0,0,0-.42-.85,5.56,5.56,0,0,0-.46-.5c-.26-.26-.33-.32-.43-.31s-.15.13-.38.27a1.5,1.5,0,0,1-.51.15,1.41,1.41,0,0,1-.46,0,1.29,1.29,0,0,1-.54-.15l-.38-.27c-.14-.1-.16-.12-.2-.12s-.18.24-.38.58a4.17,4.17,0,0,1-.27.38,3.84,3.84,0,0,0-.46,1c-.28.95-.82,1.92-.31,2.5C35.28,37.83,34.76,37.76,35.4,38.44Z"/><path class="cls-16" d="M33.2,47.77a4,4,0,0,0-.31.58,4.37,4.37,0,0,0-.27,1.12,5,5,0,0,0-.07,1.23,4.09,4.09,0,0,0,.15.85,2.54,2.54,0,0,0,.46,1,3.27,3.27,0,0,0,.93.62,5.16,5.16,0,0,0,1,.5,2.64,2.64,0,0,0,1.5-.08,3.75,3.75,0,0,0,1-.54,2.71,2.71,0,0,0,.65-.54,3,3,0,0,0,.43-.73,4.56,4.56,0,0,0,.38-.93,3.09,3.09,0,0,0,.12-1A1.68,1.68,0,0,0,39,49.2s0,.39,0,1a4.43,4.43,0,0,1-.23,1.08,3,3,0,0,1-.46,1,3.93,3.93,0,0,1-1.39,1.08,2.32,2.32,0,0,1-1,.23,2.8,2.8,0,0,1-1.16-.27,3,3,0,0,1-1-.54,2.3,2.3,0,0,1-.65-.8,2.55,2.55,0,0,1-.23-.89,4.48,4.48,0,0,1,0-1A7.92,7.92,0,0,1,33,48.93C33.06,48.66,33.13,48.27,33.2,47.77Z"/><path class="cls-17" d="M37.14,32.73c0,.1-.11.27-.43.62s-.4.38-.5.61a1.09,1.09,0,0,0-.08.47,1.16,1.16,0,0,0,.24.57c.14.22.2.21.5.54a3.12,3.12,0,0,1,.34.47,1.37,1.37,0,0,1,.2.54,1.65,1.65,0,0,1,0,.31c0,.15-.11.39-.16.38s0-.24-.11-.5a1.28,1.28,0,0,0-.31-.35,4.06,4.06,0,0,0-.46-.3c-.32-.21-.36-.25-.39-.23s.17.5.35,1.31a5.27,5.27,0,0,1,.11.81,3,3,0,0,1,0,.73,2.78,2.78,0,0,1-.11.5,2.24,2.24,0,0,1-.43.73,2.5,2.5,0,0,1-.46.46,2.15,2.15,0,0,1-.5.35c-.45.22-1,.21-1,.12s.38-.09.77-.43a1.94,1.94,0,0,0,.5-.73c.17-.4.23-.86.15-.89s-.2.25-.5.77a1.82,1.82,0,0,0-.19.43,1.62,1.62,0,0,0,0,.62,3.16,3.16,0,0,0,.27.73,10.93,10.93,0,0,1,.5,1.08,2.62,2.62,0,0,1,.16.92,2.39,2.39,0,0,1-.16.74,2,2,0,0,1-.35.57,1.11,1.11,0,0,1-.38.35,1.32,1.32,0,0,1-.69,0,5.38,5.38,0,0,1-.7-.12c-.42-.08-.4-.1-.54-.11a1.83,1.83,0,0,0-.92.15c-.34.16-.51.39-.85.85s0,.56-.16.77a1,1,0,0,0,.12,1c.15.18.11,0,.85.35a3.13,3.13,0,0,1,.81.42,1.42,1.42,0,0,1,.46.81c.08.61-.43.84-.31,1.43.07.33.27.47.19.58s-.24.09-.92-.16a10.64,10.64,0,0,1-1.54-.69A16,16,0,0,1,29,49.5c-1.08-.82-1.41-2.06-1.93-4A7.63,7.63,0,0,1,26.61,42a5.79,5.79,0,0,1,1.31-2.77,2.74,2.74,0,0,1,1.7-1.2c.4,0,.63.1,1-.08s.4-.57.69-1.19a7.57,7.57,0,0,1,1.2-1.7,6.94,6.94,0,0,1,1.27-1.27A5.92,5.92,0,0,1,35.13,33a5.09,5.09,0,0,1,.92-.27C36.43,32.69,37.06,32.56,37.14,32.73Z"/><path class="cls-18" d="M36.67,33.31a1.32,1.32,0,0,0,.47.34,1.83,1.83,0,0,0,.69.2,1.56,1.56,0,0,0,.89-.16c.14-.07.13-.1.54-.5s.57-.52.69-.62a2.76,2.76,0,0,1,.58-.38A1.48,1.48,0,0,1,41,32c.34,0,.87,0,.89,0a3,3,0,0,0-.81-.23,2.6,2.6,0,0,0-.73-.08,3.19,3.19,0,0,0-.54,0,3.25,3.25,0,0,0-1,.38c-.61.3-.59.32-.92.46s-1.19,0-1.35,0c-.31.08-.08.31,0,.47A.7.7,0,0,0,36.67,33.31Z"/><path class="cls-19" d="M39.84,50.05a2.13,2.13,0,0,0,.54.73,2.81,2.81,0,0,0,.77.54,3.73,3.73,0,0,0,1.35.38,3.49,3.49,0,0,0,2.16-.42,2.55,2.55,0,0,0,1-.89A2.8,2.8,0,0,0,46,49a3.59,3.59,0,0,0-.16-1.58,2.26,2.26,0,0,0-.54-.92,2.37,2.37,0,0,0-.85-.54c-.2-.09-.31-.11-.92-.35a.87.87,0,0,1-.5-.35c-.08-.13-.1-.27-.12-.27a.57.57,0,0,0,0,.31.66.66,0,0,0,.19.27,1.62,1.62,0,0,0,.7.31,3.83,3.83,0,0,1,.92.42,2.33,2.33,0,0,1,.81.81,2.65,2.65,0,0,1,.27,1.24,3.16,3.16,0,0,1-.08,1.35,2.46,2.46,0,0,1-.61,1,2.76,2.76,0,0,1-1.39.73,3.68,3.68,0,0,1-1.81-.07A2.73,2.73,0,0,1,40.84,51a4.53,4.53,0,0,1-.62-.54C40,50.18,39.85,50,39.84,50.05Z"/><path class="cls-20" d="M41.11,56.49c-.06,0-.1.07-.12.11A.43.43,0,0,0,41,57c.08.13.25.2.31.15s0,0,0-.23,0-.21,0-.27S41.19,56.48,41.11,56.49Z"/><path class="cls-21" d="M34.4,52.55a.3.3,0,0,1-.08-.31c.1-.16.61,0,.89.08.12,0,.48.2.46.35s-.19.17-.31.19-.18,0-.62-.15C34.54,52.64,34.46,52.63,34.4,52.55Z"/><path class="cls-22" d="M44.81,50.51c.12,0,.22-.13.39-.39a.71.71,0,0,0,.19-.46c0-.12-.07-.3-.16-.31a.67.67,0,0,0-.53.31.58.58,0,0,0-.12.54A.32.32,0,0,0,44.81,50.51Z"/><path class="cls-2" d="M53.37,23.72h24a5.85,5.85,0,0,1,5.85,5.85h0V89.81a5.85,5.85,0,0,1-5.85,5.85h-24a5.85,5.85,0,0,1-5.85-5.85V29.57A5.85,5.85,0,0,1,53.37,23.72Z"/><path class="cls-3" d="M53.35,24.54H77.43a4.88,4.88,0,0,1,4.88,4.88h0V89.89a4.88,4.88,0,0,1-4.88,4.87H53.35a4.87,4.87,0,0,1-4.87-4.87h0V29.42a4.87,4.87,0,0,1,4.87-4.88Z"/><rect class="cls-4" x="50.34" y="32.57" width="30.1" height="52.67"/><polygon class="cls-5" points="50.42 32.67 80.34 79.88 80.34 32.67 50.42 32.67"/><rect class="cls-6" x="62.79" y="28.14" width="5.57" height="0.76" rx="0.38"/><circle class="cls-6" cx="65.57" cy="26.66" r="0.44"/><circle class="cls-6" cx="59.52" cy="28.52" r="0.7"/><circle class="cls-2" cx="65.14" cy="89.97" r="2.65"/><circle class="cls-7" cx="65.14" cy="89.97" r="2.24"/><path class="cls-2" d="M47.35,32.88h0a.18.18,0,0,1,.17.17v2.48a.18.18,0,0,1-.17.17h0a.18.18,0,0,1-.17-.17V33.05A.18.18,0,0,1,47.35,32.88Z"/><path class="cls-2" d="M47.35,39.48h0a.17.17,0,0,1,.17.17v4.42a.18.18,0,0,1-.17.17h0a.18.18,0,0,1-.17-.17V39.65A.17.17,0,0,1,47.35,39.48Z"/><path class="cls-2" d="M47.35,45.74h0a.18.18,0,0,1,.17.17v4.42a.17.17,0,0,1-.17.17h0a.17.17,0,0,1-.17-.17V45.91A.18.18,0,0,1,47.35,45.74Z"/><rect class="cls-1" x="50.73" y="40.5" width="29.3" height="37.48"/><rect class="cls-23" x="53.49" y="43.18" width="23.9" height="25.33"/><polygon class="cls-24" points="53.49 43.18 77.4 62.78 77.4 43.18 53.49 43.18"/><g class="cls-10"><path class="cls-11" d="M59.49,72.75v.59h-.55l-.13,1h-.68l.12-1h-.44l-.12,1H57l.12-1h-.47v-.59h.55l0-.44h-.47v-.6h.55l.12-.88h.67l-.11.88h.44l.12-.88h.68l-.11.88h.46v.6h-.54l-.06.44Zm-1.1-.44h-.45l-.06.44h.45Z"/><path class="cls-11" d="M60.2,72.56a1.7,1.7,0,0,1,.14-.71,1.84,1.84,0,0,1,.39-.59,1.8,1.8,0,0,1,.61-.38,2.19,2.19,0,0,1,1.54,0,1.8,1.8,0,0,1,.61.38,1.8,1.8,0,0,1,.54,1.3,1.89,1.89,0,0,1-.14.72,1.82,1.82,0,0,1-.4.58,1.68,1.68,0,0,1-.61.39,2.19,2.19,0,0,1-1.54,0,1.68,1.68,0,0,1-.61-.39,1.8,1.8,0,0,1-.39-.58A1.71,1.71,0,0,1,60.2,72.56Zm.94,0a.85.85,0,0,0,.08.39,1,1,0,0,0,.21.3,1.1,1.1,0,0,0,.31.2.94.94,0,0,0,.37.07,1,1,0,0,0,.38-.07,1.27,1.27,0,0,0,.31-.2A1,1,0,0,0,63,73a1,1,0,0,0,.08-.39,1,1,0,0,0-.08-.38,1,1,0,0,0-.52-.5,1,1,0,0,0-.38-.07.94.94,0,0,0-.37.07.92.92,0,0,0-.31.2,1,1,0,0,0-.21.3A.84.84,0,0,0,61.14,72.56Z"/><path class="cls-11" d="M64.74,74.29l.59-3.46h.89l.69,1.85.69-1.85h.89l.59,3.46h-.9l-.3-2-.81,2h-.36l-.78-2-.3,2Z"/><path class="cls-11" d="M71.62,72.36h1.79c0,.18,0,.35,0,.5a2.59,2.59,0,0,1-.09.42,1.87,1.87,0,0,1-.27.48,1.75,1.75,0,0,1-.38.34,1.8,1.8,0,0,1-.49.22,2.1,2.1,0,0,1-.56.07,2,2,0,0,1-.74-.13,1.73,1.73,0,0,1-.57-.38,1.7,1.7,0,0,1-.37-.57,2,2,0,0,1-.14-.75,2,2,0,0,1,.14-.74,1.52,1.52,0,0,1,.37-.58,1.65,1.65,0,0,1,.58-.37,2,2,0,0,1,.75-.13,1.87,1.87,0,0,1,1,.23,1.65,1.65,0,0,1,.64.73l-.85.35a.84.84,0,0,0-.31-.41.81.81,0,0,0-.44-.12.86.86,0,0,0-.36.07.67.67,0,0,0-.28.22,1,1,0,0,0-.19.34,1.45,1.45,0,0,0-.07.44,1.4,1.4,0,0,0,.06.41.92.92,0,0,0,.18.32.88.88,0,0,0,.28.22.94.94,0,0,0,.39.07,1.09,1.09,0,0,0,.26,0,.68.68,0,0,0,.39-.27.61.61,0,0,0,.08-.25h-.74Z"/></g><path class="cls-25" d="M66.43,46.79a1.12,1.12,0,0,0-.12.35,1.31,1.31,0,0,0,0,.28.75.75,0,0,0,.06.41c.06.07.12.09.36.18l.51.21c.27.11.25.14.55.27s.28.1.49.2a1.58,1.58,0,0,1,.49.31,1.48,1.48,0,0,1,.31.43,3.41,3.41,0,0,1,.29.71,5.75,5.75,0,0,1,.17.63,6,6,0,0,1,.14.75c0,.44-.08.53,0,.83s.09.18.16.39,0,.2.1.52.08.35.1.51,0,.17,0,.52v.6c0,.23,0,.3,0,.7A11,11,0,0,0,70,56.9a2,2,0,0,1,0,.49,1,1,0,0,1-.17.44,1.46,1.46,0,0,1-.48.28c-.24.11-.34.13-.44.1a.34.34,0,0,1-.14-.09c-.11-.11-.1-.28-.08-.54s0-.12,0-.36a1.22,1.22,0,0,1,.06-.41c0-.1.1-.08.19-.22a.75.75,0,0,0,.1-.2.74.74,0,0,0,0-.33,1.64,1.64,0,0,0-.14-.37c-.08-.2-.1-.22-.18-.39s-.11-.27-.16-.38-.12-.32-.17-.49a2.67,2.67,0,0,1-.08-.48,3.68,3.68,0,0,1,0-.47,2.83,2.83,0,0,0,0-.38,2.76,2.76,0,0,0-.09-.3s-.08-.28-.13-.53,0-.22-.07-.33v0s0-.09-.07-.08,0,.14,0,.29,0,.22,0,.47,0,.41,0,.65,0,.1,0,.34,0,.28,0,.49,0,.25,0,.38a1.92,1.92,0,0,0,.09.3c0,.15.06.17.08.26a2.54,2.54,0,0,1,0,.29,3.27,3.27,0,0,0,0,.41,6.43,6.43,0,0,1,0,.73c0,.27,0,.28,0,.54,0,0,0,.21,0,.43a5.41,5.41,0,0,1-.07.56c0,.23,0,.45-.08.68s-.07.52-.07.55c0,.43,0,.44-.08.78s-.07.51-.07.51a2.44,2.44,0,0,0-.05.41c0,.14,0,.15,0,.47s0,.34,0,.48,0,.18.05.44,0,.23,0,.45,0,.51,0,.63,0,.24,0,.51v.34a2.1,2.1,0,0,1-.09.42,3.09,3.09,0,0,1-.13.41c-.14.37-.2.56-.26.68a2.77,2.77,0,0,0-.1.26,2.46,2.46,0,0,0-.07.29.63.63,0,0,0,0,.27c0,.06,0,.09,0,.15a.58.58,0,0,1,0,.14c0,.08,0,.08-.07.12a.41.41,0,0,0,0,.22c0,.1.07.09.14.22a1.78,1.78,0,0,0,.12.29.67.67,0,0,1,.06.12.28.28,0,0,1,0,.22.28.28,0,0,1-.15.15.72.72,0,0,1-.2.09,1.94,1.94,0,0,1-.38,0l-.32,0a.62.62,0,0,1-.24,0,.39.39,0,0,1-.17-.14A.42.42,0,0,1,66,68a.73.73,0,0,1,0-.36c0-.19.07-.19.08-.34A1.87,1.87,0,0,0,66,67a2.26,2.26,0,0,1,0-.26.7.7,0,0,1,0-.25,3,3,0,0,0,.08-.29,1.82,1.82,0,0,0,0-.33c0-.19,0-.2,0-.32a3.28,3.28,0,0,0,0-.34c0-.17,0-.18,0-.34a3.53,3.53,0,0,1,0-.46c0-.2,0-.35,0-.46s0-.25,0-.44a3.09,3.09,0,0,0,0-.43c0-.12,0-.24,0-.36s0-.2-.11-.51,0-.28-.08-.42-.06-.33-.09-.48,0-.39-.06-.66-.06-.59-.07-.79,0-.53-.05-.73c0-.36,0-.36,0-.63,0-.45-.07-.41-.07-.66s.07-.47,0-.55a.14.14,0,0,0-.15,0c-.07,0,0,.18,0,.29s0,.22,0,.63,0,.39-.06.8,0,.31,0,.73,0,.55,0,.66,0,.22,0,.36a6.33,6.33,0,0,1-.09.65c-.06.28-.09.28-.12.49a2.4,2.4,0,0,1,0,.37,2.37,2.37,0,0,1-.09.34,3,3,0,0,0,0,.6c0,.26,0,.25,0,.54s0,.22,0,.48,0,.3,0,.51a5,5,0,0,1-.05.55c0,.18,0,.19,0,.35a2.4,2.4,0,0,0,0,.46,2.33,2.33,0,0,0,0,.28c0,.08,0,.09.07.15s0,.16,0,.37a2.67,2.67,0,0,0,0,.4c0,.11,0,.11,0,.25a1.77,1.77,0,0,1,0,.32.75.75,0,0,1,0,.26.49.49,0,0,1-.11.14.34.34,0,0,1-.2.06,1.41,1.41,0,0,1-.41,0c-.22,0-.17,0-.32,0a.58.58,0,0,1-.26-.06.41.41,0,0,1-.13-.1.32.32,0,0,1-.12-.22c0-.13.13-.16.25-.41a1.06,1.06,0,0,0,.09-.25.45.45,0,0,0,0-.28c0-.07,0-.06-.09-.13a.77.77,0,0,1,0-.29v-.27a2.34,2.34,0,0,0,0-.26.81.81,0,0,0-.12-.29c-.07-.16-.14-.32-.2-.49a3.38,3.38,0,0,1-.15-.49c-.06-.22-.08-.38-.09-.41,0-.21,0-.41-.05-.62s0-.42,0-.63,0-.11.05-.44.06-.49.07-.61a5,5,0,0,0,0-.77c0-.11,0-.29-.08-.92s-.11-1-.16-1.24-.09-.5-.13-.87c0-.15,0-.18-.06-.49-.05-.56-.06-.54-.08-.75s0-.5,0-1a2.82,2.82,0,0,1,0-.65c0-.06,0,0,.12-.5.07-.29.08-.36.1-.45s0-.13,0-.41,0-.38.05-.56a6.26,6.26,0,0,0,0-.75,2.48,2.48,0,0,1,0-.43c0-.15.06-.28,0-.32a.07.07,0,0,0-.09,0s0,.12,0,.29a.73.73,0,0,1,0,.25c0,.15-.08.16-.12.29a2,2,0,0,0,0,.31v.37a4,4,0,0,1-.1.85c-.06.22-.13.44-.21.65s-.12.28-.2.53a1.87,1.87,0,0,1-.21.54.35.35,0,0,0-.06.14.36.36,0,0,0,0,.25c0,.12.11.11.2.24a1,1,0,0,1,.12.32,2.19,2.19,0,0,1,0,.36,3.21,3.21,0,0,1,0,.5c0,.26,0,.34-.06.39a.36.36,0,0,1-.19,0,1.11,1.11,0,0,1-.43-.13,1.58,1.58,0,0,1-.29-.17.88.88,0,0,1-.17-.28,1.2,1.2,0,0,1-.08-.42,2.89,2.89,0,0,1,0-.39c0-.14,0-.21,0-.41s0,0,0-.65,0-.64,0-.85,0-.64,0-1a3.71,3.71,0,0,1,.06-.67c.09-.4.2-.44.28-.78a6.41,6.41,0,0,0,0-.87,6.1,6.1,0,0,1,.17-1,4.48,4.48,0,0,1,.22-.71,2.47,2.47,0,0,1,.63-.94,5.89,5.89,0,0,1,1.18-.56,4.36,4.36,0,0,1,.85-.39.34.34,0,0,0,.25-.14c0-.06,0-.1,0-.32s0-.24,0-.32-.09-.11-.12-.24,0-.19-.05-.22-.06,0-.1,0,0-.09,0-.17-.07-.08-.12-.17a.83.83,0,0,1-.07-.31c0-.14,0-.25,0-.27s.07,0,.1,0,0-.13,0-.29a1.94,1.94,0,0,1,0-.34.92.92,0,0,1,0-.29,1,1,0,0,1,.49-.51,1.64,1.64,0,0,1,.51-.22,1.57,1.57,0,0,1,.53,0,1.69,1.69,0,0,1,.44.12,1.39,1.39,0,0,1,.37.22,1.44,1.44,0,0,1,.22.27,1.08,1.08,0,0,1,.13.29,1.1,1.1,0,0,1,0,.31.94.94,0,0,1,0,.38s0,0,0,.05.07-.05.1,0,0,.11,0,.29,0,.24,0,.27,0,.08-.2.29A2.26,2.26,0,0,0,66.43,46.79Z"/><path class="cls-26" d="M64.94,56.63l-.12.09-.13.13-.1.15a.41.41,0,0,0,0,.18.37.37,0,0,0,0,.11.35.35,0,0,0,.06.14l.08.09.12.07.14,0h.12c.1,0,.12,0,.24-.06h.06c.09,0,.12,0,.2.05h.14a.49.49,0,0,0,.17-.06.58.58,0,0,0,.15-.11.67.67,0,0,0,.06-.12.22.22,0,0,0,0-.14.45.45,0,0,0,0-.16.36.36,0,0,0-.08-.12l-.08-.1-.07-.08-.07-.05-.07-.06A.85.85,0,0,0,64.94,56.63Z"/><path class="cls-27" d="M65,56.57a.14.14,0,0,0,0,.09v.84a.17.17,0,0,0,0,.1.12.12,0,0,0,0,.1.31.31,0,0,0,.18,0h.11a.26.26,0,0,0,.17,0,.16.16,0,0,0,.07-.09.19.19,0,0,0,0-.08,1.58,1.58,0,0,1,0-.19.37.37,0,0,1,0-.11v-.12a1,1,0,0,1,0-.18,2.21,2.21,0,0,1,0-.27c0-.07,0-.07,0-.09S65.08,56.48,65,56.57Z"/><path class="cls-28" d="M65,57.71v-.08a.18.18,0,0,1,0-.07.34.34,0,0,1,.17-.11.29.29,0,0,1,.13,0,.3.3,0,0,1,.16.08.12.12,0,0,1,0,.07.19.19,0,0,1,0,.08v0C65.59,57.83,65.08,57.84,65,57.71Z"/><path class="cls-29" d="M65.05,57.66a.26.26,0,0,1,.11-.14.25.25,0,0,1,.22-.05.28.28,0,0,1,.19.12.42.42,0,0,1,0,.1.41.41,0,0,1,0,.11.38.38,0,0,1,0,.1.37.37,0,0,1,0,.11l-.09.08-.12,0h-.1a.27.27,0,0,1-.17-.13.42.42,0,0,1,0-.1.24.24,0,0,1,0-.12A.31.31,0,0,1,65.05,57.66Z"/><path class="cls-30" d="M65.3,58a0,0,0,0,1,.06,0s0,0,0,0,0,.05,0,.06l0,0h0s0,0,0-.06S65.29,58,65.3,58Z"/><path class="cls-31" d="M64,45.77s.09,0,.1,0c.16.13.16.26.27.44a.77.77,0,0,0,.31.31,1.35,1.35,0,0,0,.36.08l.27,0,.27,0a1.25,1.25,0,0,0,.26-.07.77.77,0,0,0,.25-.1,1.39,1.39,0,0,0,.19-.15,1.34,1.34,0,0,0,.2-.21.82.82,0,0,0,.12-.2c.08-.14.09-.19.1-.19a2.2,2.2,0,0,1-.06.53,1.41,1.41,0,0,0,0,.24l-.09.34c-.07.27,0,.29-.12.6a1,1,0,0,1-.12.37.79.79,0,0,1-.51.24,1.12,1.12,0,0,1-.63,0,2.64,2.64,0,0,1-.37-.1,1.41,1.41,0,0,1-.29-.18c-.1-.09-.12-.23-.16-.29a1.16,1.16,0,0,1-.08-.43c0-.25,0-.24,0-.41s0-.17-.06-.36a1.07,1.07,0,0,0,0-.25C64.06,45.88,64,45.78,64,45.77Z"/><path class="cls-32" d="M64,45.8a.25.25,0,0,1,0-.08.64.64,0,0,0,0-.07s0,0,0-.07,0,0,0,0,0-.06,0-.12,0,0,0-.09,0-.06,0-.12,0-.06,0-.1,0,0,0-.06,0-.07,0-.12,0-.06,0-.12,0-.07,0-.09,0,0,.05,0,0,0,0,0,.07,0,.09,0,0-.1,0-.12.06,0,.08,0,0-.06,0-.1,0,0,.07,0,0,0,.07-.05.08,0,.1,0,0,0,0-.05.07,0,.12,0,.08-.14.13-.14.05,0,.09,0l0,0s0-.06,0-.06,0,.06,0,.07,0,0,.07,0,0,0,0,0,0,0,0,0a0,0,0,0,0,0,0s0,0,0,0,0,0,0,0,0,.05,0,.05,0-.05,0-.05,0,0,0,.05a.09.09,0,0,0,.1,0h0a.06.06,0,0,0,0,0s0,0,0,.07h0s0,0,.08,0,0,0,0,.05.09,0,.12,0,0,0,0,.05.07,0,.09,0,0,0,0,.05.07,0,.08,0h0s0,0,.07,0,0,0,0,0,.06,0,.07,0h0s0,0,0,0,0,0,0,0a.11.11,0,0,1,0,.06s0,0,.05,0,0,0,0,.05,0,0,.07,0,0,0,0,0l0,0h.06s0,0,0,.06h.05s0,.05,0,.06h0s0,.06,0,.07h0s0,0,0,.07a.09.09,0,0,0,0,.08s.05,0,.07,0,0,.05,0,.09,0,0,0,.07,0,0,0,.08a.49.49,0,0,1,0,.07.36.36,0,0,1,0,.1v.1a.65.65,0,0,1,0,.11l0,.08v.07s0,0,0,.07,0,0,0,0a.64.64,0,0,0,0,.07s0,0,0,.06,0,.08-.06.07,0,0,0-.07-.07-.13-.07-.2a.87.87,0,0,0-.12-.36,1.45,1.45,0,0,0-.27-.47.79.79,0,0,0-.38-.21,1.17,1.17,0,0,0-.46-.07,1.88,1.88,0,0,0-.4.06,1.12,1.12,0,0,0-.4.25,2.42,2.42,0,0,0-.27.36.92.92,0,0,0-.1.37,1.66,1.66,0,0,1-.12.31S64.05,45.8,64,45.8Z"/><rect class="cls-33" x="65.31" y="54.62" width="0.17" height="0.27" rx="0.06"/><path class="cls-33" d="M65.17,51.28s0,.08,0,.12l-.06.1-.11.09-.17.08c-.08,0-.09.07-.18.07a2.6,2.6,0,0,1-.4,0,2.41,2.41,0,0,1-.41,0,1.82,1.82,0,0,0-.36,0,.51.51,0,0,1-.24,0c-.08,0-.1-.09-.12-.08s0,.1,0,.13a.18.18,0,0,0,.17.06s0,0,.17,0l.2,0h.63l.36,0c.1,0,.18-.11.25-.14l.1-.07.09-.07a.43.43,0,0,0,0-.07.28.28,0,0,0,0-.13S65.18,51.28,65.17,51.28Z"/><rect class="cls-33" x="63.86" y="51.43" width="0.36" height="0.22" rx="0.07"/><rect class="cls-33" x="66.69" y="51.4" width="0.37" height="0.22" rx="0.07"/><path class="cls-33" d="M65.77,51.24s0,.08,0,.12l.06.1a.41.41,0,0,0,.1.09.6.6,0,0,0,.16.08c.08,0,.1.08.18.08l.38,0,.4,0a3.39,3.39,0,0,1,.35,0,.45.45,0,0,0,.23,0c.07,0,.1-.1.12-.09s0,.1,0,.14a.18.18,0,0,1-.16,0s0,0-.17,0h-.8l-.35,0c-.09,0-.17-.1-.24-.14l-.1-.07-.08-.06a.43.43,0,0,0,0-.07.33.33,0,0,1,0-.14A.2.2,0,0,1,65.77,51.24Z"/></svg>
